<?xml version="1.0" encoding="UTF-8"?>
<!-- Generator: visioncortex VTracer 0.6.2 -->
<svg version="1.1" xmlns="http://www.w3.org/2000/svg" width="1280" height="1280">
<path d="M0 0 C7.33387573 3.28906763 12.873619 7.43714077 16.3125 14.81640625 C17.21537808 18.99734735 16.25220023 20.36682422 14 23.9375 C13.401875 24.91589844 12.80375 25.89429688 12.1875 26.90234375 C10.55027084 29.22077718 8.95268887 31.21397385 7.0703125 33.30859375 C3.63933307 37.22747959 1.2894732 41.53216927 -1.125 46.125 C-3.77711462 51.12542663 -6.38039417 55.61997277 -10 60 C-10.91510574 61.60275746 -11.78938427 63.22940092 -12.625 64.875 C-16.55911431 72.26394567 -21.2925989 79.09094619 -26 86 C-31.79875606 94.55116101 -37.33978393 103.26140788 -42.41796875 112.26171875 C-49.60699816 124.93231293 -49.60699816 124.93231293 -54.5 129.9375 C-59.24562328 134.82540828 -62.14940728 140.34522336 -65.32446289 146.30712891 C-68.27842904 151.8214306 -71.48271182 156.77821303 -75.30859375 161.73828125 C-77.06712022 163.98968392 -77.06712022 163.98968392 -78.47265625 166.60546875 C-80.08160018 169.12793072 -81.62553149 170.24026543 -84 172 C-85.45887568 174.10703951 -85.45887568 174.10703951 -86.625 176.4375 C-87.02976562 177.19933594 -87.43453125 177.96117187 -87.8515625 178.74609375 C-88.57075854 180.15757713 -89.25866885 181.58594117 -89.8984375 183.03515625 C-91.25939621 185.46268189 -93.00600262 187.06541408 -95 189 C-96.21075887 190.50238252 -97.39854138 192.02357485 -98.5625 193.5625 C-100.16644007 195.68084402 -101.70058664 197.70498977 -103.59375 199.5703125 C-105.50188074 201.51024542 -106.65496329 203.80026742 -107.9609375 206.16796875 C-109.49623263 208.87493648 -111.26152377 211.4203256 -113 214 C-113.64582031 215.16982422 -113.64582031 215.16982422 -114.3046875 216.36328125 C-116.24489839 219.38089035 -118.46766398 221.58995375 -121.0625 224.0625 C-125.23185145 228.03373936 -125.23185145 228.03373936 -128 233 C-128.66 233 -129.32 233 -130 233 C-130.35578125 234.07314453 -130.35578125 234.07314453 -130.71875 235.16796875 C-132.20820269 238.46020411 -134.06794847 240.64750847 -136.5 243.3125 C-137.2940625 244.19550781 -138.088125 245.07851563 -138.90625 245.98828125 C-141 248 -141 248 -143 248 C-143.25136719 248.59296875 -143.50273437 249.1859375 -143.76171875 249.796875 C-145.52071338 252.92644273 -148.03420569 254.64181644 -150.83203125 256.828125 C-152.77862321 258.77822433 -153.89984049 260.37084602 -155.28515625 262.7109375 C-158.16337685 267.49562687 -161.7699208 271.36180232 -165.625 275.375 C-166.29273438 276.08527344 -166.96046875 276.79554688 -167.6484375 277.52734375 C-170.34741222 280.37206311 -172.72211052 282.81474034 -176 285 C-161.38027398 290.91160834 -146.68465806 296.60207334 -131.9375 302.1875 C-130.84639923 302.60107758 -129.75529846 303.01465515 -128.63113403 303.44076538 C-122.06862233 305.92778228 -115.50437707 308.41017752 -108.93896484 310.88952637 C-106.2738425 311.89652994 -103.60942467 312.90536676 -100.9453125 313.91503906 C-17.9314349 345.35283617 67.73648421 373.43806225 180 365 C181.18416504 364.82307617 182.36833008 364.64615234 183.58837891 364.46386719 C217.54385148 359.24826336 243.73435129 350.44519641 265.0703125 322.265625 C267.45207533 319.46922329 269.48807335 318.87798166 273 318 C275.96220393 320.22165295 277.65472374 321.63989147 278.578125 325.27734375 C278.91314392 330.21887289 278.26277611 333.35313655 275.0625 337.1875 C273.74409669 338.4953981 272.38829137 339.76653667 271 341 C270.34773437 341.59554688 269.69546875 342.19109375 269.0234375 342.8046875 C250.07701829 358.7707711 222.87996874 364.42751872 199.47483826 370.53694153 C195.73945148 371.51741696 192.0422772 372.57764532 188.35546875 373.7265625 C185.04022744 374.74198264 181.98137898 375.39173616 178.5 375.5625 C175.05965202 375.74213842 171.88717244 376.23997568 168.53857422 377.00488281 C162.77692924 378.16884195 157.213329 378.27163827 151.3515625 378.23046875 C150.25895111 378.23001053 149.16633972 378.22955231 148.0406189 378.2290802 C145.73621531 378.2260742 143.43181345 378.21823782 141.12744141 378.20581055 C137.66951968 378.18773275 134.21187002 378.18530019 130.75390625 378.18554688 C120.4721518 378.16954698 110.20448566 378.06016883 99.93359375 377.5625 C98.77671555 377.50711311 98.77671555 377.50711311 97.59646606 377.4506073 C90.40224786 377.0543403 83.2779605 376.15789042 76.16796875 375 C75.20552246 374.84402344 74.24307617 374.68804688 73.25146484 374.52734375 C71.64198975 374.26630859 71.64198975 374.26630859 70 374 C68.74268066 373.80277344 67.48536133 373.60554688 66.18994141 373.40234375 C19.89203654 366.13200641 -24.75343866 353.28726616 -69 338 C-70.10359863 337.62053223 -71.20719727 337.24106445 -72.34423828 336.85009766 C-92.66426692 329.82391237 -112.62378606 321.80282062 -132.62744141 313.93273926 C-136.13577753 312.55348446 -139.64597521 311.17899888 -143.15625 309.8046875 C-145.54171748 308.86992134 -147.92713703 307.93503283 -150.3125 307 C-151.42020752 306.56598877 -152.52791504 306.13197754 -153.66918945 305.68481445 C-158.79638407 303.67096139 -163.91298993 301.6357477 -169.01171875 299.55078125 C-169.94395264 299.17115234 -170.87618652 298.79152344 -171.83666992 298.40039062 C-173.5490448 297.70093674 -175.25906606 296.99567765 -176.96606445 296.28320312 C-177.70945068 295.97962891 -178.45283691 295.67605469 -179.21875 295.36328125 C-180.1768457 294.96556519 -180.1768457 294.96556519 -181.15429688 294.55981445 C-183.31651172 293.80650014 -183.31651172 293.80650014 -187 294 C-188.86902555 295.64069648 -188.86902555 295.64069648 -190.5 297.8125 C-194.23103356 302.46781233 -197.46940379 304.81820516 -203 307 C-204.64741261 308.00584598 -206.27128127 309.05085817 -207.875 310.125 C-219.61974644 317.69768504 -234.24920303 327.07974967 -248.37890625 328.53515625 C-249.57386719 328.68855469 -250.76882812 328.84195312 -252 329 C-252.33 329.66 -252.66 330.32 -253 331 C-253.72896484 330.51660156 -253.72896484 330.51660156 -254.47265625 330.0234375 C-258.06559301 328.56849248 -261.6172863 328.70407453 -265.4375 328.625 C-282.84703029 327.90235997 -300.04484409 321.21900432 -312.08203125 308.39453125 C-316.83969282 302.45472159 -318.44758349 297.51712736 -318.3359375 289.9921875 C-317.58853223 283.33506614 -315.67801383 276.19135135 -311.30859375 270.984375 C-309.28746108 269.38097121 -307.2868504 268.19462334 -305 267 C-304.08863281 266.48050781 -303.17726563 265.96101563 -302.23828125 265.42578125 C-282.12411501 254.56676078 -261.00647761 256.79573522 -239.796875 263.09765625 C-230.74936278 265.84148618 -221.73642995 268.70015721 -212.8046875 271.80078125 C-209.09360918 272.97049485 -207.60210813 273.16538792 -204 272 C-202 272 -200 272 -198 272 C-197.690625 271.360625 -197.38125 270.72125 -197.0625 270.0625 C-196 268 -196 268 -195 267 C-195.99 266.67 -196.98 266.34 -198 266 C-198 265.34 -198 264.68 -198 264 C-197.01 263.67 -196.02 263.34 -195 263 C-193.68312397 261.04299849 -193.68312397 261.04299849 -192.5625 258.6875 C-190.69906854 255.15474452 -188.87135752 252.78434669 -186 250 C-184.43033557 247.77423245 -182.94191777 245.50684344 -181.46484375 243.21875 C-180.04445689 241.06733736 -178.6573163 238.97620372 -177 237 C-176.34 237 -175.68 237 -175 237 C-174.67 236.01 -174.34 235.02 -174 234 C-173.34 233.525625 -172.68 233.05125 -172 232.5625 C-169.70810365 230.77195598 -169.38878998 229.81872737 -169 227 C-167.68 226.67 -166.36 226.34 -165 226 C-165 225.34 -165 224.68 -165 224 C-163.66666667 222.66666667 -162.33333333 221.33333333 -161 220 C-160.525625 219.195625 -160.05125 218.39125 -159.5625 217.5625 C-157.74179007 214.57653572 -155.46619811 212.46619811 -153 210 C-152.30251417 208.68252676 -151.63040043 207.35085807 -151 206 C-150.01581303 204.98443316 -149.01308575 203.98674073 -148 203 C-144.29093107 199.03048797 -140.92413374 195.02360787 -138 190.4375 C-135.58607277 186.67821066 -132.87492354 183.80273851 -129.6484375 180.73828125 C-127.45070988 178.42077227 -125.99140995 175.86375795 -124.39453125 173.11328125 C-122.20227802 169.79112719 -119.44063106 167.02260374 -116.671875 164.17578125 C-114.80806238 162.10558005 -114.80806238 162.10558005 -114.578125 159.41796875 C-114 157 -114 157 -111.671875 155.5 C-110.79015625 155.005 -109.9084375 154.51 -109 154 C-106.96544332 151.64839061 -106.96544332 151.64839061 -105.25 149 C-104.65703125 148.13375 -104.0640625 147.2675 -103.453125 146.375 C-101.87167675 143.99066009 -101.87167675 143.99066009 -101 141 C-98.9375 140.3125 -98.9375 140.3125 -97 140 C-96.92265625 139.47535156 -96.8453125 138.95070313 -96.765625 138.41015625 C-95.69338618 135.03479222 -93.72135644 132.3410728 -91.75 129.4375 C-88.25655073 124.18558457 -85.41870085 118.9890436 -83.0703125 113.109375 C-82 111 -82 111 -79 109 C-78.67 108.01 -78.34 107.02 -78 106 C-77.34 106 -76.68 106 -76 106 C-75.8453125 104.3603125 -75.8453125 104.3603125 -75.6875 102.6875 C-75 99 -75 99 -73.5625 97.0625 C-72 96 -72 96 -70 96 C-69.92136719 95.31035156 -69.84273437 94.62070312 -69.76171875 93.91015625 C-68.80293138 90.2470968 -66.92630281 87.516756 -64.8125 84.4375 C-61.85704401 80.00985275 -59.21802885 75.63814944 -56.9375 70.8125 C-53.71594924 64.09943613 -49.62268499 57.57294561 -44.29296875 52.31640625 C-42.83382265 51.05321943 -42.83382265 51.05321943 -42.5 49 C-41.88303312 46.53213247 -40.81172858 45.73925944 -39 44 C-38.31261972 42.67722618 -37.64954374 41.34175823 -37 40 C-36.10894442 38.37237525 -35.21259768 36.74764184 -34.3125 35.125 C-31.94945948 30.82804254 -29.7610277 26.47630552 -27.625 22.0625 C-14.60953346 -4.05462823 -14.60953346 -4.05462823 0 0 Z M-79 146 C-79.99 146.66 -80.98 147.32 -82 148 C-82 148.66 -82 149.32 -82 150 C-80.68 149.34 -79.36 148.68 -78 148 C-78.33 147.34 -78.66 146.68 -79 146 Z M-85 151 C-85.33 152.98 -85.66 154.96 -86 157 C-85.01 155.68 -84.02 154.36 -83 153 C-83.66 152.34 -84.32 151.68 -85 151 Z M-88 157 C-88 157.66 -88 158.32 -88 159 C-87.34 158.67 -86.68 158.34 -86 158 C-86.66 157.67 -87.32 157.34 -88 157 Z M-91 159 C-91.99 160.485 -91.99 160.485 -93 162 C-91.35 162 -89.7 162 -88 162 C-88.33 161.01 -88.66 160.02 -89 159 C-89.66 159 -90.32 159 -91 159 Z M-99 169 C-98.67 169.66 -98.34 170.32 -98 171 C-97.67 170.34 -97.34 169.68 -97 169 C-97.66 169 -98.32 169 -99 169 Z M-101 172 C-101.103125 172.639375 -101.20625 173.27875 -101.3125 173.9375 C-101.539375 174.618125 -101.76625 175.29875 -102 176 C-102.99 176.33 -103.98 176.66 -105 177 C-104.67 177.66 -104.34 178.32 -104 179 C-102.35 177.35 -100.7 175.7 -99 174 C-99.66 173.34 -100.32 172.68 -101 172 Z M-104 180 C-104 183 -104 183 -104 183 Z M-111 185 C-111.12375 185.61875 -111.2475 186.2375 -111.375 186.875 C-112 189 -112 189 -114 191 C-110.06924356 190.42547254 -110.06924356 190.42547254 -107 188 C-107.33 187.01 -107.66 186.02 -108 185 C-108.99 185 -109.98 185 -111 185 Z M-120 195 C-119.67 195.99 -119.34 196.98 -119 198 C-118.01 198 -117.02 198 -116 198 C-115.34 196.02 -114.68 194.04 -114 192 C-116.76223278 192 -117.89281454 193.31425163 -120 195 Z M-120 199 C-120.33 200.32 -120.66 201.64 -121 203 C-120.01 202.01 -119.02 201.02 -118 200 C-118.66 199.67 -119.32 199.34 -120 199 Z M-124 202 C-129.9513672 205.91089845 -133.55180995 212.07387367 -135 219 C-134.01 219 -133.02 219 -132 219 C-132 217.68 -132 216.36 -132 215 C-131.01 214.67 -130.02 214.34 -129 214 C-127.62040941 212.20796698 -127.62040941 212.20796698 -126.4375 210.0625 C-125.05802973 207.69462424 -123.95028299 205.95028299 -122 204 C-122.66 203.34 -123.32 202.68 -124 202 Z M-137.5625 217.3125 C-139.32423323 219.0111602 -139.32423323 219.0111602 -139 222 C-139.66 222 -140.32 222 -141 222 C-141.33 223.32 -141.66 224.64 -142 226 C-140.35 225.67 -138.7 225.34 -137 225 C-136.34 222.03 -135.68 219.06 -135 216 C-136.2124831 215.89280132 -136.2124831 215.89280132 -137.5625 217.3125 Z M-146 228.75 C-147.81653474 230.79360159 -148.93136413 232.5065163 -150 235 C-147.01779872 234.45160938 -147.01779872 234.45160938 -144 233 C-142.54839062 229.98220128 -142.54839062 229.98220128 -142 227 C-144.19206384 226.78049846 -144.19206384 226.78049846 -146 228.75 Z M-156 230 C-156.66 231.32 -157.32 232.64 -158 234 C-157.01 233.34 -156.02 232.68 -155 232 C-155.33 231.34 -155.66 230.68 -156 230 Z M-141 231 C-141 231.99 -141 232.98 -141 234 C-140.34 233.01 -139.68 232.02 -139 231 C-139.66 231 -140.32 231 -141 231 Z M-160 234 C-160.33 234.66 -160.66 235.32 -161 236 C-160.01 235.67 -159.02 235.34 -158 235 C-158.66 234.67 -159.32 234.34 -160 234 Z M-143 234 C-143.33 234.66 -143.66 235.32 -144 236 C-143.34 236 -142.68 236 -142 236 C-142.33 235.34 -142.66 234.68 -143 234 Z M-149 236 C-149 239 -149 239 -149 239 Z M-152 237 C-152.99 238.485 -152.99 238.485 -154 240 C-152.68 239.67 -151.36 239.34 -150 239 C-150.66 238.34 -151.32 237.68 -152 237 Z M-159 250 C-159 250.66 -159 251.32 -159 252 C-158.01 251.67 -157.02 251.34 -156 251 C-156.99 250.67 -157.98 250.34 -159 250 Z M-166 254 C-166.2475 254.78375 -166.495 255.5675 -166.75 256.375 C-168.15389099 259.32317108 -169.00675737 259.9024777 -172 261 C-172 261.99 -172 262.98 -172 264 C-171.54109375 263.66226562 -171.0821875 263.32453125 -170.609375 262.9765625 C-164.51493849 258.54657293 -164.51493849 258.54657293 -161 257 C-161.33 256.34 -161.66 255.68 -162 255 C-162.99 255.495 -162.99 255.495 -164 256 C-164 255.34 -164 254.68 -164 254 C-164.66 254 -165.32 254 -166 254 Z M-173 266 C-173 266.66 -173 267.32 -173 268 C-173.99 268.33 -174.98 268.66 -176 269 C-176.144375 269.639375 -176.28875 270.27875 -176.4375 270.9375 C-176.623125 271.618125 -176.80875 272.29875 -177 273 C-178.31647119 273.69937532 -179.65022151 274.36729133 -181 275 C-181.33 275.99 -181.66 276.98 -182 278 C-182.66 278 -183.32 278 -184 278 C-183.67 278.99 -183.34 279.98 -183 281 C-178.19905123 277.06135756 -174.04697176 273.45915773 -171 268 C-171 267.34 -171 266.68 -171 266 C-171.66 266 -172.32 266 -173 266 Z M-305.375 277.4375 C-308.77427332 282.79789255 -311.1756466 287.56380659 -311 294 C-308.68289404 302.10987088 -303.1016531 307.92408935 -296.0625 312.375 C-285.63395499 318.12868001 -274.01177179 318.68661998 -262.5625 315.5 C-252.60739938 312.068046 -242.63175559 307.02239461 -234.7109375 300.03125 C-232.41182485 298.64548347 -230.63242275 298.82031244 -228 299 C-227.505 297.515 -227.505 297.515 -227 296 C-225.0625 294.9375 -225.0625 294.9375 -223 294 C-222.34 293.34 -221.68 292.68 -221 292 C-219.515 292.495 -219.515 292.495 -218 293 C-215.83284443 292.12516085 -215.83284443 292.12516085 -214 291 C-214 290.01 -214 289.02 -214 288 C-214.66 288 -215.32 288 -216 288 C-215.01 287.071875 -215.01 287.071875 -214 286.125 C-211.7715451 284.24362573 -211.7715451 284.24362573 -212 282 C-259.74017538 262.91214603 -259.74017538 262.91214603 -305.375 277.4375 Z " fill="#000000" transform="translate(495,423)"/>
<path d="M0 0 C2.63016161 2.1727422 4.47336894 3.94673788 6 7 C6.336752 12.30384394 5.99273478 16.52012869 4.5 21.625 C2.70110124 27.71786535 2.70110124 27.71786535 3 34 C6.01231111 38.57323596 9.99460901 42.03870162 14.1875 45.5 C18.60422412 49.28208804 21.37145047 53.22870279 22.33984375 59.0390625 C22.71971504 66.9099956 18.78817564 73.13519315 14 79 C12.33333333 80.66666667 10.66666667 82.33333333 9 84 C8.08532901 85.25734311 7.18975652 86.52877272 6.3125 87.8125 C5.549375 88.864375 4.78625 89.91625 4 91 C3.34 91 2.68 91 2 91 C1.82404297 92.10214844 1.82404297 92.10214844 1.64453125 93.2265625 C0.99934523 96.00281749 0.11593478 97.92499111 -1.3125 100.375 C-1.7559375 101.14457031 -2.199375 101.91414062 -2.65625 102.70703125 C-3.0996875 103.46371094 -3.543125 104.22039062 -4 105 C-4.77201185 106.35349514 -5.54297633 107.70758867 -6.3125 109.0625 C-6.869375 110.031875 -7.42625 111.00125 -8 112 C-8.99 112 -9.98 112 -11 112 C-11.33 113.32 -11.66 114.64 -12 116 C-12.66 116 -13.32 116 -14 116 C-14.185625 116.9590625 -14.185625 116.9590625 -14.375 117.9375 C-15.1979822 121.97011276 -16.09885975 125.98423907 -17 130 C-17.66 130 -18.32 130 -19 130 C-18.03336251 132.10211697 -18.03336251 132.10211697 -16 134 C-4.7212168 137.34186169 6.69525343 130.47900263 16.41381836 125.26831055 C31.02162266 117.23279039 45.06682075 108.53881787 58 98 C58.88816406 97.30261719 59.77632812 96.60523438 60.69140625 95.88671875 C63.15171628 93.95227651 65.57957916 91.98401775 68 90 C68.78246094 89.37738281 69.56492187 88.75476563 70.37109375 88.11328125 C76.88676726 82.69637225 82.28737712 76.13786864 85 68 C85.66 68 86.32 68 87 68 C87.061875 67.2575 87.12375 66.515 87.1875 65.75 C88.25567201 62.1346486 90.04279541 61.2694826 93 59 C94.34216975 57.00591923 95.6772113 55.00698975 97 53 C97.66 53 98.32 53 99 53 C99.309375 52.195625 99.309375 52.195625 99.625 51.375 C101.53250426 48.08021991 104.04819384 45.40636372 107 43 C107.66 43 108.32 43 109 43 C109.3403125 42.195625 109.3403125 42.195625 109.6875 41.375 C112.54069581 36.21207424 115.913019 32.86957903 121 30 C121.639375 29.319375 122.27875 28.63875 122.9375 27.9375 C125.44144386 25.58531032 127.71852832 24.89494682 131 24 C131 23.34 131 22.68 131 22 C140.30107527 16.71392252 151.29970279 12.92231708 162.09375 15.5 C168.63299616 17.64721516 172.26924137 21.39016819 175.6875 27.3125 C182.09875167 41.0074205 180.85455029 57.69913903 175.875 71.625 C171.34868223 82.33199146 165.44077307 91.86258447 158.2734375 100.98828125 C156.08097714 103.79301208 156.08097714 103.79301208 154.70581055 106.10644531 C150.98097174 112.14658605 146.83078436 116.03830531 141.0625 120.125 C140.23508301 120.72538086 139.40766602 121.32576172 138.55517578 121.94433594 C132.24324365 126.4059474 125.84087054 129.81635632 118.7109375 132.765625 C115.88284876 133.71039251 115.88284876 133.71039251 115 136 C93.79288266 140.43297162 93.79288266 140.43297162 86 136 C86 134.35 86 132.7 86 131 C85.34 131 84.68 131 84 131 C84 130.34 84 129.68 84 129 C83.34 129 82.68 129 82 129 C80.84658302 126.77447742 79.70218841 124.54504031 78.5625 122.3125 C78.07426758 121.37374023 78.07426758 121.37374023 77.57617188 120.41601562 C75.80665566 116.9317105 74.69052494 113.82805575 74 110 C73.34 109.01 72.68 108.02 72 107 C72.31229724 105.66158328 72.64830932 104.32860925 73 103 C72.61432869 100.31850007 72.61432869 100.31850007 72 98 C67.59754237 101.16976949 63.42090078 104.47170715 59.34472656 108.05444336 C40.27711406 124.77514785 14.28036575 145.90601253 -12.45703125 145.2421875 C-17.64042838 144.74853063 -20.70190284 142.53912775 -24.1875 138.875 C-27.31878506 134.98561435 -29.06998879 130.90115906 -30 126 C-29.6875 123.4375 -29.6875 123.4375 -29 121 C-28.99452368 119.66651516 -29.0178269 118.33274758 -29.0625 117 C-29.11947415 114.23416388 -28.99462608 112.98746085 -27.875 110.375 C-26.65335869 107.05911643 -27.88108373 105.2909302 -29 102 C-28.8125 98.25 -28.8125 98.25 -28 95 C-27.01 94.34 -26.02 93.68 -25 93 C-23.78715124 89.94570927 -23.78715124 89.94570927 -23 87 C-22.34 87 -21.68 87 -21 87 C-20.814375 86.195625 -20.62875 85.39125 -20.4375 84.5625 C-18.73837689 80.35162967 -16.34941577 77.41929893 -13.4609375 73.953125 C-11.80034183 72.13958806 -11.80034183 72.13958806 -12 70 C-11.01 70 -10.02 70 -9 70 C-9 69.34 -9 68.68 -9 68 C-8.34 68 -7.68 68 -7 68 C-6.79375 67.34 -6.5875 66.68 -6.375 66 C-3.6468938 60.0477683 0.89112625 55.05707539 5 50 C4.05125 49.175 3.1025 48.35 2.125 47.5 C1.59132813 47.0359375 1.05765625 46.571875 0.5078125 46.09375 C-0.95936421 44.80427542 -0.95936421 44.80427542 -3 45 C-3.44988281 45.85980469 -3.89976562 46.71960938 -4.36328125 47.60546875 C-14.17136209 65.84204368 -29.29536726 81.72575283 -45.7265625 94.2265625 C-48.18588073 96.14499974 -50.45748212 98.19804177 -52.75 100.3125 C-58.28233711 105.34580825 -64.11679234 109.92489956 -70.0390625 114.48486328 C-72.10700507 116.08267847 -74.1630451 117.69507172 -76.21875 119.30859375 C-93.66740742 132.93070492 -112.78784722 147.03828865 -136 145 C-141.60981859 143.82374772 -143.65349785 141.468359 -146.75 136.875 C-149.61236414 132.04435849 -151.4957246 127.39769407 -153 122 C-152.67 121.67 -152.34 121.34 -152 121 C-151.95834237 119.00043389 -151.95834237 116.99956611 -152 115 C-152 114.67 -152 114.34 -152 114 C-152.32380126 112.66431979 -152.65657551 111.33076989 -153 110 C-157.23201695 113.23279073 -161.42508947 116.49865289 -165.4921875 119.9375 C-200.60581791 149.45840794 -200.60581791 149.45840794 -220 149 C-223.3125 148.625 -223.3125 148.625 -226 148 C-227.66600671 147.66338371 -229.33258562 147.32957269 -231 147 C-231.10957031 146.26136719 -231.21914063 145.52273438 -231.33203125 144.76171875 C-232.31645357 138.46301661 -233.60114804 132.4598508 -235.51171875 126.375 C-236.03157418 123.84642319 -235.83291425 122.41489231 -235 120 C-233.35 120 -231.7 120 -230 120 C-230 119.34 -230 118.68 -230 118 C-230.66 118 -231.32 118 -232 118 C-232 117.01 -232 116.02 -232 115 C-231.01 115 -230.02 115 -229 115 C-229 114.01 -229 113.02 -229 112 C-229.99 112.99 -229.99 112.99 -231 114 C-232.16116579 109.74239209 -231.89407005 106.30779205 -231 102 C-230.01 101.01 -230.01 101.01 -229 100 C-229.33 99.34 -229.66 98.68 -230 98 C-229.34 98 -228.68 98 -228 98 C-228 97.34 -228 96.68 -228 96 C-228.66 96 -229.32 96 -230 96 C-229.88512252 94.41590006 -229.75765492 92.83271037 -229.625 91.25 C-229.55539062 90.36828125 -229.48578125 89.4865625 -229.4140625 88.578125 C-228.99604055 85.97534682 -228.41118128 84.21757058 -227 82 C-224.875 81.25 -224.875 81.25 -223 81 C-222.91621094 80.28457031 -222.83242188 79.56914063 -222.74609375 78.83203125 C-221.83513413 75.37420024 -220.32114565 73.44443637 -218.0625 70.6875 C-216.99708984 69.36298828 -216.99708984 69.36298828 -215.91015625 68.01171875 C-215.27980469 67.34785156 -214.64945312 66.68398438 -214 66 C-213.34 66 -212.68 66 -212 66 C-211.34 64.02 -210.68 62.04 -210 60 C-209.34 60 -208.68 60 -208 60 C-207.5978125 59.1028125 -207.5978125 59.1028125 -207.1875 58.1875 C-206.01205637 56.02220911 -204.72355889 54.72355889 -203 53 C-203 52.34 -203 51.68 -203 51 C-201.68 51 -200.36 51 -199 51 C-198.79375 50.443125 -198.5875 49.88625 -198.375 49.3125 C-197.01718779 47.02890674 -195.92057214 46.0008439 -193.875 44.375 C-192.451875 43.199375 -192.451875 43.199375 -191 42 C-191 41.34 -191 40.68 -191 40 C-190.01 39.67 -189.02 39.34 -188 39 C-187.360625 38.175 -186.72125 37.35 -186.0625 36.5 C-183.95413975 33.94441182 -183.2008465 33.34294784 -180 33 C-180 32.01 -180 31.02 -180 30 C-177.36740403 27.58085776 -175.40571201 26.13523734 -172 25 C-171.01 23.515 -171.01 23.515 -170 22 C-166.55191524 19.76888633 -163.76997121 18.21136465 -159.8125 17.125 C-156.22614883 16.06673244 -153.36750674 14.71893567 -150.0625 13 C-140.80700163 8.28601946 -131.61404833 6.20755021 -121.375 9.0625 C-113.81384843 11.94802781 -108.19075584 17.50911979 -104.84375 24.84765625 C-103.72905739 29.01227168 -103.53472413 32.95245486 -103.5 37.25 C-103.49355469 38.01868408 -103.48710938 38.78736816 -103.48046875 39.5793457 C-103.58852173 44.36432664 -104.22528791 47.93883048 -107 52 C-108.9375 53.08203125 -108.9375 53.08203125 -111 53 C-113 51.63671875 -113 51.63671875 -115 49.6875 C-118.81708582 46.01206385 -121.83673662 43.72712993 -127.25 43.5 C-137.43548547 43.69674786 -148.23216774 48.6131157 -156 55 C-156.86625 55.515625 -157.7325 56.03125 -158.625 56.5625 C-162.50736885 58.91235483 -165.86398513 61.73331785 -169 65 C-174 70 -174 70 -175.5 71.4375 C-176.99959509 72.94733555 -176.99959509 72.94733555 -178.1875 74.515625 C-179.39902495 76.05887702 -180.6965223 77.53358759 -182 79 C-182.99 79 -183.98 79 -185 79 C-185.08378906 79.69480469 -185.16757812 80.38960937 -185.25390625 81.10546875 C-186.18788521 84.72891591 -187.84704718 87.21651291 -189.9375 90.3125 C-191.00291016 91.91544922 -191.00291016 91.91544922 -192.08984375 93.55078125 C-192.72019531 94.35902344 -193.35054688 95.16726563 -194 96 C-194.66 96 -195.32 96 -196 96 C-196.103125 96.556875 -196.20625 97.11375 -196.3125 97.6875 C-197.14482261 100.48713061 -198.45224697 102.51253977 -200 105 C-200.88509584 106.51497999 -201.75933768 108.03633232 -202.625 109.5625 C-203.05039062 110.30628906 -203.47578125 111.05007813 -203.9140625 111.81640625 C-204.94388402 113.88716247 -205.53920435 115.74210134 -206 118 C-206.66 118 -207.32 118 -208 118 C-208.2475 118.825 -208.495 119.65 -208.75 120.5 C-209.95776678 123.88174698 -211.41552958 126.90918389 -213.09765625 130.0703125 C-214.01466752 132.03136691 -214.5448252 133.88836434 -215 136 C-215.66 136 -216.32 136 -217 136 C-217 137.32 -217 138.64 -217 140 C-201.41883417 137.07853141 -188.53654583 125.40948111 -176.77636719 115.49267578 C-174.3131423 113.42283563 -171.81240587 111.40028606 -169.3125 109.375 C-165.27005734 106.06920728 -161.28685451 102.69930654 -157.3125 99.3125 C-152.66712706 95.35525453 -147.94011542 91.58400531 -143 88 C-143.33 87.01 -143.66 86.02 -144 85 C-143.195625 84.54625 -142.39125 84.0925 -141.5625 83.625 C-138.91143428 82.25274335 -138.91143428 82.25274335 -138 80 C-137.34 80 -136.68 80 -136 80 C-135.979375 79.175 -135.95875 78.35 -135.9375 77.5 C-134.62760651 72.60973097 -131.71748173 69.38265081 -128 66 C-127.34 66 -126.68 66 -126 66 C-125.95875 65.443125 -125.9175 64.88625 -125.875 64.3125 C-124.50888331 60.70204874 -122.12239376 59.14281925 -119 57 C-116.9375 56.8125 -116.9375 56.8125 -115 58 C-109.28313646 64.11571448 -108.58857372 68.4103431 -108.65234375 76.5546875 C-109.1642722 81.62795597 -110.74312157 86.03545415 -114 90 C-114.86238281 90.31582031 -115.72476563 90.63164063 -116.61328125 90.95703125 C-117.79470703 91.47330078 -117.79470703 91.47330078 -119 92 C-119.70665822 94.38647956 -119.70665822 94.38647956 -120 97 C-121.19921875 99.10546875 -121.19921875 99.10546875 -122.6875 101.1875 C-126.02835642 105.99250899 -129.03186696 110.95838395 -132 116 C-133.485 115.505 -133.485 115.505 -135 115 C-135 115.99 -135 116.98 -135 118 C-135.66 118 -136.32 118 -137 118 C-137.06058594 118.63808594 -137.12117187 119.27617188 -137.18359375 119.93359375 C-137.26738281 120.75988281 -137.35117187 121.58617187 -137.4375 122.4375 C-137.51871094 123.26121094 -137.59992188 124.08492187 -137.68359375 124.93359375 C-138 127 -138 127 -139 128 C-138.34 128.33 -137.68 128.66 -137 129 C-137.33 130.65 -137.66 132.3 -138 134 C-128.92105753 137.02631416 -120.32590214 133.15470974 -112.11328125 129.15234375 C-94.79718301 120.37715511 -78.63303895 109.46109711 -63 98 C-62.04480469 97.30390625 -61.08960938 96.6078125 -60.10546875 95.890625 C-53.78916686 91.07630986 -48.5670165 85.42527526 -43.33496094 79.49511719 C-42.09250866 78.10360699 -40.81695877 76.74184504 -39.5390625 75.3828125 C-29.93006243 65.15187068 -21.42764814 53.90929158 -13.625 42.25 C-12.89539063 41.16203125 -12.16578125 40.0740625 -11.4140625 38.953125 C-9.77121116 36.1414338 -9.77121116 36.1414338 -10.17578125 33.32421875 C-11.0402629 30.78103179 -11.0402629 30.78103179 -12.5625 27.5625 C-15.17155678 20.81493937 -15.42311503 12.33370593 -12.5859375 5.6875 C-9.37470452 0.2458047 -6.30426876 -0.88480965 0 0 Z M-4 9 C-4.95024979 12.69541586 -4.95024979 15.30458414 -4 19 C-1.90250005 16.64031256 -1.03094296 15.45383006 -0.8125 12.25 C-0.874375 11.5075 -0.93625 10.765 -1 10 C-1.99 9.67 -2.98 9.34 -4 9 Z M158 45 C157.67 45.66 157.34 46.32 157 47 C155.96875 47.12375 154.9375 47.2475 153.875 47.375 C149.32421671 48.1089973 146.85797763 49.55923864 143 52 C143 52.66 143 53.32 143 54 C142.01 54 141.02 54 140 54 C140 54.66 140 55.32 140 56 C139.20335937 56.11021484 139.20335937 56.11021484 138.390625 56.22265625 C135.04528996 57.31043676 132.51094053 59.32716388 129.75 61.4375 C129.19570313 61.84548828 128.64140625 62.25347656 128.0703125 62.67382812 C126.67189091 63.72953309 125.33049348 64.85987587 124 66 C124 66.66 124 67.32 124 68 C123.01 68.33 122.02 68.66 121 69 C120.67 70.65 120.34 72.3 120 74 C119.34 74 118.68 74 118 74 C114.26985509 76.85977776 112.89051904 80.21732463 111.14453125 84.42578125 C109.44902411 88.23922565 107.35507698 91.81044898 105.26953125 95.421875 C101.56126927 102.95249934 101.62232979 113.85159455 104.1875 121.75 C105.67799668 125.06504459 105.67799668 125.06504459 108.25 126.328125 C113.5861675 127.63184774 118.32537441 124.42885246 123 122 C125.84369159 120.18677505 128.39735619 118.13864789 131 116 C131.6703125 115.53464844 132.340625 115.06929687 133.03125 114.58984375 C140.36877091 109.3924331 145.87770011 102.59327219 151.57275391 95.71533203 C152.73072657 94.32362558 153.91437127 92.95330784 155.10546875 91.58984375 C163.71745568 81.36187758 169.62547474 68.01439831 171.4375 54.8125 C170.8187207 50.8346331 169.34519824 47.28641492 167 44 C163.20980534 42.73660178 161.62477616 43.50280985 158 45 Z M-180 57 C-180 57.66 -180 58.32 -180 59 C-179.34 58.67 -178.68 58.34 -178 58 C-178.66 57.67 -179.32 57.34 -180 57 Z M-186 60 C-185.34 60.66 -184.68 61.32 -184 62 C-184 61.34 -184 60.68 -184 60 C-184.66 60 -185.32 60 -186 60 Z M-188 63 C-187 65 -187 65 -187 65 Z M-191 65 C-191 65.66 -191 66.32 -191 67 C-190.01 66.67 -189.02 66.34 -188 66 C-188.99 65.67 -189.98 65.34 -191 65 Z M109 65 C108.67 65.66 108.34 66.32 108 67 C108.99 66.67 109.98 66.34 111 66 C110.34 65.67 109.68 65.34 109 65 Z M106 70 C105.67 70.66 105.34 71.32 105 72 C106.32 71.67 107.64 71.34 109 71 C108.01 70.67 107.02 70.34 106 70 Z M-196 71 C-196.33 71.66 -196.66 72.32 -197 73 C-196.67 73.66 -196.34 74.32 -196 75 C-195.34 75 -194.68 75 -194 75 C-194.33 73.68 -194.66 72.36 -195 71 C-195.33 71 -195.66 71 -196 71 Z M102 71 C101.67 71.99 101.34 72.98 101 74 C101.99 74.99 102.98 75.98 104 77 C104 75.02 104 73.04 104 71 C103.34 71 102.68 71 102 71 Z M100 75 C99.01 76.98 98.02 78.96 97 81 C97.99 81.33 98.98 81.66 100 82 C101.04449911 78.86650268 100.93423645 78.01031744 100 75 Z M-201 76 C-201.6496875 77.36125 -201.6496875 77.36125 -202.3125 78.75 C-203.70517271 81.43218449 -205.11112757 83.66139605 -207 86 C-206.67 86.66 -206.34 87.32 -206 88 C-205.01 87.67 -204.02 87.34 -203 87 C-203 85.68 -203 84.36 -203 83 C-201.68 83 -200.36 83 -199 83 C-199 82.01 -199 81.02 -199 80 C-198.34 80 -197.68 80 -197 80 C-197 78.68 -197 77.36 -197 76 C-198.32 76 -199.64 76 -201 76 Z M96 82 C95.67 83.32 95.34 84.64 95 86 C95.66 85.67 96.32 85.34 97 85 C96.67 84.01 96.34 83.02 96 82 Z M-5 84 C-5 84.99 -5 85.98 -5 87 C-4.34 87 -3.68 87 -3 87 C-3.33 86.01 -3.66 85.02 -4 84 C-4.33 84 -4.66 84 -5 84 Z M94 86 C94.33 87.32 94.66 88.64 95 90 C95.99 89.67 96.98 89.34 98 89 C98.33 89.66 98.66 90.32 99 91 C99 90.01 99 89.02 99 88 C96.525 87.01 96.525 87.01 94 86 Z M-202 87 C-202.33 87.99 -202.66 88.98 -203 90 C-202.01 89.67 -201.02 89.34 -200 89 C-200.66 88.34 -201.32 87.68 -202 87 Z M-8 87 C-7.67 87.66 -7.34 88.32 -7 89 C-6.34 88.34 -5.68 87.68 -5 87 C-5.99 87 -6.98 87 -8 87 Z M-10 90 C-12.2013866 93.80427492 -12.2013866 93.80427492 -13 98 C-12.01 97.67 -11.02 97.34 -10 97 C-10 96.34 -10 95.68 -10 95 C-9.01 94.67 -8.02 94.34 -7 94 C-6.26676204 91.98491642 -6.26676204 91.98491642 -6 90 C-7.32 90 -8.64 90 -10 90 Z M93 91 C94 93 94 93 94 93 Z M-207 94 C-207 94.66 -207 95.32 -207 96 C-207.99 95.67 -208.98 95.34 -210 95 C-210.66 96.32 -211.32 97.64 -212 99 C-210.35 99 -208.7 99 -207 99 C-206.34 97.68 -205.68 96.36 -205 95 C-205.66 94.67 -206.32 94.34 -207 94 Z M-132 96 C-132 96.66 -132 97.32 -132 98 C-131.34 97.67 -130.68 97.34 -130 97 C-130.66 96.67 -131.32 96.34 -132 96 Z M94 96 C94 97.65 94 99.3 94 101 C94.99 99.68 95.98 98.36 97 97 C96.01 96.67 95.02 96.34 94 96 Z M-10 97 C-9 100 -9 100 -9 100 Z M-137 99 C-136.67 99.66 -136.34 100.32 -136 101 C-135.67 100.34 -135.34 99.68 -135 99 C-135.66 99 -136.32 99 -137 99 Z M90 99 C90 100.32 90 101.64 90 103 C90.99 103 91.98 103 93 103 C92.67 101.68 92.34 100.36 92 99 C91.34 99 90.68 99 90 99 Z M-211 102 C-211.79953138 105.28696233 -212.09658936 106.71023192 -211 110 C-210.01 107.69 -209.02 105.38 -208 103 C-208.99 102.67 -209.98 102.34 -211 102 Z M-14 103 C-14.66 103.66 -15.32 104.32 -16 105 C-15.67 105.99 -15.34 106.98 -15 108 C-13.68 106.68 -12.36 105.36 -11 104 C-11.99 103.67 -12.98 103.34 -14 103 Z M93 103 C93 105.31 93 107.62 93 110 C93.99 110.33 94.98 110.66 96 111 C95.74438677 108.6568787 95.40729228 106.32156597 95 104 C94.34 103.67 93.68 103.34 93 103 Z M-230 105 C-230 106.32 -230 107.64 -230 109 C-229.01 108.67 -228.02 108.34 -227 108 C-227.33 107.01 -227.66 106.02 -228 105 C-228.66 105 -229.32 105 -230 105 Z M-136 105 C-136 105.66 -136 106.32 -136 107 C-135.34 107 -134.68 107 -134 107 C-134 106.34 -134 105.68 -134 105 C-134.66 105 -135.32 105 -136 105 Z M-14 107 C-14.33 108.98 -14.66 110.96 -15 113 C-14.34 113 -13.68 113 -13 113 C-13 111.02 -13 109.04 -13 107 C-13.33 107 -13.66 107 -14 107 Z M-138 111 C-138.33 112.32 -138.66 113.64 -139 115 C-138.01 115.495 -138.01 115.495 -137 116 C-137 114.35 -137 112.7 -137 111 C-137.33 111 -137.66 111 -138 111 Z M-27 111 C-26 114 -26 114 -26 114 Z M76 112 C76 112.99 76 113.98 76 115 C76.99 114.67 77.98 114.34 79 114 C78.34 114 77.68 114 77 114 C76.67 113.34 76.34 112.68 76 112 Z M78 117 C78.33 118.32 78.66 119.64 79 121 C79.66 120.67 80.32 120.34 81 120 C80.01 119.01 79.02 118.02 78 117 Z M-150 118 C-149 120 -149 120 -149 120 Z M82 123 C82.33 124.65 82.66 126.3 83 128 C83.66 126.68 84.32 125.36 85 124 C84.01 123.67 83.02 123.34 82 123 Z " fill="#000000" transform="translate(662,558)"/>
<path d="M0 0 C3.21602451 3.46341102 4.26349483 6.12436257 4.4375 10.75 C3.88428211 22.67095332 -1.71195364 33.51920837 -10 42 C-14.38471641 45.33462894 -18.75850859 48.21529383 -24 50 C-26.3125 49.625 -26.3125 49.625 -28 49 C-27.28417189 43.93483653 -25.037205 40.61681423 -22.27734375 36.40234375 C-20.68701993 33.86483779 -20.68701993 33.86483779 -21 30 C-22.58468677 30.45363171 -24.16769924 30.91311452 -25.75 31.375 C-26.63171875 31.63023437 -27.5134375 31.88546875 -28.421875 32.1484375 C-33.02428948 33.50261652 -33.02428948 33.50261652 -36.0703125 36.921875 C-36.37710938 37.60765625 -36.68390625 38.2934375 -37 39 C-37.92594964 40.11113957 -38.88610245 41.19449277 -39.875 42.25 C-42.60773098 45.34842491 -44.40830093 48.43080782 -46.12890625 52.171875 C-47 54 -47 54 -48.625 56.375 C-51.31213949 61.50499357 -52 67.26472829 -52 73 C-52.14779181 74.52278343 -52.31497953 76.04379027 -52.5 77.5625 C-52.80717657 80.09244034 -53 82.44394901 -53 85 C-51.75347656 84.57460938 -50.50695312 84.14921875 -49.22265625 83.7109375 C-27.61244967 76.52018025 -5.45979449 71.62904676 17 68 C17.1546875 67.0409375 17.1546875 67.0409375 17.3125 66.0625 C17.6528125 65.0415625 17.6528125 65.0415625 18 64 C18.99 63.67 19.98 63.34 21 63 C21.268125 62.4225 21.53625 61.845 21.8125 61.25 C23.79163641 57.50005734 27.213578 54.893211 31 53 C31.65213292 50.97536745 31.65213292 50.97536745 32 49 C33.32 49 34.64 49 36 49 C36 48.34 36 47.68 36 47 C36.60328125 46.67386719 37.2065625 46.34773437 37.828125 46.01171875 C38.62734375 45.57472656 39.4265625 45.13773438 40.25 44.6875 C41.03890625 44.25824219 41.8278125 43.82898438 42.640625 43.38671875 C45.0249775 42.04497889 45.0249775 42.04497889 47.16796875 40.37109375 C49.15590973 38.88331702 50.58648046 38.46713282 53 38 C53.99 37.67 54.98 37.34 56 37 C56.66 37.33 57.32 37.66 58 38 C58 37.34 58 36.68 58 36 C64.62615673 32.90133798 69.67372525 31.52733711 77 32 C76.67 32.99 76.34 33.98 76 35 C76.87785156 35.11214844 77.75570312 35.22429688 78.66015625 35.33984375 C87.72684665 37.1319732 94.70311164 42.60434456 100 50 C101.89919892 53.79839783 101.60231936 58.08781747 100.3515625 62.05859375 C97.98221913 67.25292344 94.48607512 71.46417724 90 75 C89.34 75 88.68 75 88 75 C87.60361328 75.87978516 87.60361328 75.87978516 87.19921875 76.77734375 C80.91165787 88.43083606 65.44311695 96.96425789 54.125 103 C53.10998413 103.5422522 53.10998413 103.5422522 52.07446289 104.09545898 C44.63058424 107.91941273 37.33504842 110.24226833 29 111 C28.90801693 120.18921542 28.90801693 120.18921542 31.5 128.8125 C34.33066633 131.28933304 36.46674518 132.13982431 40.23828125 132.2734375 C54.13890469 130.89713815 67.47902728 122.69327674 79.75244141 116.60839844 C82.87448867 115.06216123 86.00450879 113.53333436 89.13671875 112.0078125 C101.09507442 106.14766437 112.7455388 99.87339034 124.296875 93.25 C132.64457316 88.46836475 141.11149662 83.90386018 149.57324219 79.328125 C152.80313276 77.56045853 156.00002511 75.73573338 159.19189453 73.90039062 C161 73 161 73 163 73 C163.33 74.65 163.66 76.3 164 78 C129.07044049 108.42034856 84.19064016 135.86570573 37.390625 140.5078125 C34.06821333 140.85425962 34.06821333 140.85425962 31.40234375 142.04296875 C28.56095213 143.17490525 26.35988004 143.23323149 23.3125 143.1875 C22.35988281 143.18105469 21.40726563 143.17460938 20.42578125 143.16796875 C18 143 18 143 16 142 C16.33 140.02 16.66 138.04 17 136 C16.01 136.33 15.02 136.66 14 137 C11.95703125 136.07421875 11.95703125 136.07421875 9.8125 134.6875 C9.09707031 134.23761719 8.38164063 133.78773438 7.64453125 133.32421875 C7.10183594 132.88722656 6.55914063 132.45023438 6 132 C6 131.34 6 130.68 6 130 C5.34 130 4.68 130 4 130 C4 129.01 4 128.02 4 127 C3.01 126.67 2.02 126.34 1 126 C1.33 125.01 1.66 124.02 2 123 C2.66 123.33 3.32 123.66 4 124 C4 123.34 4 122.68 4 122 C3.34 122 2.68 122 2 122 C1.67 121.01 1.34 120.02 1 119 C0.175 118.319375 -0.65 117.63875 -1.5 116.9375 C-4.44186107 113.48081325 -5.0850439 111.53724795 -5.33203125 107.078125 C-4.26411158 97.1778815 0.86798477 87.37605383 6 79 C-2.5411908 80.48608156 -10.81502371 82.81957679 -19.125 85.25 C-20.15181381 85.54813599 -20.15181381 85.54813599 -21.19937134 85.85229492 C-30.34443535 88.51324178 -39.35185484 91.3633679 -48.19921875 94.90625 C-50.47315232 95.79425753 -52.61906738 96.49021394 -55 97 C-55.18175781 97.72703125 -55.36351562 98.4540625 -55.55078125 99.203125 C-56.08049953 101.3219981 -56.61187143 103.4404582 -57.14453125 105.55859375 C-57.69596281 107.77690977 -58.23592048 109.99812509 -58.76171875 112.22265625 C-60.08991091 117.7813864 -61.56725678 122.83042066 -64 128 C-64.50089947 129.24963983 -65.00089651 130.49964177 -65.5 131.75 C-66.85021602 134.67546805 -67.76820371 135.86523833 -70 138 C-71.19027984 140.59915538 -71.19027984 140.59915538 -72 143 C-72.66 143 -73.32 143 -74 143 C-74.21785156 143.54011719 -74.43570313 144.08023438 -74.66015625 144.63671875 C-76.46228519 147.81540099 -78.86931833 150.25239056 -81.4375 152.8125 C-82.23450317 153.60708618 -82.23450317 153.60708618 -83.04760742 154.41772461 C-87.88836424 159.11216132 -93.06662781 162.77902652 -99 166 C-99.64710938 166.35835937 -100.29421875 166.71671875 -100.9609375 167.0859375 C-105.47908337 169.31434429 -109.08449016 169.54616776 -114 169 C-117.65804024 167.20548969 -119.56111892 165.60877052 -121.9375 162.3125 C-124.67749303 153.7701688 -120.90935333 145.63929189 -117 138 C-111.27018368 128.06583795 -101.55239279 114.27619639 -91 109 C-88.02763085 100.64021178 -87.0463645 91.68392937 -86.5 82.875 C-85.99704466 74.8806573 -84.67513398 67.55331949 -82 60 C-81.51880337 58.31307773 -81.03982026 56.6255232 -80.5625 54.9375 C-79.47048995 51.22689442 -78.0836482 48.27430432 -76 45 C-76 44.01 -76 43.02 -76 42 C-72.166911 32.87284956 -67.13926401 25.87787314 -59.92578125 19.1484375 C-57.94091354 16.93408205 -57.59549144 15.81505043 -57 13 C-54.5 11.375 -54.5 11.375 -52 10 C-51.67 9.34 -51.34 8.68 -51 8 C-50.34 8 -49.68 8 -49 8 C-49 7.34 -49 6.68 -49 6 C-34.62692635 -1.52516945 -14.96672401 -11.53684976 0 0 Z M-63 63 C-62 65 -62 65 -62 65 Z M74.1875 66.4375 C70.80857884 67.49564929 67.48273794 68.35597485 64 69 C64 69.66 64 70.32 64 71 C63.2575 71.12375 62.515 71.2475 61.75 71.375 C59.1266089 71.97122525 57.22235432 72.49197386 55 74 C54.19471111 76.05000871 54.19471111 76.05000871 54 78 C51.69 78.33 49.38 78.66 47 79 C47 79.99 47 80.98 47 82 C46.278125 82.185625 45.55625 82.37125 44.8125 82.5625 C41.39502361 84.30921015 40.14021066 86.26566344 38.11328125 89.44140625 C37 91 37 91 35 92 C34.09656316 93.88263881 34.09656316 93.88263881 33.375 96.0625 C33.11460937 96.79597656 32.85421875 97.52945313 32.5859375 98.28515625 C32.39257812 98.85105469 32.19921875 99.41695312 32 100 C37.87320516 99.51632428 42.05947965 97.77305564 47.1875 94.9375 C47.9307251 94.53337891 48.6739502 94.12925781 49.43969727 93.71289062 C61.37604208 87.13122794 74.14518919 79.46728277 82 68 C81.505 66.515 81.505 66.515 81 65 C78.5054224 65 76.56900348 65.69127177 74.1875 66.4375 Z M-66 68 C-65 70 -65 70 -65 70 Z M-67 74 C-67.33 74.66 -67.66 75.32 -68 76 C-67.34 76 -66.68 76 -66 76 C-66.33 75.34 -66.66 74.68 -67 74 Z M-65 78 C-65 81 -65 81 -65 81 Z M-68 79 C-67 81 -67 81 -67 81 Z M28 79 C27.67 79.66 27.34 80.32 27 81 C27.99 81 28.98 81 30 81 C30 80.34 30 79.68 30 79 C29.34 79 28.68 79 28 79 Z M-69 83 C-68.67 83.66 -68.34 84.32 -68 85 C-67.01 84.34 -66.02 83.68 -65 83 C-66.32 83 -67.64 83 -69 83 Z M24 83 C24 83.99 24 84.98 24 86 C25.32 86 26.64 86 28 86 C27.67 85.34 27.34 84.68 27 84 C26.01 83.67 25.02 83.34 24 83 Z M-69 86 C-69.33 87.98 -69.66 89.96 -70 92 C-68.68 91.67 -67.36 91.34 -66 91 C-66.66 89.35 -67.32 87.7 -68 86 C-68.33 86 -68.66 86 -69 86 Z M24 88 C22.35 88.66 20.7 89.32 19 90 C19.33 91.65 19.66 93.3 20 95 C20.66 95 21.32 95 22 95 C22.12375 94.360625 22.2475 93.72125 22.375 93.0625 C22.58125 92.381875 22.7875 91.70125 23 91 C23.66 90.67 24.32 90.34 25 90 C24.67 89.34 24.34 88.68 24 88 Z M18 94 C17.34 95.98 16.68 97.96 16 100 C16.99 100 17.98 100 19 100 C19 98.02 19 96.04 19 94 C18.67 94 18.34 94 18 94 Z M8 98 C8 98.66 8 99.32 8 100 C8.66 100 9.32 100 10 100 C10 99.34 10 98.68 10 98 C9.34 98 8.68 98 8 98 Z M21 99 C20.67 99.99 20.34 100.98 20 102 C20.66 102 21.32 102 22 102 C21.67 101.01 21.34 100.02 21 99 Z M15 109 C15 110.32 15 111.64 15 113 C15.66 113 16.32 113 17 113 C17 111.68 17 110.36 17 109 C16.34 109 15.68 109 15 109 Z M-72 110 C-72.33 111.65 -72.66 113.3 -73 115 C-72.01 114.34 -71.02 113.68 -70 113 C-70.66 112.01 -71.32 111.02 -72 110 Z M-69 110 C-68 112 -68 112 -68 112 Z M18 113 C18 114.65 18 116.3 18 118 C18.99 118 19.98 118 21 118 C20.65213292 116.02463255 20.65213292 116.02463255 20 114 C19.34 113.67 18.68 113.34 18 113 Z M-70 115 C-70.33 117.31 -70.66 119.62 -71 122 C-70.34 122 -69.68 122 -69 122 C-68.67 119.69 -68.34 117.38 -68 115 C-68.66 115 -69.32 115 -70 115 Z M-90 120 C-101.77933684 129.99312593 -111.55299253 139.94169824 -113.1171875 155.8359375 C-113.1678673 158.29950491 -113.1678673 158.29950491 -111 161 C-105.13623214 160.97340695 -100.86643267 160.22483121 -96.5703125 156.05859375 C-91.21736193 149.0411685 -89.21135037 140.68457902 -89 132 C-88.01 131.67 -87.02 131.34 -86 131 C-86 130.34 -86 129.68 -86 129 C-86.99 129 -87.98 129 -89 129 C-89 128.01 -89 127.02 -89 126 C-88.01 126 -87.02 126 -86 126 C-86 125.01 -86 124.02 -86 123 C-86.99 123 -87.98 123 -89 123 C-89.33 122.01 -89.66 121.02 -90 120 Z M-87 120 C-86 122 -86 122 -86 122 Z M-74 125 C-73 127 -73 127 -73 127 Z M5 126 C5.33 126.99 5.66 127.98 6 129 C6.66 129 7.32 129 8 129 C8 128.01 8 127.02 8 126 C7.01 126 6.02 126 5 126 Z M10 131 C10.33 131.99 10.66 132.98 11 134 C11.99 133.67 12.98 133.34 14 133 C12.68 132.34 11.36 131.68 10 131 Z " fill="#000000" transform="translate(942,558)"/>
<path d="M0 0 C4.03270854 3.94105607 6.98394129 8.35983734 8 14 C7.94140625 16.99609375 7.94140625 16.99609375 7 20 C4.41015625 22.16015625 4.41015625 22.16015625 1.0625 24.0625 C0.473479 24.39902588 -0.11554199 24.73555176 -0.72241211 25.08227539 C-2.47181941 26.07234933 -4.23575965 27.03660583 -6 28 C-7.31871094 28.78503906 -7.31871094 28.78503906 -8.6640625 29.5859375 C-14.23466196 32.72507009 -18.96013892 33.54955157 -25.32421875 33.81640625 C-28.12289381 33.88308441 -28.12289381 33.88308441 -31.0625 35.125 C-40.06660615 37.80707417 -48.9652988 33.98015291 -57 30 C-57.99 29.34 -58.98 28.68 -60 28 C-58.95846904 24.81249584 -58.00322789 24.00188115 -55.05078125 22.28125 C-53.80762981 21.68136402 -52.56130576 21.08802456 -51.3125 20.5 C-45.37309411 17.53858326 -40.28856032 14.11519093 -35.1875 9.875 C-24.62070597 1.09531775 -13.86304843 -7.70169357 0 0 Z " fill="#000000" transform="translate(1059,534)"/>
<path d="M0 0 C0.66 0 1.32 0 2 0 C1.67 0.99 1.34 1.98 1 3 C0.67 2.01 0.34 1.02 0 0 Z " fill="#000000" transform="translate(294,691)"/>
<path d="M0 0 C0.99 0.495 0.99 0.495 2 1 C1.01 1.495 1.01 1.495 0 2 C0 1.34 0 0.68 0 0 Z " fill="#000000" transform="translate(277,711)"/>
<path d="" fill="#000000" transform="translate(0,0)"/>
<path d="" fill="#000000" transform="translate(0,0)"/>
<path d="" fill="#000000" transform="translate(0,0)"/>
<path d="" fill="#000000" transform="translate(0,0)"/>
</svg>
