<svg width="195" height="170" viewBox="0 0 195 170" fill="none" xmlns="http://www.w3.org/2000/svg">
<g id="Group 19">
<g id="Clip path group">
<mask id="mask0_1222_3742" style="mask-type:luminance" maskUnits="userSpaceOnUse" x="41" y="0" width="154" height="154">
<g id="7905710b85">
<path id="Vector" d="M41.7979 0.5H194.519V153.081H41.7979V0.5Z" fill="white"/>
</g>
</mask>
<g mask="url(#mask0_1222_3742)">
<g id="Group">
<path id="Vector_2" d="M194.503 76.7468C194.503 77.9943 194.473 79.2418 194.412 80.4877C194.35 81.7344 194.259 82.9785 194.137 84.2202C194.014 85.4619 193.861 86.7002 193.678 87.9343C193.495 89.1685 193.281 90.3976 193.038 91.6217C192.795 92.8457 192.522 94.0623 192.218 95.273C191.915 96.4837 191.582 97.6861 191.22 98.88C190.858 100.074 190.467 101.259 190.046 102.433C189.626 103.608 189.177 104.772 188.699 105.925C188.222 107.078 187.716 108.218 187.183 109.346C186.649 110.474 186.088 111.589 185.5 112.689C184.911 113.789 184.297 114.875 183.655 115.945C183.014 117.016 182.346 118.07 181.653 119.107C180.959 120.145 180.242 121.165 179.498 122.167C178.755 123.169 177.987 124.153 177.195 125.117C176.404 126.082 175.589 127.027 174.751 127.951C173.913 128.876 173.053 129.779 172.17 130.661C171.288 131.544 170.384 132.404 169.46 133.242C168.535 134.08 167.591 134.895 166.626 135.686C165.661 136.478 164.677 137.245 163.675 137.988C162.673 138.732 161.653 139.45 160.615 140.144C159.578 140.836 158.524 141.504 157.453 142.146C156.383 142.788 155.298 143.402 154.197 143.99C153.096 144.578 151.982 145.14 150.854 145.672C149.726 146.206 148.586 146.712 147.433 147.189C146.28 147.667 145.116 148.116 143.94 148.537C142.766 148.957 141.581 149.348 140.387 149.71C139.193 150.073 137.991 150.405 136.78 150.709C135.569 151.011 134.353 151.285 133.129 151.529C131.905 151.772 130.675 151.985 129.441 152.168C128.206 152.351 126.969 152.504 125.726 152.626C124.485 152.748 123.241 152.84 121.994 152.902C120.748 152.963 119.5 152.994 118.253 152.994C117.005 152.994 115.758 152.963 114.511 152.902C113.265 152.84 112.02 152.748 110.779 152.626C109.537 152.504 108.299 152.351 107.065 152.168C105.83 151.985 104.601 151.772 103.377 151.529C102.153 151.285 100.936 151.011 99.7251 150.709C98.5152 150.405 97.3128 150.073 96.118 149.71C94.9241 149.348 93.7393 148.957 92.5646 148.537C91.3898 148.116 90.226 147.667 89.073 147.189C87.9201 146.712 86.7796 146.206 85.6509 145.672C84.523 145.14 83.4086 144.578 82.3083 143.99C81.208 143.402 80.122 142.788 79.0519 142.146C77.9817 141.504 76.9275 140.836 75.89 140.144C74.8525 139.45 73.8325 138.732 72.8302 137.988C71.8278 137.245 70.8447 136.478 69.88 135.686C68.9152 134.895 67.9706 134.08 67.0461 133.242C66.1215 132.404 65.2179 131.544 64.3351 130.661C63.4533 129.779 62.5923 128.876 61.7548 127.951C60.9164 127.027 60.1014 126.082 59.3099 125.117C58.5184 124.153 57.7512 123.169 57.0073 122.167C56.2643 121.165 55.5456 120.145 54.8528 119.107C54.1592 118.07 53.4915 117.016 52.8506 115.945C52.2089 114.875 51.5939 113.789 51.0057 112.689C50.4175 111.589 49.8561 110.474 49.3231 109.346C48.7893 108.218 48.2839 107.078 47.8061 105.925C47.3284 104.772 46.8799 103.608 46.4591 102.433C46.039 101.259 45.6475 100.074 45.2852 98.88C44.9229 97.6861 44.5907 96.4837 44.287 95.273C43.9841 94.0623 43.7105 92.8457 43.467 91.6217C43.2235 90.3976 43.0102 89.1685 42.8269 87.9343C42.6445 86.7002 42.4914 85.4619 42.3693 84.2202C42.2471 82.9785 42.1551 81.7344 42.094 80.4877C42.0329 79.2418 42.002 77.9943 42.002 76.7468C42.002 75.4985 42.0329 74.2518 42.094 73.0051C42.1551 71.7592 42.2471 70.5151 42.3693 69.2734C42.4914 68.0317 42.6445 66.7934 42.8269 65.5593C43.0102 64.3243 43.2235 63.0952 43.467 61.872C43.7105 60.6479 43.9841 59.4305 44.287 58.2206C44.5907 57.0099 44.9229 55.8075 45.2852 54.6136C45.6475 53.4196 46.039 52.2348 46.4591 51.0601C46.8799 49.8854 47.3284 48.7215 47.8061 47.5686C48.2839 46.4156 48.7893 45.2752 49.3231 44.1473C49.8561 43.0186 50.4175 41.9049 51.0057 40.8038C51.5939 39.7036 52.2089 38.6184 52.8506 37.5482C53.4915 36.4781 54.1592 35.4239 54.8528 34.3864C55.5456 33.3488 56.2643 32.3289 57.0073 31.3265C57.7512 30.3242 58.5184 29.3411 59.3099 28.3763C60.1014 27.4116 60.9164 26.467 61.7548 25.5424C62.5923 24.6179 63.4533 23.7142 64.3351 22.8324C65.2179 21.9496 66.1215 21.0895 67.0461 20.252C67.9706 19.4136 68.9152 18.5987 69.88 17.8071C70.8447 17.0156 71.8278 16.2484 72.8302 15.5045C73.8325 14.7616 74.8525 14.0428 75.89 13.35C76.9275 12.6564 77.9817 11.9896 79.0519 11.3478C80.122 10.7061 81.208 10.0911 82.3083 9.50289C83.4086 8.91469 84.523 8.3541 85.6509 7.82029C86.7796 7.28731 87.9201 6.78111 89.073 6.30419C90.226 5.82643 91.3898 5.37712 92.5646 4.9571C93.7393 4.53624 94.9241 4.1455 96.118 3.78321C97.3128 3.42092 98.5152 3.08791 99.7251 2.78503C100.936 2.48214 102.153 2.20854 103.377 1.96506C104.601 1.72158 105.83 1.50822 107.065 1.32499C108.299 1.14175 109.537 0.989469 110.779 0.867311C112.02 0.745153 113.265 0.653116 114.511 0.592037C115.758 0.530958 117.005 0.5 118.253 0.5C119.5 0.5 120.748 0.530958 121.994 0.592037C123.241 0.653116 124.485 0.745153 125.726 0.867311C126.969 0.989469 128.206 1.14175 129.441 1.32499C130.675 1.50822 131.905 1.72158 133.129 1.96506C134.353 2.20854 135.569 2.48214 136.78 2.78503C137.991 3.08791 139.193 3.42092 140.387 3.78321C141.581 4.1455 142.766 4.53624 143.94 4.9571C145.116 5.37712 146.28 5.82643 147.433 6.30419C148.586 6.78111 149.726 7.28731 150.854 7.82029C151.982 8.3541 153.096 8.91469 154.197 9.50289C155.298 10.0911 156.383 10.7061 157.453 11.3478C158.524 11.9896 159.578 12.6564 160.615 13.35C161.653 14.0428 162.673 14.7616 163.675 15.5045C164.677 16.2484 165.661 17.0156 166.626 17.8071C167.591 18.5987 168.535 19.4136 169.46 20.252C170.384 21.0895 171.288 21.9496 172.17 22.8324C173.053 23.7142 173.913 24.6179 174.751 25.5424C175.589 26.467 176.404 27.4116 177.195 28.3763C177.987 29.3411 178.755 30.3242 179.498 31.3265C180.242 32.3289 180.959 33.3488 181.653 34.3864C182.346 35.4239 183.014 36.4781 183.655 37.5482C184.297 38.6184 184.911 39.7036 185.5 40.8038C186.088 41.9049 186.649 43.0186 187.183 44.1473C187.716 45.2752 188.222 46.4156 188.699 47.5686C189.177 48.7215 189.626 49.8854 190.046 51.0601C190.467 52.2348 190.858 53.4196 191.22 54.6136C191.582 55.8075 191.915 57.0099 192.218 58.2206C192.522 59.4305 192.795 60.6479 193.038 61.872C193.281 63.0952 193.495 64.3243 193.678 65.5593C193.861 66.7934 194.014 68.0317 194.137 69.2734C194.259 70.5151 194.35 71.7592 194.412 73.0051C194.473 74.2518 194.503 75.4985 194.503 76.7468Z" fill="#FBCD2F"/>
</g>
</g>
</g>
<path id="Vector_3" d="M177.405 76.593C177.405 109.206 150.945 135.657 118.32 135.657C100.381 135.657 84.2821 127.653 73.4492 114.984C71.6515 112.887 70.0239 110.704 68.568 108.393C66.0424 104.456 63.9868 100.218 62.4454 95.7246C60.3906 89.732 59.2773 83.2697 59.2773 76.593C59.2773 43.9797 85.7371 17.5291 118.363 17.5291C125.042 17.5291 131.507 18.642 137.501 20.6962C141.997 22.237 146.236 24.2912 150.175 26.8169C152.487 28.315 154.671 29.9413 156.768 31.6956C169.399 42.5243 177.405 58.617 177.405 76.593Z" fill="#FFB102"/>
<path id="Vector_4" d="M149.95 27.1296L68.46 108.619C69.9564 110.928 71.5817 113.109 73.3341 115.204L156.534 32.0459C154.44 30.2507 152.259 28.6262 149.95 27.1296Z" fill="#FFBC19"/>
<path id="Vector_5" d="M118.236 17.5291C85.6803 17.5291 59.2773 44.0738 59.2773 76.803C59.2773 83.5035 60.3882 89.9888 62.4386 96.0027L137.334 20.7074C131.352 18.6459 124.901 17.5291 118.236 17.5291Z" fill="#FFBC19"/>
<path id="Vector_6" d="M157.998 30.1891C155.862 28.3508 153.555 26.6414 151.162 25.1025C147.017 22.4522 142.616 20.3145 138.001 18.733C131.634 16.5535 124.926 15.442 118.132 15.442C84.2901 15.442 56.7725 42.9691 56.7725 76.823C56.7725 83.6191 57.8835 90.3298 60.0629 96.6993C61.6438 101.315 63.7798 105.761 66.4291 109.864C67.9673 112.258 69.6769 114.566 71.5144 116.704C83.1791 130.339 100.186 138.161 118.132 138.161C151.973 138.161 179.492 110.633 179.492 76.7804C179.448 58.8703 171.629 41.8576 157.998 30.1891ZM118.132 134.314C101.339 134.314 85.4012 126.962 74.4622 114.181C72.7107 112.172 71.1299 109.993 69.6769 107.77C67.1982 103.88 65.1901 99.7335 63.7372 95.4164C61.6865 89.4324 60.6607 83.149 60.6607 76.7804C60.6607 45.0641 86.427 19.2891 118.132 19.2891C124.498 19.2891 130.78 20.3145 136.762 22.3669C141.078 23.8622 145.223 25.8284 149.111 28.3082C151.376 29.7609 153.512 31.3432 155.52 33.0953C168.296 44.0379 175.645 59.9818 175.645 76.7804C175.603 108.497 149.837 134.314 118.132 134.314Z" fill="#E99302"/>
<g id="Clip path group_2">
<mask id="mask1_1222_3742" style="mask-type:luminance" maskUnits="userSpaceOnUse" x="0" y="16" width="154" height="154">
<g id="ed6fa757e0">
<path id="Vector_7" d="M0.480469 16.8533H153.179V169.5H0.480469V16.8533Z" fill="white"/>
</g>
</mask>
<g mask="url(#mask1_1222_3742)">
<g id="Group_2">
<path id="Vector_8" d="M153.021 93.2532C153.021 94.5007 152.99 95.7482 152.928 96.994C152.867 98.2407 152.775 99.4849 152.653 100.727C152.531 101.968 152.378 103.207 152.195 104.441C152.012 105.675 151.799 106.904 151.555 108.128C151.312 109.352 151.038 110.569 150.735 111.779C150.432 112.99 150.1 114.192 149.737 115.386C149.375 116.58 148.983 117.765 148.563 118.94C148.143 120.115 147.693 121.278 147.216 122.431C146.739 123.584 146.233 124.725 145.699 125.853C145.166 126.981 144.605 128.095 144.017 129.195C143.429 130.296 142.814 131.382 142.172 132.452C141.53 133.522 140.863 134.576 140.17 135.614C139.477 136.651 138.758 137.671 138.015 138.673C137.271 139.676 136.504 140.659 135.713 141.624C134.92 142.588 134.106 143.533 133.268 144.458C132.429 145.382 131.569 146.286 130.687 147.168C129.805 148.05 128.901 148.91 127.976 149.748C127.052 150.586 126.107 151.401 125.143 152.193C124.178 152.984 123.195 153.752 122.192 154.495C121.19 155.238 120.17 155.957 119.132 156.65C118.095 157.344 117.041 158.01 115.971 158.652C114.9 159.294 113.814 159.909 112.714 160.497C111.613 161.085 110.499 161.646 109.371 162.18C108.243 162.713 107.102 163.218 105.949 163.696C104.796 164.174 103.633 164.623 102.458 165.043C101.282 165.463 100.098 165.854 98.9036 166.217C97.7096 166.579 96.5073 166.912 95.2974 167.215C94.0867 167.518 92.8693 167.791 91.6452 168.035C90.4211 168.278 89.192 168.492 87.9579 168.675C86.7238 168.857 85.4854 169.01 84.2438 169.133C83.0013 169.255 81.7571 169.347 80.5113 169.408C79.2646 169.469 78.0179 169.5 76.7695 169.5C75.522 169.5 74.2745 169.469 73.0278 169.408C71.782 169.347 70.5378 169.255 69.2961 169.133C68.0536 169.01 66.8153 168.857 65.5812 168.675C64.3471 168.492 63.1179 168.278 61.8938 168.035C60.6698 167.791 59.4524 167.518 58.2425 167.215C57.0318 166.912 55.8294 166.579 54.6355 166.217C53.4407 165.854 52.2567 165.463 51.0812 165.043C49.9064 164.622 48.7426 164.174 47.5896 163.696C46.4367 163.218 45.2962 162.713 44.1684 162.18C43.0405 161.646 41.926 161.085 40.8249 160.497C39.7246 159.909 38.6394 159.294 37.5693 158.652C36.4983 158.01 35.4449 157.344 34.4066 156.65C33.3691 155.956 32.3491 155.238 31.3468 154.495C30.3444 153.752 29.3613 152.984 28.3966 152.193C27.4318 151.401 26.4872 150.586 25.5627 149.748C24.6381 148.91 23.7345 148.05 22.8526 147.168C21.9699 146.286 21.1097 145.382 20.2714 144.458C19.4338 143.533 18.6189 142.588 17.8274 141.624C17.035 140.659 16.2678 139.676 15.5248 138.673C14.7809 137.671 14.0631 136.651 13.3694 135.614C12.6758 134.576 12.009 133.522 11.3672 132.452C10.7255 131.382 10.1105 130.296 9.52228 129.195C8.93408 128.095 8.37349 126.981 7.83968 125.853C7.30587 124.725 6.8005 123.584 6.32274 122.431C5.84582 121.278 5.39652 120.115 4.97649 118.94C4.55563 117.765 4.16406 116.58 3.8026 115.386C3.44031 114.192 3.1073 112.99 2.80442 111.779C2.5007 110.569 2.2271 109.352 1.98362 108.128C1.74097 106.904 1.52761 105.675 1.34438 104.441C1.16114 103.207 1.00802 101.968 0.885866 100.727C0.763708 99.4849 0.671671 98.2407 0.610592 96.994C0.549513 95.7482 0.518555 94.5007 0.518555 93.2532C0.518555 92.0056 0.549513 90.7581 0.610592 89.5123C0.671671 88.2656 0.763708 87.0214 0.885866 85.7797C1.00802 84.5381 1.16114 83.2998 1.34438 82.0656C1.52761 80.8315 1.74097 79.6024 1.98362 78.3783C2.2271 77.1542 2.5007 75.9368 2.80442 74.7269C3.1073 73.5162 3.44031 72.3139 3.8026 71.1199C4.16406 69.926 4.55563 68.7412 4.97649 67.5665C5.39652 66.3917 5.84582 65.2279 6.32274 64.0749C6.8005 62.9219 7.30587 61.7815 7.83968 60.6536C8.37349 59.5258 8.93408 58.4113 9.52228 57.311C10.1105 56.2099 10.7255 55.1247 11.3672 54.0546C12.009 52.9845 12.6758 51.9302 13.3694 50.8927C14.0631 49.8552 14.7809 48.8353 15.5248 47.8329C16.2678 46.8305 17.035 45.8474 17.8274 44.8827C18.6189 43.918 19.4338 42.9733 20.2714 42.0488C21.1097 41.1242 21.9699 40.2206 22.8526 39.3387C23.7345 38.456 24.6381 37.5959 25.5627 36.7583C26.4872 35.92 27.4318 35.105 28.3966 34.3135C29.3613 33.522 30.3444 32.7547 31.3468 32.0109C32.3491 31.2679 33.3691 30.55 34.4066 29.8564C35.4449 29.1628 36.4983 28.4959 37.5693 27.8542C38.6394 27.2124 39.7246 26.5974 40.8249 26.0092C41.926 25.421 43.0405 24.8605 44.1684 24.3266C45.2962 23.7937 46.4367 23.2883 47.5896 22.8105C48.7426 22.3328 49.9064 21.8843 51.0812 21.4634C52.2567 21.0434 53.4407 20.6518 54.6355 20.2896C55.8294 19.9273 57.0318 19.5943 58.2425 19.2914C59.4524 18.9885 60.6698 18.7149 61.8938 18.4714C63.1179 18.2279 64.3471 18.0146 65.5812 17.8313C66.8153 17.6489 68.0536 17.4958 69.2961 17.3737C70.5378 17.2515 71.782 17.1595 73.0278 17.0984C74.2745 17.0373 75.522 17.0063 76.7695 17.0063C78.0179 17.0063 79.2646 17.0373 80.5113 17.0984C81.7571 17.1595 83.0013 17.2515 84.2438 17.3737C85.4854 17.4958 86.7238 17.6489 87.9579 17.8313C89.192 18.0146 90.4211 18.2279 91.6452 18.4714C92.8693 18.7149 94.0867 18.9885 95.2966 19.2914C96.5073 19.5943 97.7096 19.9273 98.9036 20.2896C100.098 20.6518 101.282 21.0434 102.458 21.4634C103.633 21.8843 104.796 22.3328 105.949 22.8105C107.102 23.2883 108.243 23.7937 109.371 24.3266C110.499 24.8605 111.613 25.421 112.714 26.0092C113.814 26.5974 114.9 27.2124 115.971 27.8542C117.041 28.4959 118.095 29.1628 119.132 29.8564C120.17 30.55 121.19 31.2679 122.192 32.0109C123.195 32.7547 124.178 33.522 125.143 34.3135C126.107 35.105 127.052 35.92 127.976 36.7583C128.901 37.5959 129.805 38.456 130.687 39.3387C131.569 40.2206 132.429 41.1242 133.268 42.0488C134.106 42.9733 134.92 43.918 135.713 44.8827C136.504 45.8474 137.271 46.8305 138.015 47.8329C138.758 48.8353 139.477 49.8552 140.17 50.8927C140.863 51.9302 141.53 52.9845 142.172 54.0546C142.814 55.1247 143.429 56.2099 144.017 57.311C144.605 58.4113 145.166 59.5258 145.699 60.6536C146.233 61.7815 146.739 62.9219 147.216 64.0749C147.693 65.2279 148.143 66.3917 148.563 67.5665C148.983 68.7412 149.375 69.926 149.737 71.1199C150.1 72.3139 150.432 73.5162 150.735 74.7269C151.038 75.9368 151.312 77.1542 151.555 78.3783C151.799 79.6024 152.012 80.8315 152.195 82.0656C152.378 83.2998 152.531 84.5381 152.653 85.7797C152.775 87.0214 152.867 88.2656 152.928 89.5123C152.99 90.7581 153.021 92.0056 153.021 93.2532Z" fill="#FBCD2F"/>
</g>
</g>
</g>
<path id="Vector_9" d="M135.664 93.2896C135.664 125.903 109.296 152.354 76.7866 152.354C58.9103 152.354 42.8687 144.349 32.0749 131.681C30.2828 129.584 28.6617 127.401 27.211 125.09C24.6935 121.152 22.6459 116.915 21.11 112.421C19.0616 106.43 17.9531 99.9664 17.9531 93.2896C17.9531 60.6764 44.3194 34.2257 76.8292 34.2257C83.4852 34.2257 89.9268 35.3386 95.9 37.3928C100.38 38.9337 104.604 40.9879 108.528 43.5135C110.832 45.0116 113.008 46.6379 115.099 48.3923C127.685 59.221 135.664 75.3136 135.664 93.2896Z" fill="#FFB102"/>
<path id="Vector_10" d="M108.625 43.4087L27.1357 124.898C28.6322 127.207 30.2567 129.388 32.0099 131.483L115.21 48.325C113.114 46.5298 110.934 44.9052 108.625 43.4087Z" fill="#FFBC19"/>
<path id="Vector_11" d="M76.9118 34.2257C44.3564 34.2257 17.9531 60.6292 17.9531 93.1844C17.9531 99.8492 19.0632 106.301 21.1145 112.282L96.0093 37.3872C90.0277 35.3367 83.5771 34.2257 76.9118 34.2257Z" fill="#FFBC19"/>
<path id="Vector_12" d="M116.675 46.4683C114.538 44.63 112.231 42.9205 109.838 41.3817C105.693 38.7313 101.292 36.5945 96.6771 35.0122C90.3101 32.8327 83.6021 31.7212 76.8079 31.7212C42.9659 31.7212 15.4482 59.2483 15.4482 93.1022C15.4482 99.8982 16.5593 106.61 18.7387 112.978C20.3196 117.595 22.4564 122.04 25.1057 126.144C26.6439 128.538 28.3527 130.846 30.1902 132.983C41.8549 146.618 58.8616 154.441 76.8079 154.441C110.65 154.441 138.168 126.913 138.168 93.0595C138.125 75.1495 130.305 58.1376 116.675 46.4683ZM76.8079 150.593C60.0152 150.593 44.077 143.241 33.1388 130.461C31.3865 128.451 29.8057 126.272 28.3527 124.049C25.8748 120.159 23.8659 116.014 22.4138 111.696C20.3622 105.712 19.3365 99.4282 19.3365 93.0595C19.3365 61.3433 45.1027 35.5683 76.8079 35.5683C83.1749 35.5683 89.4557 36.5945 95.4381 38.646C99.7535 40.1422 103.898 42.1084 107.787 44.5873C110.051 46.0409 112.188 47.6224 114.196 49.3745C126.973 60.3171 134.322 76.261 134.322 93.0595C134.279 124.776 108.513 150.593 76.8079 150.593Z" fill="#E99302"/>
<path id="Vector_13" d="M81.6838 87.2229C80.8686 86.9245 80.0534 86.5826 79.281 86.2833V63.7253C79.4951 63.7253 79.71 63.7253 79.925 63.7253C87.0906 63.7253 92.6694 66.2891 95.6733 68.1691L99.1919 58.001C94.9009 55.4799 88.0351 53.258 80.2247 53.258C79.925 53.258 79.5816 53.258 79.281 53.258V44.2435H74.0028V53.7713C61.1727 55.9923 53.6201 65.0503 53.6201 75.7734C53.6201 84.9592 60.1426 92.6062 74.0028 97.477V123.025C73.7887 123.025 73.5737 123.025 73.3588 123.025C66.3645 123.025 59.0268 120.163 54.8643 117.471L51.3457 128.109C56.7524 131.271 64.562 133.321 73.0163 133.321C73.316 133.321 73.6594 133.321 73.9599 133.321V142.336H79.2382V132.937C93.6995 131.014 101.852 122.213 101.852 110.337C101.895 98.929 95.0722 92.3069 81.6838 87.2229ZM74.0028 83.8909C69.24 81.3698 67.0084 78.6355 67.0084 74.1927C67.0084 70.0482 69.4541 66.3744 74.0028 64.7084V83.8909ZM79.281 122.384V99.6981C85.7607 102.817 88.3356 106.235 88.3356 111.618C88.3784 116.617 85.4602 120.803 79.281 122.384Z" fill="#E99302"/>
<g id="Clip path group_3">
<mask id="mask2_1222_3742" style="mask-type:luminance" maskUnits="userSpaceOnUse" x="40" y="54" width="115" height="79">
<g id="e9f288dcfd">
<path id="Vector_14" d="M40.4229 54.9282H154.465V132.038H40.4229V54.9282Z" fill="white"/>
</g>
</mask>
<g mask="url(#mask2_1222_3742)">
<g id="Group_3">
<path id="Vector_15" d="M69.1181 132.023L40.4854 104.152L56.688 88.9602L68.3148 104.738C68.3148 104.738 105.697 65.4924 154.41 54.9282C98.8569 82.7217 69.1181 132.023 69.1181 132.023Z" fill="#00D300"/>
</g>
</g>
</g>
</g>
</svg>
