<svg width="36" height="35" viewBox="0 0 36 35" fill="none" xmlns="http://www.w3.org/2000/svg">
<g id="phone-call">
<path id="Vector" d="M22.5397 7.29168C23.9641 7.56958 25.2732 8.26622 26.2994 9.29242C27.3256 10.3186 28.0222 11.6277 28.3001 13.0521M22.5397 1.45834C25.4991 1.7871 28.2587 3.11235 30.3655 5.21648C32.4723 7.32061 33.801 10.0786 34.1335 13.0375M32.6751 24.675V29.05C32.6768 29.4562 32.5936 29.8582 32.4309 30.2303C32.2682 30.6024 32.0295 30.9365 31.7302 31.2111C31.431 31.4856 31.0776 31.6947 30.6929 31.8248C30.3081 31.9549 29.9005 32.0032 29.496 31.9667C25.0084 31.4791 20.6978 29.9456 16.9106 27.4896C13.387 25.2506 10.3996 22.2632 8.16055 18.7396C5.69594 14.9351 4.16216 10.6035 3.68347 6.09584C3.64702 5.69257 3.69495 5.28612 3.8242 4.90238C3.95344 4.51864 4.16118 4.16602 4.43417 3.86696C4.70716 3.5679 5.03943 3.32896 5.40983 3.16535C5.78023 3.00175 6.18063 2.91706 6.58555 2.91668H10.9606C11.6683 2.90971 12.3544 3.16033 12.891 3.62183C13.4277 4.08332 13.7782 4.7242 13.8772 5.42501C14.0619 6.82511 14.4043 8.19982 14.8981 9.52293C15.0943 10.0449 15.1367 10.6122 15.0204 11.1575C14.9041 11.7029 14.6339 12.2035 14.2418 12.6L12.3897 14.4521C14.4657 18.1031 17.4887 21.1261 21.1397 23.2021L22.9918 21.35C23.3883 20.9579 23.8889 20.6877 24.4343 20.5714C24.9796 20.4551 25.5469 20.4976 26.0689 20.6938C27.392 21.1875 28.7667 21.5299 30.1668 21.7146C30.8752 21.8145 31.5222 22.1714 31.9847 22.7172C32.4471 23.263 32.6929 23.9598 32.6751 24.675Z" stroke="black" stroke-linecap="round" stroke-linejoin="round"/>
</g>
</svg>
