<svg width="25" height="24" viewBox="0 0 25 24" fill="none" xmlns="http://www.w3.org/2000/svg">
<path d="M6.0918 2L3.0918 6V20C3.0918 20.5304 3.30251 21.0391 3.67758 21.4142C4.05266 21.7893 4.56136 22 5.0918 22H19.0918C19.6222 22 20.1309 21.7893 20.506 21.4142C20.8811 21.0391 21.0918 20.5304 21.0918 20V6L18.0918 2H6.0918Z" stroke="#C54C3D" stroke-width="2" stroke-linecap="round" stroke-linejoin="round"/>
<path d="M3.0918 6H21.0918" stroke="#C54C3D" stroke-width="2" stroke-linecap="round" stroke-linejoin="round"/>
<path d="M16.0918 10C16.0918 11.0609 15.6704 12.0783 14.9202 12.8284C14.1701 13.5786 13.1527 14 12.0918 14C11.0309 14 10.0135 13.5786 9.26337 12.8284C8.51322 12.0783 8.0918 11.0609 8.0918 10" stroke="#C54C3D" stroke-width="2" stroke-linecap="round" stroke-linejoin="round"/>
</svg>
