<svg width="36" height="36" viewBox="0 0 36 36" fill="none" xmlns="http://www.w3.org/2000/svg">
<g id="truck">
<path id="Vector" d="M23.9251 4.875H2.05011V23.8333H23.9251V4.875Z" stroke="black" stroke-linecap="round" stroke-linejoin="round"/>
<path id="Vector_2" d="M23.9251 12.1667H29.7584L34.1334 16.5417V23.8333H23.9251V12.1667Z" stroke="black" stroke-linecap="round" stroke-linejoin="round"/>
<path id="Vector_3" d="M8.61263 31.125C10.6262 31.125 12.2585 29.4927 12.2585 27.4792C12.2585 25.4656 10.6262 23.8333 8.61263 23.8333C6.59909 23.8333 4.9668 25.4656 4.9668 27.4792C4.9668 29.4927 6.59909 31.125 8.61263 31.125Z" stroke="black" stroke-linecap="round" stroke-linejoin="round"/>
<path id="Vector_4" d="M27.5709 31.125C29.5845 31.125 31.2168 29.4927 31.2168 27.4792C31.2168 25.4656 29.5845 23.8333 27.5709 23.8333C25.5574 23.8333 23.9251 25.4656 23.9251 27.4792C23.9251 29.4927 25.5574 31.125 27.5709 31.125Z" stroke="black" stroke-linecap="round" stroke-linejoin="round"/>
</g>
</svg>
