<svg width="76" height="32" viewBox="0 0 76 32" fill="none" xmlns="http://www.w3.org/2000/svg">
<g id="Logo">
<path id="Vector" d="M25.9559 0.660472C26.5539 0.928645 27.0055 1.26686 27.2859 1.86852C27.3596 2.20942 27.281 2.32108 27.0974 2.61221C27.0486 2.69198 26.9998 2.77176 26.9496 2.85395C26.8161 3.04298 26.6859 3.2055 26.5324 3.37628C26.2526 3.69581 26.061 4.04679 25.8642 4.42126C25.6479 4.82897 25.4357 5.19544 25.1406 5.55256C25.0659 5.68324 24.9947 5.81587 24.9265 5.95004C24.6058 6.5525 24.2198 7.10914 23.836 7.67246C23.3632 8.36968 22.9114 9.07987 22.4974 9.81371C21.9112 10.8468 21.9112 10.8468 21.5123 11.2549C21.1253 11.6534 20.8886 12.1035 20.6297 12.5896C20.3888 13.0392 20.1276 13.4434 19.8156 13.8478C19.6722 14.0313 19.6722 14.0313 19.5576 14.2446C19.4265 14.4503 19.3006 14.541 19.107 14.6845C18.988 14.8563 18.988 14.8563 18.8929 15.0463C18.8599 15.1084 18.8269 15.1705 18.7929 15.2345C18.7343 15.3496 18.6782 15.466 18.626 15.5842C18.5151 15.7821 18.3727 15.9128 18.2101 16.0705C18.1114 16.193 18.0145 16.3171 17.9196 16.4426C17.7888 16.6153 17.6638 16.7803 17.5094 16.9324C17.3538 17.0906 17.2598 17.2773 17.1533 17.4703C17.0281 17.691 16.8842 17.8986 16.7425 18.1089C16.6898 18.2043 16.6898 18.2043 16.6361 18.3016C16.4779 18.5476 16.2967 18.7278 16.0851 18.9294C15.7451 19.2532 15.7451 19.2532 15.5194 19.6581C15.4656 19.6581 15.4118 19.6581 15.3564 19.6581C15.3274 19.7456 15.3274 19.7456 15.2978 19.8348C15.1763 20.1033 15.0247 20.2816 14.8264 20.4989C14.7617 20.5709 14.6969 20.6429 14.6302 20.7171C14.4595 20.8811 14.4595 20.8811 14.2964 20.8811C14.2759 20.9295 14.2554 20.9778 14.2343 21.0276C14.0909 21.2828 13.886 21.4226 13.6578 21.6009C13.4991 21.7599 13.4077 21.8898 13.2948 22.0806C13.0601 22.4707 12.766 22.7859 12.4517 23.1131C12.3973 23.171 12.3428 23.2289 12.2867 23.2886C12.0667 23.5206 11.873 23.7197 11.6058 23.8979C12.7978 24.3799 13.996 24.8439 15.1984 25.2993C15.2874 25.333 15.3763 25.3667 15.468 25.4015C16.0031 25.6042 16.5383 25.8066 17.0736 26.0088C17.2909 26.0909 17.5081 26.1731 17.7253 26.2555C24.4939 28.8187 31.4788 31.1087 40.6322 30.4207C40.7287 30.4062 40.8253 30.3918 40.9247 30.377C43.6933 29.9517 45.8287 29.234 47.5684 26.9363C47.7625 26.7083 47.9286 26.6601 48.2149 26.5885C48.4564 26.7697 48.5944 26.8853 48.6697 27.1819C48.697 27.5848 48.644 27.8404 48.3831 28.153C48.2756 28.2596 48.165 28.3633 48.0518 28.4638C47.9986 28.5124 47.9455 28.561 47.8907 28.611C46.3459 29.9128 44.1284 30.374 42.22 30.8721C41.9155 30.9521 41.614 31.0385 41.3134 31.1322C41.0431 31.215 40.7937 31.268 40.5099 31.2819C40.2294 31.2965 39.9707 31.3371 39.6977 31.3995C39.2279 31.4944 38.7743 31.5028 38.2963 31.4994C38.2072 31.4994 38.1181 31.4993 38.0264 31.4993C37.8385 31.4991 37.6506 31.4984 37.4627 31.4974C37.1808 31.4959 36.8988 31.4957 36.6169 31.4958C35.7786 31.4945 34.9414 31.4855 34.104 31.445C34.0096 31.4404 34.0096 31.4404 33.9134 31.4358C33.3268 31.4035 32.7459 31.3304 32.1662 31.236C32.0878 31.2233 32.0093 31.2106 31.9284 31.1975C31.7972 31.1762 31.7972 31.1762 31.6633 31.1545C31.5608 31.1384 31.4583 31.1223 31.3527 31.1058C27.5778 30.513 23.9376 29.4657 20.33 28.2192C20.24 28.1883 20.15 28.1574 20.0573 28.1255C18.4005 27.5526 16.7731 26.8986 15.1421 26.2569C14.8561 26.1445 14.5699 26.0324 14.2837 25.9203C14.0892 25.8441 13.8947 25.7679 13.7002 25.6917C13.6099 25.6563 13.5196 25.6209 13.4265 25.5844C13.0085 25.4202 12.5913 25.2543 12.1756 25.0843C12.0996 25.0533 12.0235 25.0224 11.9452 24.9905C11.8056 24.9335 11.6662 24.876 11.527 24.8179C11.4664 24.7931 11.4058 24.7684 11.3433 24.7429C11.2652 24.7104 11.2652 24.7104 11.1855 24.6773C11.0092 24.6159 11.0092 24.6159 10.7089 24.6317C10.5565 24.7655 10.5565 24.7655 10.4235 24.9426C10.1193 25.3221 9.85527 25.5138 9.40433 25.6917C9.27001 25.7737 9.13761 25.8589 9.00685 25.9465C8.04924 26.5639 6.85643 27.3289 5.70437 27.4475C5.60694 27.46 5.50951 27.4725 5.40913 27.4854C5.38222 27.5392 5.35531 27.593 5.32759 27.6485C5.26816 27.6091 5.26816 27.6091 5.20752 27.5689C4.91457 27.4502 4.62498 27.4613 4.3135 27.4548C2.89402 27.3959 1.4918 26.851 0.51035 25.8054C0.122435 25.3211 -0.00866366 24.9185 0.00043937 24.3049C0.0613789 23.7621 0.217153 23.1797 0.573412 22.7551C0.738205 22.6244 0.901325 22.5277 1.08778 22.4303C1.16209 22.3879 1.2364 22.3456 1.31296 22.3019C2.95296 21.4165 4.67479 21.5983 6.40411 22.1121C7.14179 22.3358 7.87666 22.5689 8.60491 22.8217C8.90749 22.9171 9.0291 22.933 9.3228 22.8379C9.48587 22.8379 9.64894 22.8379 9.81201 22.8379C9.83723 22.7858 9.86246 22.7337 9.88844 22.68C9.97508 22.5118 9.97508 22.5118 10.0566 22.4303C9.97589 22.4034 9.89517 22.3765 9.81201 22.3487C9.81201 22.2949 9.81201 22.2411 9.81201 22.1857C9.89273 22.1588 9.97344 22.1318 10.0566 22.1041C10.164 21.9446 10.164 21.9446 10.2554 21.7525C10.4073 21.4645 10.5563 21.2712 10.7904 21.0442C10.9184 20.8627 11.0398 20.6778 11.1602 20.4913C11.276 20.3158 11.3891 20.1453 11.5242 19.9842C11.578 19.9842 11.6319 19.9842 11.6873 19.9842C11.7142 19.9035 11.7411 19.8228 11.7688 19.7396C11.8227 19.7009 11.8765 19.6623 11.9319 19.6224C12.1188 19.4764 12.1448 19.3987 12.1765 19.1689C12.2841 19.142 12.3918 19.1151 12.5027 19.0873C12.5027 19.0335 12.5027 18.9797 12.5027 18.9243C12.6114 18.8156 12.7201 18.7068 12.8288 18.5981C12.8675 18.5325 12.9061 18.467 12.946 18.3994C13.0945 18.1559 13.28 17.9839 13.4811 17.7828C13.5379 17.6754 13.5927 17.5668 13.6441 17.4566C13.7244 17.3738 13.8061 17.2925 13.8887 17.212C14.1912 16.8884 14.4657 16.5617 14.7041 16.1878C14.9009 15.8812 15.122 15.6468 15.385 15.3969C15.5642 15.208 15.6832 14.9995 15.8134 14.7752C15.9922 14.5044 16.2173 14.2786 16.4431 14.0465C16.595 13.8777 16.595 13.8777 16.6138 13.6586C16.6609 13.4614 16.6609 13.4614 16.8508 13.3391C16.9226 13.2988 16.9945 13.2584 17.0686 13.2168C17.2345 13.0251 17.2345 13.0251 17.3744 12.8092C17.4227 12.7385 17.4711 12.6679 17.5209 12.5951C17.6498 12.4007 17.6498 12.4007 17.7209 12.1569C17.889 12.1008 17.889 12.1008 18.047 12.0753C18.0533 12.0326 18.0596 11.9898 18.0661 11.9457C18.1536 11.6705 18.3143 11.4509 18.4751 11.2141C18.7599 10.7859 18.9913 10.3622 19.1828 9.88282C19.27 9.71084 19.27 9.71084 19.5146 9.54777C19.5416 9.46705 19.5685 9.38633 19.5962 9.30316C19.65 9.30316 19.7038 9.30316 19.7593 9.30316C19.7719 9.16947 19.7719 9.16947 19.7847 9.03308C19.8408 8.73242 19.8408 8.73242 19.958 8.57444C20.0854 8.48781 20.0854 8.48781 20.2485 8.48781C20.2549 8.43158 20.2613 8.37535 20.2679 8.31742C20.3461 8.01875 20.4991 7.79613 20.6714 7.54507C20.9124 7.18406 21.1276 6.82761 21.3135 6.43415C21.5762 5.88681 21.9099 5.35467 22.3445 4.92608C22.4635 4.82309 22.4635 4.82309 22.4907 4.65568C22.541 4.45446 22.6283 4.38981 22.776 4.248C22.8321 4.14015 22.8862 4.03126 22.9391 3.92186C23.0118 3.78916 23.0848 3.65668 23.1582 3.52438C23.3509 3.17403 23.5293 2.81921 23.7035 2.45933C24.7647 0.329879 24.7647 0.329879 25.9559 0.660472ZM19.5146 12.5646C19.4339 12.6184 19.3532 12.6722 19.27 12.7276C19.27 12.7814 19.27 12.8352 19.27 12.8907C19.3777 12.8369 19.4853 12.7831 19.5962 12.7276C19.5693 12.6738 19.5424 12.62 19.5146 12.5646ZM19.0254 12.9722C18.9985 13.1337 18.9716 13.2951 18.9439 13.4614C19.0246 13.3538 19.1053 13.2462 19.1885 13.1353C19.1347 13.0815 19.0809 13.0277 19.0254 12.9722ZM18.7808 13.4614C18.7808 13.5152 18.7808 13.5691 18.7808 13.6245C18.8346 13.5976 18.8885 13.5707 18.9439 13.543C18.8901 13.5161 18.8363 13.4892 18.7808 13.4614ZM18.5362 13.6245C18.4555 13.7456 18.4555 13.7456 18.3732 13.8691C18.5077 13.8691 18.6422 13.8691 18.7808 13.8691C18.7539 13.7884 18.727 13.7077 18.6993 13.6245C18.6455 13.6245 18.5917 13.6245 18.5362 13.6245ZM17.884 14.4399C17.9109 14.4937 17.9378 14.5475 17.9655 14.6029C17.9924 14.5491 18.0193 14.4953 18.047 14.4399C17.9932 14.4399 17.9394 14.4399 17.884 14.4399ZM17.7209 14.6845C17.7125 14.7366 17.7041 14.7887 17.6954 14.8424C17.6769 14.8979 17.6584 14.9534 17.6393 15.0106C17.5586 15.0375 17.4779 15.0644 17.3947 15.0921C17.4216 15.1459 17.4486 15.1998 17.4763 15.2552C17.6108 15.1207 17.7453 14.9861 17.884 14.8475C17.8301 14.7937 17.7763 14.7399 17.7209 14.6845ZM17.4763 15.3367C17.4763 15.5813 17.4763 15.5813 17.4763 15.5813V15.3367ZM16.9055 15.7444C16.8954 15.7949 16.8854 15.8453 16.875 15.8973C16.824 16.0705 16.824 16.0705 16.6609 16.2336C16.9814 16.1868 16.9814 16.1868 17.2317 15.989C17.2048 15.9083 17.1779 15.8276 17.1501 15.7444C17.0694 15.7444 16.9887 15.7444 16.9055 15.7444ZM16.1717 16.5598C16.1986 16.6405 16.2255 16.7212 16.2533 16.8044C16.334 16.8044 16.4147 16.8044 16.4979 16.8044C16.5517 16.6429 16.6055 16.4815 16.6609 16.3152C16.4357 16.3152 16.3435 16.4223 16.1717 16.5598ZM16.1717 16.8859C16.1448 16.9935 16.1179 17.1011 16.0902 17.212C16.1709 17.1313 16.2516 17.0506 16.3348 16.9674C16.281 16.9405 16.2272 16.9136 16.1717 16.8859ZM15.8456 17.1305C15.3603 17.4494 15.0668 17.9519 14.9487 18.5166C15.0294 18.5166 15.1101 18.5166 15.1933 18.5166C15.1933 18.409 15.1933 18.3013 15.1933 18.1905C15.274 18.1635 15.3547 18.1366 15.4379 18.1089C15.5504 17.9628 15.5504 17.9628 15.6468 17.7879C15.7593 17.5948 15.8496 17.4526 16.0087 17.2936C15.9548 17.2398 15.901 17.1859 15.8456 17.1305ZM14.7398 18.379C14.5961 18.5175 14.5961 18.5175 14.6226 18.7612C14.5687 18.7612 14.5149 18.7612 14.4595 18.7612C14.4326 18.8688 14.4057 18.9764 14.378 19.0873C14.5125 19.0604 14.647 19.0335 14.7856 19.0058C14.8394 18.7636 14.8933 18.5215 14.9487 18.272C14.8498 18.2632 14.8498 18.2632 14.7398 18.379ZM14.0518 19.3116C13.9037 19.4782 13.8128 19.6178 13.7257 19.8211C13.9688 19.7764 13.9688 19.7764 14.2149 19.6581C14.3332 19.412 14.3332 19.412 14.378 19.1689C14.1992 19.151 14.1992 19.151 14.0518 19.3116ZM13.2365 19.4135C13.1827 19.5211 13.1288 19.6287 13.0734 19.7396C13.1541 19.6858 13.2348 19.632 13.318 19.5765C13.2911 19.5227 13.2642 19.4689 13.2365 19.4135ZM14.4595 19.495C14.4595 19.5757 14.4595 19.6565 14.4595 19.7396C14.5133 19.6589 14.5671 19.5782 14.6226 19.495C14.5687 19.495 14.5149 19.495 14.4595 19.495ZM12.9103 19.7396C12.8834 19.7934 12.8565 19.8472 12.8288 19.9027C12.9095 19.8758 12.9902 19.8489 13.0734 19.8211C13.0196 19.7942 12.9658 19.7673 12.9103 19.7396ZM14.2964 19.7396C14.2695 19.7934 14.2426 19.8472 14.2149 19.9027C14.2687 19.9027 14.3225 19.9027 14.378 19.9027C14.351 19.8489 14.3241 19.7951 14.2964 19.7396ZM13.8072 19.9027C13.8072 20.1473 13.8072 20.1473 13.8072 20.1473V19.9027ZM13.5626 19.9842C13.4819 20.1053 13.4819 20.1053 13.3995 20.2288C13.5072 20.2019 13.6148 20.175 13.7257 20.1473C13.6719 20.0935 13.6181 20.0397 13.5626 19.9842ZM12.9919 21.0442C12.9919 21.098 12.9919 21.1518 12.9919 21.2072C13.0726 21.1803 13.1533 21.1534 13.2365 21.1257C13.1557 21.0988 13.075 21.0719 12.9919 21.0442ZM12.4211 21.3703C12.4009 21.4342 12.3808 21.4981 12.36 21.564C12.2455 21.8043 12.176 21.8516 11.9319 21.9411C11.9319 22.0218 11.9319 22.1025 11.9319 22.1857C11.9693 22.1581 12.0067 22.1306 12.0453 22.1022C12.5422 21.741 12.5422 21.741 12.8288 21.6149C12.8019 21.5611 12.775 21.5073 12.7473 21.4518C12.6665 21.4922 12.6665 21.4922 12.5842 21.5334C12.5842 21.4796 12.5842 21.4258 12.5842 21.3703C12.5304 21.3703 12.4766 21.3703 12.4211 21.3703ZM11.8504 22.3487C11.8504 22.4025 11.8504 22.4564 11.8504 22.5118C11.7697 22.5387 11.6889 22.5656 11.6058 22.5933C11.594 22.6455 11.5822 22.6976 11.5701 22.7513C11.555 22.8068 11.5398 22.8623 11.5242 22.9195C11.4169 22.9765 11.3082 23.031 11.1981 23.0825C11.1712 23.1633 11.1443 23.244 11.1166 23.3271C11.0627 23.3271 11.0089 23.3271 10.9535 23.3271C10.9804 23.4079 11.0073 23.4886 11.035 23.5718C11.4265 23.2506 11.765 22.9569 12.0134 22.5118C12.0134 22.458 12.0134 22.4042 12.0134 22.3487C11.9596 22.3487 11.9058 22.3487 11.8504 22.3487ZM1.05721 23.2813C0.780048 23.7183 0.584252 24.1069 0.598574 24.6317C0.787498 25.2929 1.24256 25.767 1.8165 26.1299C2.66679 26.599 3.6144 26.6445 4.54792 26.3847C5.3596 26.1049 6.17296 25.6935 6.81879 25.1235C7.00624 25.0105 7.15133 25.0247 7.36596 25.0394C7.40632 24.9183 7.40632 24.9183 7.4475 24.7948C7.60547 24.7081 7.60547 24.7081 7.77364 24.6317C7.82745 24.5779 7.88126 24.5241 7.93671 24.4686C8.05779 24.509 8.05779 24.509 8.18131 24.5502C8.35801 24.4788 8.35801 24.4788 8.50745 24.3871C8.50745 24.3064 8.50745 24.2257 8.50745 24.1425C8.45364 24.1425 8.39982 24.1425 8.34438 24.1425C8.4251 24.0668 8.4251 24.0668 8.50745 23.9896C8.68915 23.8362 8.68915 23.8362 8.67052 23.6533C4.77803 22.097 4.77803 22.097 1.05721 23.2813Z" fill="white"/>
<path id="Vector_2" d="M39.5722 11.6676C39.7866 11.8447 39.9369 11.9894 40.0614 12.2383C40.0888 12.6708 40.0608 13.0145 39.9391 13.4308C39.7924 13.9276 39.7924 13.9276 39.8168 14.4398C40.0624 14.8126 40.3871 15.0952 40.7289 15.3774C41.0891 15.6858 41.3147 16.0076 41.3937 16.4813C41.4246 17.1231 41.1041 17.6306 40.7137 18.1088C40.5778 18.2447 40.4419 18.3806 40.306 18.5165C40.2314 18.619 40.1584 18.7227 40.0869 18.8274C40.0246 18.9131 39.9624 18.9989 39.8983 19.0872C39.8445 19.0872 39.7907 19.0872 39.7352 19.0872C39.7209 19.1771 39.7209 19.1771 39.7063 19.2688C39.6537 19.4952 39.5816 19.6519 39.4652 19.8516C39.429 19.9144 39.3928 19.9771 39.3556 20.0418C39.3194 20.1035 39.2833 20.1652 39.246 20.2287C39.1831 20.3391 39.1202 20.4495 39.0575 20.56C39.0121 20.639 38.9667 20.718 38.9199 20.7995C38.8392 20.7995 38.7585 20.7995 38.6753 20.7995C38.6484 20.9071 38.6215 21.0147 38.5938 21.1256C38.5399 21.1256 38.4861 21.1256 38.4307 21.1256C38.4156 21.2038 38.4156 21.2038 38.4001 21.2836C38.333 21.6124 38.2596 21.9397 38.1861 22.2671C38.1323 22.2671 38.0785 22.2671 38.023 22.2671C38.1018 22.4385 38.1018 22.4385 38.2676 22.5932C39.1872 22.8657 40.1181 22.3062 40.9105 21.8813C42.1015 21.2261 43.2467 20.5173 44.3012 19.658C44.3736 19.6011 44.446 19.5443 44.5206 19.4857C44.7212 19.328 44.9192 19.1675 45.1165 19.0057C45.1803 18.9549 45.2441 18.9042 45.3099 18.8519C45.8411 18.4102 46.2815 17.8755 46.5026 17.2119C46.5564 17.2119 46.6103 17.2119 46.6657 17.2119C46.6707 17.1514 46.6758 17.0909 46.681 17.0285C46.7681 16.7337 46.9138 16.6632 47.1549 16.4781C47.2643 16.3155 47.3732 16.1526 47.4811 15.9889C47.5349 15.9889 47.5887 15.9889 47.6441 15.9889C47.6693 15.9233 47.6693 15.9233 47.6951 15.8564C47.8506 15.5878 48.0557 15.3698 48.2964 15.1736C48.3502 15.1736 48.404 15.1736 48.4595 15.1736C48.4872 15.108 48.4872 15.108 48.5155 15.0411C48.7482 14.6201 49.0231 14.3476 49.4379 14.1136C49.49 14.0581 49.5421 14.0026 49.5959 13.9455C49.8 13.7537 49.9857 13.6974 50.2532 13.6244C50.2532 13.5706 50.2532 13.5168 50.2532 13.4613C51.0116 13.0303 51.9084 12.7212 52.7885 12.9314C53.3216 13.1064 53.6181 13.4116 53.8968 13.8945C54.4196 15.0111 54.3181 16.3721 53.9121 17.5075C53.5431 18.3805 53.0614 19.1576 52.477 19.9016C52.2982 20.1303 52.2982 20.1303 52.1861 20.3189C51.8824 20.8114 51.544 21.1287 51.0737 21.4619C51.0062 21.5109 50.9388 21.5599 50.8692 21.6103C50.3546 21.9741 49.8326 22.2521 49.2512 22.4926C49.0207 22.5696 49.0207 22.5696 48.9487 22.7563C47.2196 23.1178 47.2196 23.1178 46.5842 22.7563C46.5842 22.6218 46.5842 22.4872 46.5842 22.3486C46.5304 22.3486 46.4765 22.3486 46.4211 22.3486C46.4211 22.2948 46.4211 22.241 46.4211 22.1856C46.3673 22.1856 46.3135 22.1856 46.258 22.1856C46.164 22.0041 46.0707 21.8223 45.9778 21.6403C45.9379 21.5638 45.9379 21.5638 45.8973 21.4857C45.7531 21.2016 45.6621 20.9485 45.6057 20.6364C45.5519 20.5557 45.4981 20.475 45.4427 20.3918C45.4681 20.2827 45.4955 20.174 45.5242 20.0657C45.4928 19.847 45.4928 19.847 45.4427 19.658C45.0837 19.9164 44.7432 20.1857 44.4108 20.4778C42.8562 21.8411 40.7365 23.564 38.5565 23.5099C38.1339 23.4696 37.8842 23.2895 37.6 22.9907C37.3447 22.6736 37.202 22.3406 37.1261 21.941C37.1516 21.732 37.1516 21.732 37.2077 21.5333C37.2081 21.4246 37.2062 21.3158 37.2026 21.2072C37.1979 20.9816 37.2081 20.88 37.2994 20.667C37.399 20.3966 37.2989 20.2525 37.2077 19.9841C37.223 19.6784 37.223 19.6784 37.2892 19.4134C37.3699 19.3596 37.4506 19.3058 37.5338 19.2503C37.6327 19.0013 37.6327 19.0013 37.6969 18.7611C37.7507 18.7611 37.8045 18.7611 37.8599 18.7611C37.8751 18.6955 37.8902 18.6299 37.9058 18.5624C38.0443 18.219 38.2391 17.9799 38.4746 17.6973C38.61 17.5495 38.61 17.5495 38.5938 17.375C38.6745 17.375 38.7552 17.375 38.8384 17.375C38.8384 17.3212 38.8384 17.2674 38.8384 17.2119C38.8922 17.2119 38.946 17.2119 39.0014 17.2119C39.0182 17.1581 39.0351 17.1043 39.0524 17.0489C39.2748 16.5636 39.6448 16.1566 39.9798 15.7443C39.9025 15.6771 39.8251 15.6098 39.7454 15.5405C39.7019 15.5026 39.6584 15.4648 39.6136 15.4258C39.494 15.3207 39.494 15.3207 39.3276 15.3366C39.2909 15.4068 39.2542 15.4769 39.2164 15.5491C38.4167 17.036 37.1836 18.3311 35.8439 19.3503C35.6433 19.5067 35.4581 19.6741 35.2712 19.8465C34.8201 20.2569 34.3444 20.6303 33.8616 21.0021C33.6929 21.1324 33.5253 21.2638 33.3577 21.3954C31.935 22.5061 30.376 23.6563 28.4834 23.4901C28.026 23.3942 27.8594 23.2022 27.6069 22.8277C27.3736 22.4338 27.22 22.0549 27.0973 21.6148C27.1243 21.5879 27.1512 21.561 27.1789 21.5333C27.1823 21.3703 27.1823 21.2071 27.1789 21.0441C27.1789 21.0172 27.1789 20.9903 27.1789 20.9625C27.1525 20.8536 27.1253 20.7449 27.0973 20.6364C26.7523 20.9 26.4104 21.1663 26.0788 21.4467C23.2158 23.8536 23.2158 23.8536 21.6345 23.8163C21.3644 23.7857 21.3644 23.7857 21.1453 23.7347C21.0095 23.7073 20.8736 23.6801 20.7376 23.6532C20.7287 23.593 20.7198 23.5327 20.7106 23.4707C20.6303 22.9571 20.5255 22.4677 20.3698 21.9715C20.3274 21.7654 20.3436 21.6487 20.4115 21.4518C20.546 21.4518 20.6806 21.4518 20.8192 21.4518C20.8192 21.3979 20.8192 21.3441 20.8192 21.2887C20.7654 21.2887 20.7115 21.2887 20.6561 21.2887C20.6561 21.208 20.6561 21.1272 20.6561 21.0441C20.7368 21.0441 20.8175 21.0441 20.9007 21.0441C20.9007 20.9634 20.9007 20.8826 20.9007 20.7995C20.82 20.8802 20.82 20.8802 20.7376 20.9625C20.643 20.6154 20.6647 20.3354 20.7376 19.9841C20.8184 19.9034 20.8184 19.9034 20.9007 19.8211C20.8738 19.7672 20.8469 19.7134 20.8192 19.658C20.873 19.658 20.9268 19.658 20.9822 19.658C20.9822 19.6042 20.9822 19.5504 20.9822 19.4949C20.9284 19.4949 20.8746 19.4949 20.8192 19.4949C20.8285 19.3658 20.8389 19.2367 20.8497 19.1076C20.8554 19.0357 20.8611 18.9639 20.8669 18.8898C20.901 18.6776 20.9487 18.5342 21.0638 18.3534C21.237 18.2923 21.237 18.2923 21.3899 18.2719C21.3967 18.2136 21.4036 18.1552 21.4106 18.0951C21.4849 17.8132 21.6083 17.6559 21.7925 17.4311C21.8794 17.3231 21.8794 17.3231 21.968 17.2129C22.0194 17.1588 22.0708 17.1046 22.1237 17.0489C22.1775 17.0489 22.2314 17.0489 22.2868 17.0489C22.3406 16.8874 22.3944 16.726 22.4499 16.5597C22.5037 16.5597 22.5575 16.5597 22.6129 16.5597C22.6457 16.4865 22.6457 16.4865 22.6792 16.4119C22.775 16.2353 22.8801 16.1295 23.0206 15.9889C23.0206 15.9351 23.0206 15.8813 23.0206 15.8259C23.1282 15.8259 23.2359 15.8259 23.3467 15.8259C23.3636 15.7805 23.3804 15.735 23.3977 15.6883C23.5084 15.5021 23.5978 15.4183 23.7646 15.2857C23.8806 15.1898 23.8806 15.1898 23.999 15.092C23.999 15.0382 23.999 14.9844 23.999 14.929C24.0797 14.9021 24.1605 14.8752 24.2436 14.8474C24.2958 14.7802 24.3479 14.7129 24.4016 14.6436C24.5735 14.4352 24.6349 14.3862 24.8959 14.3582C24.8959 14.2775 24.8959 14.1968 24.8959 14.1136C25.1106 13.9164 25.2705 13.7985 25.5482 13.706C25.6289 13.5849 25.6289 13.5849 25.7113 13.4613C25.9924 13.2794 26.2192 13.1524 26.5419 13.0639C26.8343 12.9776 27.0674 12.8677 27.3369 12.7275C28.0915 12.3432 28.841 12.1737 29.6759 12.4065C30.2924 12.6418 30.7509 13.0952 31.0238 13.6935C31.1146 14.0331 31.1305 14.3544 31.1333 14.7048C31.1338 14.7674 31.1344 14.8301 31.1349 14.8947C31.1261 15.2848 31.0742 15.5763 30.8479 15.9074C30.69 15.9956 30.69 15.9956 30.5218 15.9889C30.3587 15.8778 30.3587 15.8778 30.1957 15.7188C29.8844 15.4192 29.6382 15.2329 29.1969 15.2143C28.3664 15.2304 27.4861 15.6312 26.8527 16.152C26.7821 16.194 26.7115 16.2361 26.6387 16.2794C26.3222 16.471 26.0485 16.701 25.7928 16.9673C25.3851 17.375 25.3851 17.375 25.2628 17.4922C25.1405 17.6153 25.1405 17.6153 25.0437 17.7432C24.9449 17.869 24.8391 17.9893 24.7328 18.1088C24.6521 18.1088 24.5714 18.1088 24.4882 18.1088C24.4814 18.1655 24.4746 18.2221 24.4675 18.2805C24.3914 18.5759 24.2561 18.7788 24.0857 19.0312C23.9988 19.1619 23.9988 19.1619 23.9102 19.2952C23.8588 19.3611 23.8074 19.427 23.7544 19.4949C23.7006 19.4949 23.6468 19.4949 23.5914 19.4949C23.5829 19.5403 23.5745 19.5857 23.5659 19.6325C23.498 19.8608 23.3914 20.0259 23.2652 20.2287C23.193 20.3523 23.1218 20.4763 23.0512 20.6007C23.0165 20.6614 22.9818 20.722 22.9461 20.7845C22.8621 20.9533 22.8136 21.1046 22.776 21.2887C22.7222 21.2887 22.6684 21.2887 22.6129 21.2887C22.5928 21.356 22.5726 21.4232 22.5518 21.4925C22.4533 21.7683 22.3344 22.0151 22.1973 22.2728C22.1225 22.4327 22.0793 22.5841 22.0422 22.7563C21.9884 22.7563 21.9346 22.7563 21.8791 22.7563C21.8791 22.8639 21.8791 22.9716 21.8791 23.0825C23.1495 22.8443 24.1999 21.8928 25.1587 21.0843C25.3596 20.9155 25.5635 20.7506 25.7673 20.5855C26.0969 20.3159 26.4217 20.0411 26.7457 19.765C27.1245 19.4424 27.5099 19.1349 27.9127 18.8426C27.8858 18.7619 27.8589 18.6812 27.8312 18.598C27.8967 18.561 27.9623 18.524 28.0299 18.4859C28.2461 18.374 28.2461 18.374 28.3204 18.1904C28.3742 18.1904 28.428 18.1904 28.4834 18.1904C28.4851 18.1231 28.4868 18.0558 28.4885 17.9865C28.5953 17.5878 28.8326 17.3247 29.1357 17.0489C29.1895 17.0489 29.2433 17.0489 29.2988 17.0489C29.3022 17.0035 29.3055 16.9581 29.309 16.9113C29.4204 16.6169 29.6149 16.4898 29.8695 16.3151C30.0377 16.2998 30.0377 16.2998 30.1957 16.3966C30.6618 16.8952 30.7184 17.2454 30.7132 17.9095C30.6715 18.3231 30.5428 18.6825 30.2772 19.0057C30.2069 19.0315 30.1366 19.0572 30.0641 19.0837C29.9678 19.1258 29.9678 19.1258 29.8695 19.1688C29.8119 19.3634 29.8119 19.3634 29.788 19.5765C29.6902 19.7481 29.6902 19.7481 29.5689 19.9179C29.2965 20.3097 29.0516 20.7146 28.8096 21.1256C28.6885 21.0853 28.6885 21.0853 28.565 21.0441C28.565 21.1248 28.565 21.2055 28.565 21.2887C28.5112 21.2887 28.4573 21.2887 28.4019 21.2887C28.397 21.3407 28.392 21.3927 28.3869 21.4463C28.3801 21.5137 28.3733 21.5811 28.3662 21.6505C28.3596 21.7177 28.353 21.7848 28.3462 21.854C28.3204 22.0225 28.3204 22.0225 28.2388 22.104C28.2926 22.1309 28.3465 22.1578 28.4019 22.1856C28.375 22.3201 28.3481 22.4546 28.3204 22.5932C29.0606 22.84 29.7614 22.5243 30.431 22.198C31.8429 21.4825 33.1608 20.5925 34.4355 19.658C34.5134 19.6012 34.5912 19.5445 34.6715 19.486C35.1865 19.0935 35.6123 18.6327 36.0389 18.1492C36.1402 18.0357 36.2442 17.9247 36.3484 17.8139C37.1318 16.9797 37.8251 16.0631 38.4613 15.1124C38.5208 15.0237 38.5802 14.935 38.6415 14.8436C38.7755 14.6144 38.7755 14.6144 38.7425 14.3847C38.672 14.1773 38.672 14.1773 38.5479 13.9149C38.3352 13.3647 38.3147 12.6732 38.546 12.1313C38.8078 11.6876 39.0582 11.5954 39.5722 11.6676ZM39.246 12.4014C39.1686 12.7027 39.1686 12.9154 39.246 13.2167C39.4171 13.0243 39.4881 12.9276 39.5059 12.6664C39.5009 12.6058 39.4958 12.5453 39.4906 12.4829C39.4099 12.456 39.3292 12.4291 39.246 12.4014ZM52.4547 15.3366C52.4278 15.3905 52.4009 15.4443 52.3731 15.4997C52.2891 15.5098 52.205 15.5199 52.1183 15.5303C51.7473 15.5901 51.5462 15.7084 51.2317 15.9074C51.2317 15.9612 51.2317 16.015 51.2317 16.0705C51.1509 16.0705 51.0702 16.0705 50.987 16.0705C50.987 16.1243 50.987 16.1781 50.987 16.2335C50.9221 16.2425 50.9221 16.2425 50.8558 16.2517C50.5831 16.3404 50.3764 16.5048 50.1513 16.6769C50.1061 16.7101 50.0609 16.7434 50.0144 16.7777C49.9003 16.8638 49.791 16.9559 49.6825 17.0489C49.6825 17.1027 49.6825 17.1565 49.6825 17.2119C49.6018 17.2389 49.5211 17.2658 49.4379 17.2935C49.411 17.428 49.3841 17.5625 49.3563 17.7012C49.3025 17.7012 49.2487 17.7012 49.1933 17.7012C48.8891 17.9343 48.7767 18.2081 48.6343 18.5512C48.4961 18.8621 48.3253 19.1533 48.1553 19.4478C47.853 20.0618 47.8579 20.9504 48.0671 21.5944C48.1886 21.8647 48.1886 21.8647 48.3983 21.9677C48.8334 22.074 49.2198 21.8129 49.601 21.6148C49.8328 21.467 50.041 21.3 50.2532 21.1256C50.3079 21.0877 50.3625 21.0497 50.4189 21.0106C51.0171 20.5869 51.4663 20.0325 51.9306 19.4717C52.025 19.3582 52.1216 19.2465 52.2187 19.1353C52.9208 18.3014 53.4026 17.2131 53.5503 16.1367C53.4998 15.8124 53.3797 15.5231 53.1885 15.2551C52.8795 15.1521 52.7502 15.2146 52.4547 15.3366ZM24.8959 16.3151C24.8959 16.3689 24.8959 16.4227 24.8959 16.4781C24.9497 16.4512 25.0035 16.4243 25.059 16.3966C25.0052 16.3697 24.9514 16.3428 24.8959 16.3151ZM24.4067 16.5597C24.4605 16.6135 24.5143 16.6673 24.5698 16.7227C24.5698 16.6689 24.5698 16.6151 24.5698 16.5597C24.516 16.5597 24.4621 16.5597 24.4067 16.5597ZM24.2436 16.8043C24.3252 16.9673 24.3252 16.9673 24.3252 16.9673L24.2436 16.8043ZM23.999 16.9673C23.999 17.0212 23.999 17.075 23.999 17.1304C24.0797 17.1035 24.1605 17.0766 24.2436 17.0489C24.1629 17.022 24.0822 16.9951 23.999 16.9673ZM48.4595 16.9673C48.4326 17.0212 48.4057 17.075 48.3779 17.1304C48.4587 17.1035 48.5394 17.0766 48.6225 17.0489C48.5687 17.022 48.5149 16.9951 48.4595 16.9673ZM48.2149 17.375C48.188 17.4288 48.1611 17.4826 48.1333 17.5381C48.241 17.5112 48.3486 17.4843 48.4595 17.4566C48.3787 17.4296 48.298 17.4027 48.2149 17.375ZM23.5914 17.4566C23.5644 17.5104 23.5375 17.5642 23.5098 17.6196C23.5367 17.6734 23.5636 17.7272 23.5914 17.7827C23.6452 17.7827 23.699 17.7827 23.7544 17.7827C23.7275 17.6751 23.7006 17.5674 23.6729 17.4566C23.646 17.4566 23.6191 17.4566 23.5914 17.4566ZM47.8887 17.4566C47.8618 17.5373 47.8349 17.618 47.8072 17.7012C47.8879 17.7819 47.9686 17.8626 48.0518 17.9458C48.0518 17.7843 48.0518 17.6229 48.0518 17.4566C47.998 17.4566 47.9442 17.4566 47.8887 17.4566ZM47.7257 17.7827C47.6449 17.9441 47.5642 18.1056 47.4811 18.2719C47.5618 18.2988 47.6425 18.3257 47.7257 18.3534C47.8108 18.0979 47.8018 18.0281 47.7257 17.7827ZM23.1837 17.8642C23.1307 17.9752 23.1307 17.9752 23.0767 18.0884C22.9631 18.3071 22.8485 18.4889 22.6945 18.6796C22.7214 18.7334 22.7483 18.7872 22.776 18.8426C22.8567 18.8157 22.9374 18.7888 23.0206 18.7611C23.0206 18.6535 23.0206 18.5459 23.0206 18.435C23.1282 18.435 23.2359 18.435 23.3467 18.435C23.3467 18.3543 23.3467 18.2735 23.3467 18.1904C23.4006 18.1904 23.4544 18.1904 23.5098 18.1904C23.5098 18.0827 23.5098 17.9751 23.5098 17.8642C23.4022 17.8642 23.2946 17.8642 23.1837 17.8642ZM47.3995 18.3534C47.3726 18.4611 47.3457 18.5687 47.318 18.6796C47.3718 18.6527 47.4256 18.6258 47.4811 18.598C47.4541 18.5173 47.4272 18.4366 47.3995 18.3534ZM39.1645 18.5165C39.1645 18.5972 39.1645 18.6779 39.1645 18.7611C39.2183 18.7611 39.2721 18.7611 39.3276 18.7611C39.3007 18.6804 39.2738 18.5997 39.246 18.5165C39.2191 18.5165 39.1922 18.5165 39.1645 18.5165ZM47.2364 18.6796C47.2634 18.7872 47.2903 18.8948 47.318 19.0057C47.3987 18.9788 47.4794 18.9519 47.5626 18.9242C47.5895 18.978 47.6164 19.0318 47.6441 19.0872C47.6441 19.0065 47.6441 18.9258 47.6441 18.8426C47.4423 18.7619 47.4423 18.7619 47.2364 18.6796ZM23.1021 18.7611C23.0752 18.8418 23.0483 18.9225 23.0206 19.0057C23.1013 18.9788 23.182 18.9519 23.2652 18.9242C23.2114 18.8704 23.1576 18.8166 23.1021 18.7611ZM38.9199 18.7611C38.9468 18.8149 38.9737 18.8687 39.0014 18.9242C39.0552 18.8704 39.1091 18.8166 39.1645 18.7611C39.0838 18.7611 39.0031 18.7611 38.9199 18.7611ZM38.7568 19.0057C38.5773 19.3159 38.5773 19.3159 38.5122 19.658C38.5929 19.6311 38.6737 19.6042 38.7568 19.5765C38.7568 19.5226 38.7568 19.4688 38.7568 19.4134C38.8375 19.3865 38.9183 19.3596 39.0014 19.3319C39.0612 19.1676 39.0612 19.1676 39.083 19.0057C38.9753 19.0057 38.8677 19.0057 38.7568 19.0057ZM47.1549 19.0872C47.2364 19.2503 47.2364 19.2503 47.2364 19.2503L47.1549 19.0872ZM22.6945 19.3319C22.6945 19.3857 22.6945 19.4395 22.6945 19.4949C22.6137 19.468 22.533 19.4411 22.4499 19.4134C22.3961 19.521 22.3422 19.6286 22.2868 19.7395C22.4213 19.7395 22.5559 19.7395 22.6945 19.7395C22.7483 19.6319 22.8021 19.5243 22.8575 19.4134C22.8037 19.3865 22.7499 19.3596 22.6945 19.3319ZM28.8096 19.4949C28.8096 19.5487 28.8096 19.6025 28.8096 19.658C28.8634 19.6311 28.9172 19.6042 28.9726 19.5765C28.9188 19.5496 28.865 19.5226 28.8096 19.4949ZM47.2364 19.4949C47.2364 19.6295 47.2364 19.764 47.2364 19.9026C47.3172 19.795 47.3979 19.6873 47.4811 19.5765C47.4003 19.5496 47.3196 19.5226 47.2364 19.4949ZM38.7568 19.5765C38.8384 19.8211 38.8384 19.8211 38.8384 19.8211L38.7568 19.5765ZM28.4019 19.7395C28.4288 19.7933 28.4557 19.8472 28.4834 19.9026C28.5103 19.8488 28.5373 19.795 28.565 19.7395C28.5112 19.7395 28.4573 19.7395 28.4019 19.7395ZM46.9103 19.7395C46.9103 19.8472 46.9103 19.9548 46.9103 20.0657C46.991 20.0657 47.0717 20.0657 47.1549 20.0657C47.128 19.958 47.1011 19.8504 47.0734 19.7395C47.0196 19.7395 46.9657 19.7395 46.9103 19.7395ZM22.3683 19.9841C22.3031 20.2521 22.2789 20.3682 22.3683 20.6364C22.449 20.4481 22.5298 20.2597 22.6129 20.0657C22.5322 20.0388 22.4515 20.0119 22.3683 19.9841ZM38.4307 20.0657C38.3769 20.1195 38.3231 20.1733 38.2676 20.2287C38.2945 20.3095 38.3214 20.3902 38.3492 20.4733C38.4568 20.3657 38.5644 20.2581 38.6753 20.1472C38.5946 20.1203 38.5139 20.0934 38.4307 20.0657ZM47.1549 20.0657C47.1549 20.254 47.1549 20.4424 47.1549 20.6364C47.2356 20.6633 47.3163 20.6902 47.3995 20.7179C47.3787 20.5269 47.3512 20.3365 47.318 20.1472C47.2642 20.1203 47.2104 20.0934 47.1549 20.0657ZM20.8192 20.2287C20.8192 20.3364 20.8192 20.444 20.8192 20.5549C20.8999 20.528 20.9806 20.5011 21.0638 20.4733C21.0369 20.3926 21.01 20.3119 20.9822 20.2287C20.9284 20.2287 20.8746 20.2287 20.8192 20.2287ZM28.4834 20.2287C28.4834 20.2825 28.4834 20.3364 28.4834 20.3918C28.5373 20.3918 28.5911 20.3918 28.6465 20.3918C28.6465 20.338 28.6465 20.2842 28.6465 20.2287C28.5927 20.2287 28.5389 20.2287 28.4834 20.2287ZM38.4307 20.3918C38.4038 20.5532 38.3769 20.7147 38.3492 20.881C38.403 20.881 38.4568 20.881 38.5122 20.881C38.5122 20.7196 38.5122 20.5581 38.5122 20.3918C38.4853 20.3918 38.4584 20.3918 38.4307 20.3918ZM28.3204 20.7179C28.2935 20.8256 28.2666 20.9332 28.2388 21.0441C28.3196 21.0844 28.3196 21.0844 28.4019 21.1256C28.4019 20.9911 28.4019 20.8566 28.4019 20.7179C28.375 20.7179 28.3481 20.7179 28.3204 20.7179ZM37.3707 20.7179C37.4523 20.9625 37.4523 20.9625 37.4523 20.9625L37.3707 20.7179ZM45.7688 20.7995C45.7688 20.8802 45.7688 20.9609 45.7688 21.0441C45.8495 21.0172 45.9303 20.9903 46.0134 20.9625C45.9596 20.9625 45.9058 20.9625 45.8504 20.9625C45.8234 20.9087 45.7965 20.8549 45.7688 20.7995ZM45.9319 21.2072C45.9588 21.3148 45.9857 21.4224 46.0134 21.5333C46.0672 21.5064 46.121 21.4795 46.1765 21.4518C46.0958 21.371 46.0151 21.2903 45.9319 21.2072ZM27.342 21.2887C27.4235 21.4518 27.4235 21.4518 27.4235 21.4518L27.342 21.2887ZM46.258 21.6964C46.2849 21.8309 46.3118 21.9654 46.3396 22.104C46.3934 21.9964 46.4472 21.8888 46.5026 21.7779C46.4219 21.751 46.3412 21.7241 46.258 21.6964Z" fill="white"/>
<path id="Vector_3" d="M62.402 11.6674C62.6642 11.9498 62.7497 12.1668 62.7638 12.5439C62.7187 13.5159 62.2624 14.4004 61.5867 15.0919C61.2292 15.3638 60.8726 15.5987 60.4452 15.7442C60.2566 15.7136 60.2566 15.7136 60.1191 15.6626C60.1774 15.2497 60.3606 14.9791 60.5857 14.6355C60.7153 14.4286 60.7153 14.4286 60.6898 14.1135C60.5606 14.1505 60.4315 14.1879 60.3025 14.2256C60.2306 14.2464 60.1587 14.2672 60.0847 14.2887C59.7094 14.3991 59.7094 14.3991 59.461 14.6779C59.436 14.7338 59.411 14.7897 59.3852 14.8473C59.3097 14.9379 59.2315 15.0262 59.1508 15.1123C58.928 15.3649 58.7812 15.6162 58.6409 15.9213C58.5699 16.0703 58.5699 16.0703 58.4374 16.264C58.2183 16.6822 58.1622 17.1519 58.1622 17.6195C58.1502 17.7436 58.1365 17.8677 58.1215 17.9915C58.0964 18.1978 58.0807 18.3895 58.0807 18.5979C58.1823 18.5632 58.284 18.5285 58.3887 18.4928C60.1507 17.9065 61.9569 17.5077 63.7881 17.2118C63.8007 17.1336 63.8007 17.1336 63.8136 17.0538C63.8414 16.9706 63.8414 16.9706 63.8697 16.8857C63.9504 16.8588 64.0311 16.8319 64.1143 16.8041C64.1361 16.757 64.158 16.71 64.1805 16.6614C64.3419 16.3557 64.6209 16.1432 64.9296 15.9888C64.9828 15.8237 64.9828 15.8237 65.0111 15.6626C65.1188 15.6626 65.2264 15.6626 65.3373 15.6626C65.3373 15.6088 65.3373 15.555 65.3373 15.4996C65.3865 15.473 65.4357 15.4464 65.4863 15.419C65.5515 15.3834 65.6167 15.3477 65.6838 15.311C65.7481 15.276 65.8125 15.241 65.8787 15.205C66.0731 15.0956 66.0731 15.0956 66.2479 14.9591C66.4099 14.8378 66.5266 14.8039 66.7234 14.7658C66.8041 14.7389 66.8848 14.712 66.968 14.6842C67.0218 14.7111 67.0756 14.738 67.1311 14.7658C67.1311 14.712 67.1311 14.6581 67.1311 14.6027C67.6713 14.35 68.0829 14.238 68.6802 14.2766C68.6533 14.3573 68.6264 14.438 68.5987 14.5212C68.6703 14.5303 68.7418 14.5394 68.8156 14.5489C69.5548 14.695 70.1236 15.1412 70.5555 15.7442C70.7104 16.0539 70.6862 16.4036 70.5842 16.7274C70.391 17.1509 70.1059 17.4943 69.7402 17.7826C69.6864 17.7826 69.6325 17.7826 69.5771 17.7826C69.5448 17.8543 69.5448 17.8543 69.5118 17.9275C68.9991 18.8776 67.7379 19.5734 66.8151 20.0655C66.7323 20.1097 66.7323 20.1097 66.6479 20.1548C66.041 20.4666 65.4461 20.656 64.7665 20.7178C64.759 21.467 64.759 21.467 64.9704 22.1701C65.2012 22.3721 65.3753 22.4414 65.6829 22.4523C66.8162 22.3401 67.9039 21.6712 68.9046 21.1751C69.1592 21.049 69.4144 20.9244 69.6698 20.8C70.6448 20.3222 71.5947 19.8106 72.5366 19.2706C73.2172 18.8807 73.9075 18.5085 74.5975 18.1354C74.8608 17.9913 75.1215 17.8425 75.3817 17.6929C75.5291 17.6195 75.5291 17.6195 75.6922 17.6195C75.7191 17.754 75.746 17.8885 75.7737 18.0272C72.9258 20.5075 69.2665 22.7452 65.4507 23.1237C65.1798 23.152 65.1798 23.152 64.9624 23.2489C64.7307 23.3412 64.5513 23.3459 64.3028 23.3422C64.2251 23.3417 64.1475 23.3412 64.0674 23.3406C63.8697 23.3269 63.8697 23.3269 63.7066 23.2454C63.7335 23.0839 63.7604 22.9225 63.7881 22.7562C63.7074 22.7831 63.6267 22.81 63.5435 22.8377C63.3769 22.7622 63.3769 22.7622 63.2021 22.6492C63.1438 22.6125 63.0854 22.5758 63.0253 22.538C62.9811 22.5024 62.9368 22.4667 62.8912 22.43C62.8912 22.3762 62.8912 22.3224 62.8912 22.267C62.8374 22.267 62.7836 22.267 62.7282 22.267C62.7282 22.1862 62.7282 22.1055 62.7282 22.0224C62.6475 21.9955 62.5667 21.9685 62.4836 21.9408C62.5105 21.8601 62.5374 21.7794 62.5651 21.6962C62.6189 21.7231 62.6727 21.75 62.7282 21.7778C62.7282 21.7239 62.7282 21.6701 62.7282 21.6147C62.6744 21.6147 62.6205 21.6147 62.5651 21.6147C62.5382 21.534 62.5113 21.4532 62.4836 21.3701C62.4163 21.3146 62.349 21.2591 62.2797 21.2019C62.0399 20.9201 61.9874 20.7616 61.9673 20.398C62.0544 19.5908 62.4728 18.7916 62.8912 18.1087C62.1948 18.2299 61.5202 18.4201 60.8427 18.6183C60.759 18.6426 60.759 18.6426 60.6735 18.6674C59.9279 18.8844 59.1935 19.1167 58.4721 19.4056C58.2867 19.478 58.1117 19.5348 57.9176 19.5763C57.9028 19.6356 57.888 19.6949 57.8727 19.7559C57.8295 19.9287 57.7862 20.1014 57.7428 20.2741C57.6978 20.455 57.6538 20.6361 57.6109 20.8175C57.5026 21.2707 57.3822 21.6824 57.1838 22.1039C57.143 22.2058 57.1022 22.3077 57.0615 22.4097C56.9514 22.6482 56.8766 22.7452 56.6946 22.9192C56.5975 23.1312 56.5975 23.1312 56.5315 23.3269C56.4777 23.3269 56.4239 23.3269 56.3685 23.3269C56.3507 23.371 56.3329 23.415 56.3146 23.4604C56.1677 23.7195 55.9714 23.9182 55.762 24.127C55.6971 24.1918 55.6971 24.1918 55.6308 24.2579C55.2361 24.6406 54.8139 24.9396 54.3301 25.2022C54.2773 25.2314 54.2246 25.2607 54.1702 25.2908C53.8018 25.4725 53.5078 25.4914 53.1071 25.4468C52.8088 25.3005 52.6536 25.1703 52.4599 24.9016C52.2365 24.2051 52.5437 23.5421 52.8625 22.9192C53.3296 22.1093 54.122 20.9849 54.9824 20.5547C55.2247 19.8731 55.3047 19.1429 55.3493 18.4246C55.3903 17.7728 55.4981 17.1754 55.7162 16.5595C55.7554 16.422 55.7945 16.2844 55.8334 16.1468C55.9224 15.8442 56.0355 15.6035 56.2054 15.3365C56.2054 15.2558 56.2054 15.1751 56.2054 15.0919C56.5179 14.3477 56.9278 13.7774 57.516 13.2287C57.6778 13.0482 57.706 12.9569 57.7545 12.7274C57.9584 12.5949 57.9584 12.5949 58.1622 12.4828C58.1891 12.429 58.216 12.3752 58.2438 12.3197C58.2976 12.3197 58.3514 12.3197 58.4068 12.3197C58.4068 12.2659 58.4068 12.2121 58.4068 12.1567C59.5787 11.5431 61.1817 10.7268 62.402 11.6674ZM57.2653 16.8041C57.3469 16.9672 57.3469 16.9672 57.3469 16.9672L57.2653 16.8041ZM68.4509 17.0844C68.1754 17.1707 67.9042 17.2408 67.6203 17.2933C67.6203 17.3472 67.6203 17.401 67.6203 17.4564C67.5597 17.4665 67.4992 17.4766 67.4368 17.487C67.2229 17.5356 67.0676 17.5781 66.8864 17.701C66.8208 17.8682 66.8208 17.8682 66.8049 18.0272C66.6166 18.0541 66.4282 18.081 66.2342 18.1087C66.2342 18.1894 66.2342 18.2701 66.2342 18.3533C66.1753 18.3684 66.1165 18.3836 66.0558 18.3992C65.7772 18.5416 65.6749 18.7011 65.5096 18.96C65.4188 19.0871 65.4188 19.0871 65.2557 19.1686C65.1821 19.3221 65.1821 19.3221 65.1233 19.4999C65.102 19.5597 65.0808 19.6195 65.0589 19.6811C65.0432 19.7272 65.0274 19.7734 65.0111 19.8209C65.49 19.7815 65.8313 19.6393 66.2495 19.4082C66.3101 19.3752 66.3707 19.3423 66.4331 19.3083C67.4063 18.7717 68.4474 18.1468 69.0879 17.2118C69.0475 17.0907 69.0475 17.0907 69.0064 16.9672C68.803 16.9672 68.6451 17.0236 68.4509 17.0844ZM57.0207 17.2118C57.1023 17.3749 57.1023 17.3749 57.1023 17.3749L57.0207 17.2118ZM56.9392 17.701C56.9123 17.7548 56.8854 17.8086 56.8577 17.8641C56.9115 17.8641 56.9653 17.8641 57.0207 17.8641C56.9938 17.8103 56.9669 17.7565 56.9392 17.701ZM57.1023 18.0272C57.1023 18.2718 57.1023 18.2718 57.1023 18.2718V18.0272ZM56.8577 18.1087C56.9392 18.2718 56.9392 18.2718 56.9392 18.2718L56.8577 18.1087ZM64.685 18.1087C64.6581 18.1625 64.6312 18.2163 64.6035 18.2718C64.6842 18.2718 64.7649 18.2718 64.8481 18.2718C64.8481 18.2179 64.8481 18.1641 64.8481 18.1087C64.7943 18.1087 64.7404 18.1087 64.685 18.1087ZM56.7761 18.4348C56.803 18.4886 56.8299 18.5425 56.8577 18.5979C56.9384 18.5441 57.0191 18.4903 57.1023 18.4348C56.9946 18.4348 56.887 18.4348 56.7761 18.4348ZM64.3589 18.4348C64.3589 18.5156 64.3589 18.5963 64.3589 18.6794C64.4665 18.6794 64.5741 18.6794 64.685 18.6794C64.6581 18.6256 64.6312 18.5718 64.6035 18.5164C64.5228 18.4895 64.442 18.4626 64.3589 18.4348ZM56.7761 18.6794C56.7492 18.8409 56.7223 19.0023 56.6946 19.1686C56.8022 19.1417 56.9098 19.1148 57.0207 19.0871C56.9669 18.9526 56.9131 18.818 56.8577 18.6794C56.8308 18.6794 56.8039 18.6794 56.7761 18.6794ZM64.3589 18.8425C64.2243 18.8963 64.0898 18.9501 63.9512 19.0056C63.9781 19.1401 64.005 19.2746 64.0327 19.4132C64.0865 19.4132 64.1404 19.4132 64.1958 19.4132C64.2059 19.3611 64.216 19.309 64.2264 19.2553C64.2432 19.1998 64.26 19.1443 64.2773 19.0871C64.3311 19.0602 64.385 19.0333 64.4404 19.0056C64.4135 18.9518 64.3866 18.8979 64.3589 18.8425ZM63.8697 19.3317C63.8158 19.4932 63.762 19.6546 63.7066 19.8209C63.7873 19.8209 63.868 19.8209 63.9512 19.8209C63.9512 19.6595 63.9512 19.498 63.9512 19.3317C63.9243 19.3317 63.8974 19.3317 63.8697 19.3317ZM63.0543 19.6579C63.0543 19.7117 63.0543 19.7655 63.0543 19.8209C63.1081 19.8209 63.1619 19.8209 63.2174 19.8209C63.2174 19.7671 63.2174 19.7133 63.2174 19.6579C63.1636 19.6579 63.1098 19.6579 63.0543 19.6579ZM64.1143 19.7394C64.0874 19.8201 64.0604 19.9008 64.0327 19.984C64.0865 19.984 64.1404 19.984 64.1958 19.984C64.1689 19.9033 64.142 19.8226 64.1143 19.7394ZM63.6251 20.5547C63.6251 20.6624 63.6251 20.77 63.6251 20.8809C63.6789 20.8809 63.7327 20.8809 63.7881 20.8809C63.7881 20.7732 63.7881 20.6656 63.7881 20.5547C63.7343 20.5547 63.6805 20.5547 63.6251 20.5547ZM56.5315 20.6363C56.5046 20.7708 56.4777 20.9053 56.45 21.0439C56.5307 20.9901 56.6114 20.9363 56.6946 20.8809C56.6408 20.8002 56.587 20.7194 56.5315 20.6363ZM56.7761 20.6363C56.8577 20.7993 56.8577 20.7993 56.8577 20.7993L56.7761 20.6363ZM63.8697 20.8809C63.8697 21.0154 63.8697 21.1499 63.8697 21.2885C63.9504 21.2885 64.0311 21.2885 64.1143 21.2885C64.0859 21.1275 64.0859 21.1275 64.0327 20.9624C63.9789 20.9355 63.9251 20.9086 63.8697 20.8809ZM56.6946 21.0439C56.6677 21.2323 56.6408 21.4206 56.6131 21.6147C56.6669 21.6147 56.7207 21.6147 56.7761 21.6147C56.803 21.4263 56.8299 21.238 56.8577 21.0439C56.8039 21.0439 56.75 21.0439 56.6946 21.0439ZM55.0639 21.4516C54.1035 22.2664 53.3066 23.0776 53.179 24.3735C53.1749 24.5744 53.1749 24.5744 53.3517 24.7945C53.8298 24.7924 54.1779 24.7313 54.5282 24.3916C54.9646 23.8195 55.1282 23.1381 55.1454 22.43C55.2262 22.4031 55.3069 22.3762 55.39 22.3485C55.39 22.2947 55.39 22.2409 55.39 22.1854C55.3093 22.1854 55.2286 22.1854 55.1454 22.1854C55.1454 22.1047 55.1454 22.024 55.1454 21.9408C55.2262 21.9408 55.3069 21.9408 55.39 21.9408C55.39 21.8601 55.39 21.7794 55.39 21.6962C55.3093 21.6962 55.2286 21.6962 55.1454 21.6962C55.1185 21.6155 55.0916 21.5348 55.0639 21.4516ZM55.3085 21.4516C55.39 21.6147 55.39 21.6147 55.39 21.6147L55.3085 21.4516ZM56.3685 21.8593C56.45 22.0224 56.45 22.0224 56.45 22.0224L56.3685 21.8593ZM62.8097 21.9408C62.8366 22.0215 62.8635 22.1023 62.8912 22.1854C62.9451 22.1854 62.9989 22.1854 63.0543 22.1854C63.0543 22.1047 63.0543 22.024 63.0543 21.9408C62.9736 21.9408 62.8929 21.9408 62.8097 21.9408ZM63.2174 22.3485C63.2443 22.4292 63.2712 22.5099 63.2989 22.5931C63.3796 22.5662 63.4604 22.5393 63.5435 22.5116C63.4359 22.4578 63.3283 22.4039 63.2174 22.3485Z" fill="white"/>
<path id="Vector_4" d="M71.9414 9.71068C72.2702 10.032 72.5108 10.3923 72.5937 10.8522C72.5889 11.0965 72.5889 11.0965 72.5121 11.3414C72.301 11.5175 72.301 11.5175 72.028 11.6726C71.98 11.7 71.932 11.7275 71.8825 11.7558C71.7399 11.8365 71.596 11.9151 71.4522 11.9937C71.3447 12.0577 71.3447 12.0577 71.235 12.123C70.7808 12.3789 70.3955 12.4461 69.8766 12.4679C69.6484 12.4733 69.6484 12.4733 69.4087 12.5746C68.6746 12.7933 67.949 12.4812 67.2939 12.1567C67.2132 12.1029 67.1325 12.0491 67.0493 11.9937C67.1342 11.7338 67.2121 11.6677 67.4528 11.5274C67.5542 11.4785 67.6558 11.4301 67.7577 11.3821C68.2419 11.1407 68.6565 10.8616 69.0724 10.5158C69.934 9.79998 70.8111 9.08272 71.9414 9.71068Z" fill="white"/>
<path id="Vector_5" d="M9.56738 22.5117C9.6212 22.5117 9.67501 22.5117 9.73045 22.5117C9.70355 22.5924 9.67664 22.6732 9.64892 22.7563C9.62201 22.6756 9.5951 22.5949 9.56738 22.5117Z" fill="white"/>
<path id="Vector_6" d="M8.1814 24.1426C8.26212 24.1829 8.26212 24.1829 8.34447 24.2241C8.26375 24.2645 8.26375 24.2645 8.1814 24.3056C8.1814 24.2518 8.1814 24.198 8.1814 24.1426Z" fill="white"/>
</g>
</svg>
