<svg width="25" height="24" viewBox="0 0 25 24" fill="none" xmlns="http://www.w3.org/2000/svg">
<g id="fluent:call-20-filled">
<path id="Vector" d="M9.05093 2.47912C9.57603 2.3208 10.1395 2.34711 10.6476 2.55365C11.1556 2.7602 11.5776 3.13453 11.8433 3.61432L11.9321 3.79312L12.7265 5.55832C12.9676 6.09411 13.0459 6.68894 12.9516 7.26885C12.8573 7.84876 12.5946 8.38814 12.1961 8.81992L12.0365 8.97832L10.7849 10.1459C10.5593 10.3595 10.7285 11.1863 11.5445 12.5999C12.2789 13.8719 12.8765 14.4659 13.1705 14.4983H13.2221L13.2857 14.4863L15.7457 13.7339C16.0763 13.6325 16.4292 13.6285 16.762 13.7224C17.0948 13.8162 17.3936 14.004 17.6225 14.2631L17.7317 14.4011L19.3601 16.6571C19.6793 17.0993 19.8383 17.637 19.811 18.1817C19.7838 18.7263 19.5718 19.2454 19.2101 19.6535L19.0637 19.8047L18.4133 20.4215C17.8293 20.9746 17.0987 21.3484 16.3084 21.4984C15.5181 21.6483 14.7014 21.5682 13.9553 21.2675C11.6333 20.3315 9.52373 18.1931 7.60733 14.8739C5.68733 11.5463 4.88933 8.64592 5.24573 6.16192C5.35358 5.41104 5.66278 4.70339 6.14049 4.11412C6.61821 3.52485 7.2466 3.07596 7.95893 2.81512L8.19053 2.73832L9.05093 2.47912V2.47912Z" fill="white"/>
</g>
</svg>
