<svg width="32" height="32" viewBox="0 0 32 32" fill="none" xmlns="http://www.w3.org/2000/svg">
<g id="&#240;&#159;&#166;&#134; icon &#34;Instagram icon&#34;">
<path id="Vector" d="M16 32C24.8366 32 32 24.8366 32 16C32 7.16344 24.8366 0 16 0C7.16344 0 0 7.16344 0 16C0 24.8366 7.16344 32 16 32Z" fill="#C54C3D"/>
<path id="Vector_2" d="M15.9998 8C13.8279 8 13.5561 8.00937 12.7029 8.04688C11.8498 8.0875 11.2717 8.22187 10.7623 8.41875C10.2373 8.62187 9.79043 8.89687 9.34355 9.34062C8.89668 9.78437 8.6248 10.2312 8.42168 10.7594C8.2248 11.2687 8.09043 11.85 8.0498 12.7C8.00918 13.5531 8.00293 13.825 8.00293 15.9969C8.00293 18.1687 8.0123 18.4406 8.0498 19.2938C8.09043 20.1438 8.2248 20.725 8.42168 21.2344C8.6248 21.7594 8.8998 22.2063 9.34355 22.6531C9.7873 23.0969 10.2342 23.3719 10.7623 23.575C11.2717 23.7719 11.8529 23.9062 12.7029 23.9469C13.5561 23.9875 13.8279 23.9937 15.9998 23.9937C18.1717 23.9937 18.4436 23.9844 19.2967 23.9469C20.1467 23.9062 20.7279 23.7719 21.2373 23.575C21.7623 23.3719 22.2092 23.0969 22.6561 22.6531C23.0998 22.2094 23.3748 21.7625 23.5779 21.2344C23.7748 20.725 23.9092 20.1438 23.9498 19.2938C23.9904 18.4406 23.9967 18.1687 23.9967 15.9969C23.9967 13.825 23.9873 13.5531 23.9498 12.7C23.9092 11.85 23.7748 11.2687 23.5779 10.7594C23.3748 10.2344 23.0998 9.7875 22.6561 9.34062C22.2123 8.89687 21.7654 8.62187 21.2373 8.41875C20.7279 8.22187 20.1467 8.0875 19.2967 8.04688C18.4436 8.00937 18.1717 8 15.9998 8ZM15.9998 9.44063C18.1342 9.44063 18.3904 9.45 19.2342 9.4875C20.0154 9.525 20.4373 9.65313 20.7186 9.76562C21.0936 9.90937 21.3592 10.0844 21.6404 10.3625C21.9186 10.6438 22.0936 10.9094 22.2373 11.2844C22.3467 11.5656 22.4779 11.9875 22.5123 12.7688C22.5498 13.6125 22.5592 13.8656 22.5592 16.0031C22.5592 18.1406 22.5498 18.3937 22.5092 19.2375C22.4686 20.0187 22.3373 20.4406 22.2279 20.7219C22.0779 21.0969 21.9092 21.3625 21.6279 21.6437C21.3498 21.9219 21.0779 22.0969 20.7092 22.2406C20.4279 22.35 19.9998 22.4812 19.2186 22.5156C18.3686 22.5531 18.1186 22.5625 15.9779 22.5625C13.8373 22.5625 13.5873 22.5531 12.7373 22.5125C11.9561 22.4719 11.5279 22.3406 11.2467 22.2313C10.8686 22.0813 10.6061 21.9125 10.3279 21.6313C10.0467 21.3531 9.86855 21.0812 9.72793 20.7125C9.61855 20.4312 9.4873 20.0031 9.44668 19.2219C9.41543 18.3812 9.40605 18.1219 9.40605 15.9937C9.40605 13.8625 9.41543 13.6031 9.44668 12.7531C9.4873 11.9719 9.61543 11.5437 9.72793 11.2625C9.86855 10.8812 10.0467 10.6219 10.3279 10.3406C10.6061 10.0625 10.8686 9.88125 11.2467 9.74063C11.5279 9.63125 11.9467 9.5 12.7279 9.45938C13.5779 9.42813 13.8279 9.41875 15.9686 9.41875L15.9998 9.44063ZM15.9998 11.8906C13.7311 11.8906 11.8904 13.7313 11.8904 16C11.8904 18.2687 13.7311 20.1094 15.9998 20.1094C18.2686 20.1094 20.1092 18.2687 20.1092 16C20.1092 13.7313 18.2686 11.8906 15.9998 11.8906ZM15.9998 18.6656C14.5279 18.6656 13.3342 17.4719 13.3342 16C13.3342 14.5281 14.5279 13.3344 15.9998 13.3344C17.4717 13.3344 18.6654 14.5281 18.6654 16C18.6654 17.4719 17.4717 18.6656 15.9998 18.6656ZM21.2311 11.7312C21.2311 12.2625 20.7998 12.6906 20.2717 12.6906C19.7404 12.6906 19.3123 12.2594 19.3123 11.7312C19.3123 11.2031 19.7436 10.7719 20.2717 10.7719C20.7998 10.7688 21.2311 11.2 21.2311 11.7312Z" fill="white"/>
</g>
</svg>
