<svg width="96" height="40" viewBox="0 0 96 40" fill="none" xmlns="http://www.w3.org/2000/svg">
<g id="Logo">
<path id="Vector" d="M33.4679 0.745372C34.2185 1.08199 34.7855 1.50652 35.1374 2.26174C35.2298 2.68963 35.1313 2.82979 34.9008 3.19523C34.8395 3.29536 34.7783 3.39549 34.7153 3.49866C34.5477 3.73594 34.3842 3.93993 34.1915 4.1543C33.8404 4.55537 33.5999 4.99593 33.3528 5.46598C33.0814 5.97774 32.8149 6.43773 32.4445 6.886C32.3508 7.05003 32.2614 7.21651 32.1759 7.38492C31.7732 8.14114 31.2888 8.83984 30.807 9.54693C30.2135 10.4221 29.6464 11.3135 29.1267 12.2347C28.391 13.5314 28.391 13.5314 27.8902 14.0437C27.4045 14.5439 27.1073 15.1088 26.7824 15.719C26.4801 16.2833 26.1521 16.7906 25.7606 17.2983C25.5806 17.5287 25.5806 17.5287 25.4368 17.7964C25.2721 18.0546 25.1141 18.1684 24.8711 18.3485C24.7218 18.5641 24.7218 18.5641 24.6024 18.8026C24.561 18.8806 24.5196 18.9586 24.4769 19.0389C24.4033 19.1834 24.3329 19.3296 24.2674 19.4779C24.1281 19.7263 23.9494 19.8903 23.7453 20.0883C23.6214 20.2421 23.4998 20.3978 23.3807 20.5553C23.2165 20.7721 23.0595 20.9792 22.8658 21.1701C22.6705 21.3687 22.5525 21.6031 22.4188 21.8454C22.2617 22.1224 22.081 22.3829 21.9031 22.6469C21.837 22.7667 21.837 22.7667 21.7696 22.8888C21.571 23.1976 21.3435 23.4237 21.078 23.6768C20.6512 24.0832 20.6512 24.0832 20.3679 24.5915C20.3004 24.5915 20.2328 24.5915 20.1633 24.5915C20.1268 24.7013 20.1268 24.7013 20.0897 24.8133C19.9373 25.1503 19.7469 25.3741 19.498 25.6469C19.4168 25.7373 19.3355 25.8276 19.2518 25.9207C19.0375 26.1266 19.0375 26.1266 18.8328 26.1266C18.8071 26.1873 18.7813 26.248 18.7548 26.3105C18.5748 26.6308 18.3176 26.8064 18.0312 27.0301C17.832 27.2297 17.7173 27.3927 17.5755 27.6322C17.2809 28.1219 16.9118 28.5176 16.5173 28.9283C16.4489 29.001 16.3806 29.0737 16.3102 29.1486C16.0339 29.4397 15.7909 29.6897 15.4554 29.9133C16.9517 30.5184 18.4557 31.1007 19.965 31.6724C20.0766 31.7147 20.1883 31.757 20.3033 31.8006C20.975 32.0552 21.6468 32.3092 22.3187 32.563C22.5915 32.666 22.8642 32.7693 23.1368 32.8726C31.6328 36.0901 40.4003 38.9644 51.8898 38.1008C52.011 38.0827 52.1322 38.0646 52.2571 38.046C55.7322 37.5122 58.4126 36.6112 60.5962 33.7272C60.84 33.4411 61.0484 33.3805 61.4078 33.2907C61.7109 33.5181 61.8842 33.6632 61.9787 34.0355C62.013 34.5412 61.9464 34.862 61.6189 35.2544C61.4839 35.3883 61.3452 35.5184 61.2031 35.6446C61.1363 35.7055 61.0696 35.7665 61.0008 35.8293C59.0618 37.4633 56.2783 38.0423 53.8829 38.6675C53.5007 38.7679 53.1223 38.8764 52.7449 38.994C52.4057 39.0979 52.0926 39.1644 51.7363 39.1818C51.3842 39.2002 51.0595 39.2512 50.7168 39.3295C50.1271 39.4486 49.5577 39.4591 48.9578 39.4549C48.846 39.4549 48.7342 39.4548 48.619 39.4548C48.3831 39.4544 48.1473 39.4536 47.9115 39.4524C47.5576 39.4505 47.2037 39.4503 46.8498 39.4503C45.7975 39.4487 44.7467 39.4375 43.6955 39.3865C43.5771 39.3809 43.5771 39.3809 43.4563 39.3751C42.72 39.3345 41.9909 39.2428 41.2633 39.1243C41.1648 39.1083 41.0663 39.0924 40.9648 39.0759C40.8001 39.0492 40.8001 39.0492 40.632 39.0219C40.5033 39.0018 40.3746 38.9816 40.2421 38.9608C35.5038 38.2167 30.9346 36.9021 26.4062 35.3376C26.2933 35.2987 26.1803 35.2599 26.064 35.2199C23.9843 34.5008 21.9416 33.6799 19.8944 32.8744C19.5353 32.7333 19.176 32.5926 18.8168 32.4519C18.5727 32.3563 18.3285 32.2606 18.0844 32.1649C17.971 32.1205 17.8577 32.0761 17.7409 32.0303C17.2161 31.8242 16.6925 31.6159 16.1706 31.4025C16.0752 31.3637 15.9798 31.3248 15.8815 31.2848C15.7063 31.2132 15.5313 31.141 15.3566 31.0681C15.2805 31.037 15.2044 31.006 15.126 30.974C15.028 30.9333 15.028 30.9333 14.9279 30.8917C14.7066 30.8146 14.7066 30.8146 14.3297 30.8344C14.1384 31.0024 14.1384 31.0024 13.9715 31.2246C13.5896 31.7011 13.2582 31.9416 12.6922 32.1649C12.5236 32.2678 12.3574 32.3748 12.1932 32.4847C10.9912 33.2597 9.494 34.2199 8.04791 34.3689C7.92561 34.3846 7.80332 34.4003 7.67732 34.4165C7.64354 34.484 7.60977 34.5516 7.57497 34.6212C7.50037 34.5717 7.50037 34.5717 7.42425 34.5212C7.05654 34.3723 6.69305 34.3862 6.30207 34.3781C4.52031 34.3041 2.76023 33.6201 1.5283 32.3076C1.04138 31.6997 0.876821 31.1944 0.888247 30.4243C0.964739 29.7429 1.16027 29.0118 1.60745 28.4789C1.8143 28.3148 2.01905 28.1934 2.2531 28.0712C2.34637 28.018 2.43964 27.9648 2.53574 27.91C4.5943 26.7987 6.75556 27.0268 8.92623 27.6718C9.85219 27.9526 10.7746 28.2452 11.6887 28.5625C12.0685 28.6822 12.2212 28.7021 12.5898 28.5829C12.7945 28.5829 12.9992 28.5829 13.2039 28.5829C13.2355 28.5174 13.2672 28.452 13.2998 28.3846C13.4086 28.1735 13.4086 28.1735 13.5109 28.0712C13.4096 28.0374 13.3083 28.0036 13.2039 27.9688C13.2039 27.9013 13.2039 27.8337 13.2039 27.7641C13.3052 27.7303 13.4065 27.6966 13.5109 27.6618C13.6457 27.4615 13.6457 27.4615 13.7604 27.2204C13.9511 26.8589 14.1381 26.6163 14.432 26.3313C14.5926 26.1035 14.745 25.8715 14.8961 25.6373C15.0415 25.4171 15.1835 25.2031 15.3531 25.0008C15.4206 25.0008 15.4882 25.0008 15.5578 25.0008C15.5916 24.8995 15.6253 24.7982 15.6601 24.6938C15.7277 24.6453 15.7952 24.5967 15.8648 24.5467C16.0994 24.3634 16.1321 24.2659 16.1718 23.9774C16.3069 23.9436 16.442 23.9099 16.5812 23.8751C16.5812 23.8075 16.5812 23.74 16.5812 23.6704C16.7177 23.5339 16.8541 23.3975 16.9906 23.261C17.0391 23.1787 17.0877 23.0964 17.1377 23.0115C17.3241 22.7059 17.5569 22.49 17.8093 22.2376C17.8807 22.1027 17.9495 21.9664 18.014 21.8282C18.1148 21.7242 18.2174 21.6221 18.3211 21.5212C18.7007 21.1149 19.0452 20.7048 19.3445 20.2355C19.5916 19.8507 19.869 19.5564 20.1992 19.2428C20.4242 19.0056 20.5735 18.7439 20.7369 18.4624C20.9613 18.1224 21.2439 17.8391 21.5273 17.5477C21.7181 17.3359 21.7181 17.3359 21.7416 17.0608C21.8008 16.8133 21.8008 16.8133 22.039 16.6598C22.1293 16.6092 22.2195 16.5585 22.3125 16.5063C22.5207 16.2656 22.5207 16.2656 22.6963 15.9946C22.7569 15.9059 22.8176 15.8173 22.8802 15.7259C23.042 15.4819 23.042 15.4819 23.1312 15.1758C23.3423 15.1055 23.3423 15.1055 23.5406 15.0735C23.5485 15.0198 23.5564 14.9661 23.5646 14.9108C23.6743 14.5653 23.8761 14.2897 24.0779 13.9925C24.4354 13.455 24.7259 12.9232 24.9662 12.3214C25.0758 12.1055 25.0758 12.1055 25.3828 11.9008C25.4166 11.7995 25.4503 11.6982 25.4851 11.5938C25.5527 11.5938 25.6202 11.5938 25.6898 11.5938C25.7056 11.426 25.7056 11.426 25.7218 11.2548C25.7922 10.8774 25.7922 10.8774 25.9393 10.6791C26.0992 10.5704 26.0992 10.5704 26.3039 10.5704C26.3119 10.4998 26.32 10.4292 26.3283 10.3565C26.4264 9.9816 26.6185 9.70217 26.8348 9.38702C27.1373 8.93388 27.4073 8.48646 27.6407 7.99259C27.9705 7.30555 28.3894 6.6376 28.9348 6.09963C29.0842 5.97035 29.0842 5.97035 29.1183 5.76022C29.1815 5.50765 29.2911 5.4265 29.4765 5.2485C29.5469 5.11312 29.6147 4.97644 29.6812 4.83912C29.7724 4.67255 29.8642 4.50626 29.9563 4.3402C30.1981 3.90043 30.4221 3.45506 30.6407 3.00333C31.9727 0.330406 31.9727 0.330406 33.4679 0.745372ZM25.3828 15.6876C25.2815 15.7551 25.1801 15.8227 25.0758 15.8922C25.0758 15.9598 25.0758 16.0273 25.0758 16.0969C25.2108 16.0294 25.3459 15.9618 25.4851 15.8922C25.4514 15.8247 25.4176 15.7572 25.3828 15.6876ZM24.7687 16.1993C24.7349 16.4019 24.7012 16.6046 24.6664 16.8133C24.7677 16.6782 24.869 16.5432 24.9734 16.404C24.9059 16.3364 24.8383 16.2689 24.7687 16.1993ZM24.4617 16.8133C24.4617 16.8809 24.4617 16.9484 24.4617 17.018C24.5292 16.9843 24.5968 16.9505 24.6664 16.9157C24.5988 16.8819 24.5313 16.8481 24.4617 16.8133ZM24.1547 17.018C24.0533 17.17 24.0533 17.17 23.95 17.3251C24.1188 17.3251 24.2877 17.3251 24.4617 17.3251C24.4279 17.2237 24.3941 17.1224 24.3593 17.018C24.2918 17.018 24.2243 17.018 24.1547 17.018ZM23.3359 18.0415C23.3697 18.109 23.4035 18.1766 23.4383 18.2462C23.472 18.1786 23.5058 18.1111 23.5406 18.0415C23.4731 18.0415 23.4055 18.0415 23.3359 18.0415ZM23.1312 18.3485C23.1207 18.4139 23.1101 18.4794 23.0992 18.5468C23.076 18.6164 23.0528 18.6861 23.0289 18.7579C22.9276 18.7916 22.8262 18.8254 22.7218 18.8602C22.7556 18.9278 22.7894 18.9953 22.8242 19.0649C22.9931 18.896 23.1619 18.7272 23.3359 18.5532C23.2684 18.4856 23.2008 18.4181 23.1312 18.3485ZM22.8242 19.1672C22.8242 19.4743 22.8242 19.4743 22.8242 19.4743V19.1672ZM22.1078 19.679C22.0951 19.7423 22.0825 19.8056 22.0694 19.8709C22.0054 20.0883 22.0054 20.0883 21.8008 20.293C22.203 20.2342 22.203 20.2342 22.5172 19.986C22.4834 19.8847 22.4496 19.7834 22.4148 19.679C22.3135 19.679 22.2122 19.679 22.1078 19.679ZM21.1867 20.7024C21.2205 20.8037 21.2542 20.905 21.289 21.0094C21.3904 21.0094 21.4917 21.0094 21.5961 21.0094C21.6636 20.8068 21.7312 20.6042 21.8008 20.3954C21.5181 20.3954 21.4023 20.5299 21.1867 20.7024ZM21.1867 21.1118C21.1529 21.2469 21.1191 21.382 21.0843 21.5212C21.1857 21.4198 21.287 21.3185 21.3914 21.2141C21.3238 21.1803 21.2563 21.1466 21.1867 21.1118ZM20.7773 21.4188C20.1682 21.8191 19.7997 22.4498 19.6515 23.1587C19.7529 23.1587 19.8542 23.1587 19.9586 23.1587C19.9586 23.0236 19.9586 22.8885 19.9586 22.7493C20.0599 22.7155 20.1612 22.6817 20.2656 22.6469C20.4068 22.4635 20.4068 22.4635 20.5279 22.244C20.669 22.0016 20.7824 21.8231 20.982 21.6235C20.9145 21.556 20.8469 21.4884 20.7773 21.4188ZM19.3893 22.9859C19.209 23.1598 19.209 23.1598 19.2422 23.4657C19.1746 23.4657 19.1071 23.4657 19.0375 23.4657C19.0037 23.6008 18.9699 23.7359 18.9351 23.8751C19.104 23.8413 19.2729 23.8075 19.4468 23.7727C19.5144 23.4688 19.5819 23.1648 19.6515 22.8516C19.5274 22.8407 19.5274 22.8407 19.3893 22.9859ZM18.5258 24.1565C18.3398 24.3657 18.2257 24.541 18.1164 24.7962C18.4216 24.74 18.4216 24.74 18.7304 24.5915C18.879 24.2826 18.879 24.2826 18.9351 23.9774C18.7108 23.9549 18.7108 23.9549 18.5258 24.1565ZM17.5023 24.2844C17.4348 24.4195 17.3672 24.5546 17.2976 24.6938C17.3989 24.6263 17.5003 24.5587 17.6047 24.4891C17.5709 24.4216 17.5371 24.354 17.5023 24.2844ZM19.0375 24.3868C19.0375 24.4881 19.0375 24.5894 19.0375 24.6938C19.105 24.5925 19.1726 24.4912 19.2422 24.3868C19.1746 24.3868 19.1071 24.3868 19.0375 24.3868ZM17.0929 24.6938C17.0592 24.7614 17.0254 24.8289 16.9906 24.8985C17.0919 24.8647 17.1932 24.831 17.2976 24.7962C17.2301 24.7624 17.1625 24.7286 17.0929 24.6938ZM18.8328 24.6938C18.799 24.7614 18.7652 24.8289 18.7304 24.8985C18.798 24.8985 18.8655 24.8985 18.9351 24.8985C18.9014 24.831 18.8676 24.7634 18.8328 24.6938ZM18.2187 24.8985C18.2187 25.2055 18.2187 25.2055 18.2187 25.2055V24.8985ZM17.9117 25.0008C17.8104 25.1528 17.8104 25.1528 17.707 25.3079C17.8421 25.2741 17.9772 25.2403 18.1164 25.2055C18.0488 25.138 17.9813 25.0704 17.9117 25.0008ZM17.1953 26.3313C17.1953 26.3989 17.1953 26.4664 17.1953 26.536C17.2966 26.5022 17.3979 26.4685 17.5023 26.4337C17.401 26.3999 17.2997 26.3661 17.1953 26.3313ZM16.4789 26.7407C16.4535 26.8209 16.4282 26.9011 16.4021 26.9838C16.2584 27.2855 16.1712 27.3448 15.8648 27.4571C15.8648 27.5584 15.8648 27.6597 15.8648 27.7641C15.9118 27.7296 15.9587 27.695 16.0071 27.6594C16.6309 27.206 16.6309 27.206 16.9906 27.0477C16.9568 26.9802 16.9231 26.9126 16.8883 26.843C16.7869 26.8937 16.7869 26.8937 16.6836 26.9454C16.6836 26.8778 16.6836 26.8103 16.6836 26.7407C16.616 26.7407 16.5485 26.7407 16.4789 26.7407ZM15.7625 27.9688C15.7625 28.0364 15.7625 28.1039 15.7625 28.1735C15.6612 28.2073 15.5598 28.241 15.4554 28.2758C15.4407 28.3413 15.4259 28.4067 15.4107 28.4741C15.3917 28.5438 15.3727 28.6134 15.3531 28.6852C15.2184 28.7568 15.0819 28.8252 14.9437 28.8899C14.9099 28.9912 14.8762 29.0925 14.8414 29.1969C14.7738 29.1969 14.7063 29.1969 14.6367 29.1969C14.6705 29.2983 14.7042 29.3996 14.739 29.504C15.2304 29.1009 15.6553 28.7322 15.9672 28.1735C15.9672 28.106 15.9672 28.0384 15.9672 27.9688C15.8996 27.9688 15.8321 27.9688 15.7625 27.9688ZM2.21472 29.1394C1.86682 29.688 1.62106 30.1757 1.63903 30.8344C1.87618 31.6644 2.44738 32.2595 3.16779 32.715C4.23509 33.3039 5.42455 33.361 6.59631 33.0348C7.61515 32.6836 8.6361 32.1672 9.44674 31.4517C9.68204 31.3099 9.86415 31.3278 10.1336 31.3462C10.1842 31.1942 10.1842 31.1942 10.2359 31.0391C10.4342 30.9304 10.4342 30.9304 10.6453 30.8344C10.7128 30.7669 10.7804 30.6993 10.85 30.6297C11.002 30.6804 11.002 30.6804 11.157 30.7321C11.3788 30.6426 11.3788 30.6426 11.5664 30.5274C11.5664 30.4261 11.5664 30.3248 11.5664 30.2204C11.4988 30.2204 11.4313 30.2204 11.3617 30.2204C11.463 30.1254 11.463 30.1254 11.5664 30.0285C11.7944 29.8359 11.7944 29.8359 11.7711 29.6063C6.88516 27.6528 6.88516 27.6528 2.21472 29.1394Z" fill="black"/>
<path id="Vector_2" d="M50.5592 14.5619C50.8284 14.7843 51.017 14.9658 51.1733 15.2783C51.2077 15.8211 51.1725 16.2526 51.0197 16.7751C50.8356 17.3986 50.8356 17.3986 50.8662 18.0416C51.1745 18.5096 51.5821 18.8643 52.0112 19.2185C52.4632 19.6056 52.7464 20.0095 52.8455 20.6042C52.8844 21.4097 52.4821 22.0468 51.992 22.647C51.8214 22.8176 51.6509 22.9882 51.4803 23.1588C51.3867 23.2874 51.295 23.4176 51.2052 23.5489C51.1271 23.6566 51.049 23.7643 50.9686 23.8752C50.901 23.8752 50.8335 23.8752 50.7639 23.8752C50.7459 23.988 50.7459 23.988 50.7275 24.103C50.6615 24.3872 50.5711 24.5839 50.4249 24.8346C50.3795 24.9134 50.3341 24.9922 50.2874 25.0733C50.242 25.1508 50.1966 25.2282 50.1498 25.308C50.0708 25.4465 49.9919 25.5851 49.9132 25.7238C49.8562 25.823 49.7992 25.9222 49.7405 26.0244C49.6391 26.0244 49.5378 26.0244 49.4334 26.0244C49.3996 26.1595 49.3659 26.2946 49.3311 26.4338C49.2635 26.4338 49.196 26.4338 49.1264 26.4338C49.1074 26.5319 49.1074 26.5319 49.088 26.6321C49.0038 27.0448 48.9116 27.4556 48.8194 27.8666C48.7518 27.8666 48.6843 27.8666 48.6147 27.8666C48.7136 28.0817 48.7136 28.0817 48.9217 28.2759C50.076 28.618 51.2444 27.9156 52.2391 27.3823C53.7341 26.5599 55.1715 25.6702 56.4951 24.5916C56.586 24.5202 56.6769 24.4488 56.7706 24.3753C57.0224 24.1773 57.2709 23.9759 57.5186 23.7728C57.5987 23.7091 57.6787 23.6454 57.7612 23.5797C58.4281 23.0253 58.9808 22.3541 59.2584 21.5213C59.326 21.5213 59.3935 21.5213 59.4631 21.5213C59.4694 21.4453 59.4758 21.3693 59.4823 21.291C59.5916 20.921 59.7745 20.8324 60.0772 20.6002C60.2145 20.3961 60.3512 20.1915 60.4865 19.9861C60.5541 19.9861 60.6216 19.9861 60.6912 19.9861C60.7229 19.9038 60.7229 19.9038 60.7552 19.8198C60.9504 19.4826 61.2079 19.2089 61.51 18.9627C61.5775 18.9627 61.6451 18.9627 61.7147 18.9627C61.7495 18.8803 61.7495 18.8803 61.785 18.7964C62.077 18.268 62.4222 17.9259 62.9428 17.6322C63.0082 17.5625 63.0737 17.4929 63.1411 17.4211C63.3973 17.1804 63.6304 17.1097 63.9662 17.0181C63.9662 16.9506 63.9662 16.883 63.9662 16.8134C64.9181 16.2725 66.0438 15.8844 67.1485 16.1482C67.8177 16.368 68.1899 16.751 68.5397 17.3572C69.1959 18.7587 69.0685 20.467 68.5589 21.8923C68.0957 22.9881 67.491 23.9634 66.7575 24.8974C66.5331 25.1845 66.5331 25.1845 66.3924 25.4212C66.0112 26.0394 65.5864 26.4377 64.9961 26.8559C64.9114 26.9174 64.8267 26.9788 64.7395 27.0421C64.0935 27.4987 63.4382 27.8478 62.7085 28.1496C62.4191 28.2463 62.4191 28.2463 62.3287 28.4806C60.1583 28.9343 60.1583 28.9343 59.3608 28.4806C59.3608 28.3118 59.3608 28.1429 59.3608 27.9689C59.2932 27.9689 59.2257 27.9689 59.1561 27.9689C59.1561 27.9014 59.1561 27.8338 59.1561 27.7642C59.0885 27.7642 59.021 27.7642 58.9514 27.7642C58.8333 27.5365 58.7162 27.3083 58.5996 27.0798C58.5496 26.9837 58.5496 26.9837 58.4986 26.8857C58.3175 26.5291 58.2033 26.2115 58.1326 25.8197C58.0651 25.7184 57.9975 25.6171 57.928 25.5127C57.9599 25.3757 57.9943 25.2393 58.0303 25.1033C57.9908 24.8289 57.9908 24.8289 57.928 24.5916C57.4774 24.916 57.0499 25.2539 56.6328 25.6206C54.6813 27.3318 52.0207 29.4945 49.2843 29.4265C48.7538 29.376 48.4405 29.1499 48.0838 28.7749C47.7633 28.3768 47.5841 27.9588 47.4889 27.4572C47.5209 27.1949 47.5209 27.1949 47.5912 26.9455C47.5918 26.809 47.5894 26.6725 47.5848 26.5361C47.579 26.253 47.5918 26.1254 47.7064 25.8581C47.8314 25.5187 47.7057 25.3378 47.5912 25.0009C47.6104 24.6172 47.6104 24.6172 47.6936 24.2845C47.7949 24.217 47.8962 24.1494 48.0006 24.0799C48.1247 23.7673 48.1247 23.7673 48.2053 23.4658C48.2728 23.4658 48.3404 23.4658 48.41 23.4658C48.429 23.3835 48.448 23.3011 48.4676 23.2163C48.6414 22.7854 48.8859 22.4853 49.1816 22.1305C49.3515 21.9449 49.3515 21.9449 49.3311 21.7259C49.4324 21.7259 49.5337 21.7259 49.6381 21.7259C49.6381 21.6584 49.6381 21.5909 49.6381 21.5213C49.7057 21.5213 49.7732 21.5213 49.8428 21.5213C49.8639 21.4537 49.885 21.3862 49.9068 21.3166C50.186 20.7074 50.6504 20.1966 51.0709 19.6791C50.9738 19.5946 50.8767 19.5102 50.7767 19.4232C50.7221 19.3757 50.6674 19.3282 50.6112 19.2793C50.461 19.1473 50.461 19.1473 50.2522 19.1674C50.2061 19.2554 50.1601 19.3433 50.1126 19.434C49.1089 21.3004 47.561 22.926 45.8794 24.2054C45.6277 24.4017 45.3952 24.6118 45.1606 24.8282C44.5944 25.3434 43.9972 25.812 43.3911 26.2787C43.1795 26.4422 42.9691 26.6072 42.7587 26.7724C40.9729 28.1665 39.0161 29.6103 36.6405 29.4017C36.0663 29.2813 35.8572 29.0403 35.5403 28.5702C35.2473 28.0758 35.0546 27.6002 34.9006 27.0478C34.9344 27.0141 34.9682 26.9803 35.003 26.9455C35.0072 26.7408 35.0072 26.5361 35.003 26.3314C35.003 26.2976 35.003 26.2639 35.003 26.2291C34.9698 26.0924 34.9358 25.9559 34.9006 25.8197C34.4675 26.1506 34.0384 26.4848 33.6221 26.8367C30.0285 29.858 30.0285 29.858 28.0436 29.8111C27.7046 29.7727 27.7046 29.7727 27.4295 29.7088C27.259 29.6743 27.0884 29.6401 26.9178 29.6064C26.9066 29.5308 26.8954 29.4552 26.8838 29.3773C26.7831 28.7327 26.6516 28.1183 26.456 27.4956C26.4028 27.2368 26.4232 27.0903 26.5084 26.8431C26.6773 26.8431 26.8462 26.8431 27.0201 26.8431C27.0201 26.7756 27.0201 26.708 27.0201 26.6384C26.9526 26.6384 26.885 26.6384 26.8155 26.6384C26.8155 26.5371 26.8155 26.4358 26.8155 26.3314C26.9168 26.3314 27.0181 26.3314 27.1225 26.3314C27.1225 26.2301 27.1225 26.1288 27.1225 26.0244C27.0212 26.1257 27.0212 26.1257 26.9178 26.2291C26.799 25.7933 26.8263 25.4418 26.9178 25.0009C27.0191 24.8996 27.0191 24.8996 27.1225 24.7963C27.0887 24.7287 27.0549 24.6612 27.0201 24.5916C27.0877 24.5916 27.1552 24.5916 27.2248 24.5916C27.2248 24.524 27.2248 24.4565 27.2248 24.3869C27.1573 24.3869 27.0897 24.3869 27.0201 24.3869C27.0319 24.2248 27.0449 24.0627 27.0585 23.9008C27.0656 23.8105 27.0728 23.7203 27.0801 23.6273C27.1229 23.3609 27.1827 23.181 27.3272 22.9541C27.5447 22.8773 27.5447 22.8773 27.7365 22.8517C27.7451 22.7785 27.7537 22.7053 27.7625 22.6299C27.8558 22.276 28.0107 22.0785 28.2419 21.7963C28.3509 21.6608 28.3509 21.6608 28.4621 21.5225C28.5267 21.4545 28.5912 21.3866 28.6576 21.3166C28.7252 21.3166 28.7927 21.3166 28.8623 21.3166C28.9299 21.1139 28.9974 20.9113 29.067 20.7025C29.1346 20.7025 29.2021 20.7025 29.2717 20.7025C29.3129 20.6107 29.3129 20.6107 29.3549 20.517C29.4752 20.2954 29.607 20.1625 29.7834 19.9861C29.7834 19.9186 29.7834 19.851 29.7834 19.7814C29.9185 19.7814 30.0536 19.7814 30.1928 19.7814C30.2139 19.7244 30.235 19.6674 30.2568 19.6087C30.3957 19.375 30.508 19.2698 30.7173 19.1034C30.863 18.9831 30.863 18.9831 31.0115 18.8603C31.0115 18.7928 31.0115 18.7252 31.0115 18.6556C31.1129 18.6219 31.2142 18.5881 31.3186 18.5533C31.384 18.4689 31.4494 18.3844 31.5169 18.2974C31.7326 18.0359 31.8097 17.9743 32.1373 17.9392C32.1373 17.8379 32.1373 17.7366 32.1373 17.6322C32.4068 17.3846 32.6075 17.2367 32.9561 17.1205C33.0574 16.9685 33.0574 16.9685 33.1608 16.8134C33.5137 16.5851 33.7984 16.4257 34.2034 16.3145C34.5704 16.2062 34.863 16.0683 35.2012 15.8924C36.1485 15.4099 37.0893 15.1972 38.1372 15.4894C38.9111 15.7847 39.4866 16.3538 39.8291 17.1049C39.9432 17.5311 39.9631 17.9344 39.9666 18.3742C39.9673 18.4529 39.9679 18.5315 39.9686 18.6126C39.9576 19.1023 39.8924 19.4681 39.6084 19.8838C39.4101 19.9945 39.4101 19.9945 39.199 19.9861C38.9944 19.8466 38.9944 19.8466 38.7897 19.6471C38.399 19.2709 38.09 19.0371 37.536 19.0138C36.4935 19.034 35.3886 19.5371 34.5936 20.1908C34.5049 20.2436 34.4163 20.2963 34.3249 20.3507C33.9276 20.5912 33.5841 20.8799 33.2631 21.2142C32.7514 21.7259 32.7514 21.7259 32.5979 21.8731C32.4444 22.0276 32.4444 22.0276 32.3228 22.1881C32.1988 22.346 32.066 22.497 31.9326 22.647C31.8313 22.647 31.73 22.647 31.6256 22.647C31.617 22.7182 31.6085 22.7893 31.5996 22.8625C31.504 23.2334 31.3342 23.488 31.1203 23.8048C31.0112 23.9689 31.0112 23.9689 30.9 24.1362C30.8355 24.2189 30.771 24.3017 30.7045 24.3869C30.637 24.3869 30.5694 24.3869 30.4998 24.3869C30.4893 24.4439 30.4787 24.5009 30.4678 24.5596C30.3827 24.8461 30.2489 25.0534 30.0905 25.308C29.9999 25.463 29.9104 25.6187 29.8218 25.7749C29.7783 25.851 29.7347 25.9272 29.6899 26.0056C29.5845 26.2175 29.5235 26.4074 29.4764 26.6384C29.4088 26.6384 29.3413 26.6384 29.2717 26.6384C29.2464 26.7229 29.221 26.8073 29.1949 26.8943C29.0713 27.2404 28.9221 27.5502 28.75 27.8738C28.6561 28.0745 28.6019 28.2645 28.5553 28.4806C28.4877 28.4806 28.4202 28.4806 28.3506 28.4806C28.3506 28.6157 28.3506 28.7508 28.3506 28.89C29.9452 28.591 31.2637 27.3968 32.4672 26.3818C32.7193 26.17 32.9753 25.963 33.2311 25.7557C33.6448 25.4174 34.0525 25.0725 34.4593 24.7259C34.9347 24.3209 35.4185 23.9349 35.924 23.5681C35.8903 23.4668 35.8565 23.3655 35.8217 23.2611C35.904 23.2147 35.9863 23.1682 36.0712 23.1204C36.3425 22.9799 36.3425 22.9799 36.4358 22.7494C36.5033 22.7494 36.5709 22.7494 36.6405 22.7494C36.6426 22.665 36.6447 22.5805 36.6468 22.4935C36.7809 21.993 37.0787 21.6628 37.4592 21.3166C37.5267 21.3166 37.5943 21.3166 37.6639 21.3166C37.6681 21.2596 37.6723 21.2026 37.6767 21.1439C37.8165 20.7744 38.0607 20.6148 38.3803 20.3955C38.5914 20.3763 38.5914 20.3763 38.7897 20.4978C39.3748 21.1237 39.4458 21.5633 39.4393 22.3968C39.3869 22.916 39.2253 23.3671 38.892 23.7728C38.8038 23.8051 38.7155 23.8375 38.6246 23.8708C38.5037 23.9236 38.5037 23.9236 38.3803 23.9775C38.308 24.2218 38.308 24.2218 38.278 24.4892C38.1552 24.7047 38.1552 24.7047 38.0029 24.9178C37.661 25.4096 37.3536 25.9178 37.0498 26.4338C36.8978 26.3831 36.8978 26.3831 36.7428 26.3314C36.7428 26.4327 36.7428 26.5341 36.7428 26.6384C36.6752 26.6384 36.6077 26.6384 36.5381 26.6384C36.5319 26.7038 36.5257 26.7691 36.5193 26.8363C36.5107 26.9209 36.5022 27.0055 36.4933 27.0926C36.485 27.1769 36.4767 27.2612 36.4681 27.3481C36.4358 27.5595 36.4358 27.5595 36.3334 27.6619C36.401 27.6957 36.4685 27.7294 36.5381 27.7642C36.5043 27.9331 36.4706 28.102 36.4358 28.2759C37.3649 28.5857 38.2446 28.1894 39.0851 27.7798C40.8573 26.8817 42.5116 25.7645 44.1115 24.5916C44.2093 24.5203 44.3071 24.4491 44.4078 24.3757C45.0542 23.883 45.5887 23.3046 46.1241 22.6977C46.2513 22.5553 46.3818 22.4159 46.5126 22.2768C47.496 21.2298 48.3662 20.0792 49.1648 18.8859C49.2394 18.7746 49.3141 18.6632 49.391 18.5485C49.5592 18.2607 49.5592 18.2607 49.5178 17.9724C49.4293 17.7121 49.4293 17.7121 49.2735 17.3827C49.0065 16.6922 48.9807 15.8242 49.2711 15.144C49.5998 14.587 49.914 14.4713 50.5592 14.5619ZM50.1498 15.483C50.0526 15.8612 50.0526 16.1282 50.1498 16.5064C50.3645 16.2649 50.4537 16.1435 50.476 15.8156C50.4697 15.7396 50.4634 15.6636 50.4569 15.5853C50.3555 15.5516 50.2542 15.5178 50.1498 15.483ZM66.7295 19.1674C66.6957 19.2349 66.662 19.3024 66.6272 19.372C66.5216 19.3847 66.4161 19.3974 66.3073 19.4104C65.8416 19.4855 65.5892 19.634 65.1944 19.8838C65.1944 19.9513 65.1944 20.0189 65.1944 20.0884C65.093 20.0884 64.9917 20.0884 64.8873 20.0884C64.8873 20.156 64.8873 20.2235 64.8873 20.2931C64.8058 20.3044 64.8058 20.3044 64.7226 20.3159C64.3802 20.4273 64.1209 20.6337 63.8383 20.8496C63.7816 20.8914 63.7248 20.9331 63.6664 20.9762C63.5233 21.0842 63.386 21.1999 63.2498 21.3166C63.2498 21.3841 63.2498 21.4517 63.2498 21.5213C63.1485 21.555 63.0472 21.5888 62.9428 21.6236C62.909 21.7925 62.8752 21.9613 62.8405 22.1353C62.7729 22.1353 62.7054 22.1353 62.6358 22.1353C62.254 22.428 62.1128 22.7716 61.9342 23.2023C61.7606 23.5926 61.5463 23.9581 61.3329 24.3277C60.9534 25.0984 60.9596 26.2139 61.2221 27.0222C61.3747 27.3615 61.3747 27.3615 61.6379 27.4908C62.184 27.6242 62.6691 27.2964 63.1475 27.0478C63.4385 26.8623 63.6999 26.6526 63.9662 26.4338C64.0348 26.3861 64.1034 26.3385 64.1741 26.2894C64.9251 25.7575 65.4889 25.0617 66.0717 24.3578C66.1902 24.2153 66.3114 24.0751 66.4333 23.9355C67.3147 22.8888 67.9193 21.5227 68.1048 20.1716C68.0414 19.7645 67.8906 19.4014 67.6506 19.065C67.2627 18.9357 67.1005 19.0141 66.7295 19.1674ZM32.1373 20.3955C32.1373 20.463 32.1373 20.5306 32.1373 20.6002C32.2049 20.5664 32.2724 20.5326 32.342 20.4978C32.2745 20.4641 32.2069 20.4303 32.1373 20.3955ZM31.5233 20.7025C31.5908 20.7701 31.6584 20.8376 31.728 20.9072C31.728 20.8397 31.728 20.7721 31.728 20.7025C31.6604 20.7025 31.5929 20.7025 31.5233 20.7025ZM31.3186 21.0095C31.4209 21.2142 31.4209 21.2142 31.4209 21.2142L31.3186 21.0095ZM31.0115 21.2142C31.0115 21.2818 31.0115 21.3493 31.0115 21.4189C31.1129 21.3851 31.2142 21.3514 31.3186 21.3166C31.2173 21.2828 31.1159 21.249 31.0115 21.2142ZM61.7147 21.2142C61.6809 21.2818 61.6471 21.3493 61.6123 21.4189C61.7136 21.3851 61.815 21.3514 61.9194 21.3166C61.8518 21.2828 61.7843 21.249 61.7147 21.2142ZM61.4076 21.7259C61.3739 21.7935 61.3401 21.861 61.3053 21.9306C61.4404 21.8969 61.5755 21.8631 61.7147 21.8283C61.6134 21.7945 61.512 21.7607 61.4076 21.7259ZM30.4998 21.8283C30.4661 21.8958 30.4323 21.9634 30.3975 22.033C30.4313 22.1005 30.465 22.1681 30.4998 22.2377C30.5674 22.2377 30.6349 22.2377 30.7045 22.2377C30.6707 22.1026 30.637 21.9675 30.6022 21.8283C30.5684 21.8283 30.5346 21.8283 30.4998 21.8283ZM60.9983 21.8283C60.9645 21.9296 60.9307 22.0309 60.8959 22.1353C60.9972 22.2366 61.0986 22.338 61.203 22.4424C61.203 22.2397 61.203 22.0371 61.203 21.8283C61.1354 21.8283 61.0679 21.8283 60.9983 21.8283ZM60.7936 22.2377C60.6923 22.4403 60.5909 22.6429 60.4865 22.8517C60.5879 22.8855 60.6892 22.9193 60.7936 22.9541C60.9005 22.6334 60.8892 22.5458 60.7936 22.2377ZM29.9881 22.34C29.9216 22.4793 29.9216 22.4793 29.8538 22.6215C29.7113 22.896 29.5674 23.1241 29.374 23.3634C29.4078 23.431 29.4416 23.4985 29.4764 23.5681C29.5777 23.5344 29.679 23.5006 29.7834 23.4658C29.7834 23.3307 29.7834 23.1956 29.7834 23.0564C29.9185 23.0564 30.0536 23.0564 30.1928 23.0564C30.1928 22.9551 30.1928 22.8538 30.1928 22.7494C30.2603 22.7494 30.3279 22.7494 30.3975 22.7494C30.3975 22.6143 30.3975 22.4792 30.3975 22.34C30.2624 22.34 30.1273 22.34 29.9881 22.34ZM60.3842 22.9541C60.3504 23.0892 60.3167 23.2243 60.2819 23.3634C60.3494 23.3297 60.417 23.2959 60.4865 23.2611C60.4528 23.1598 60.419 23.0585 60.3842 22.9541ZM50.0475 23.1588C50.0475 23.2601 50.0475 23.3614 50.0475 23.4658C50.115 23.4658 50.1826 23.4658 50.2522 23.4658C50.2184 23.3645 50.1846 23.2632 50.1498 23.1588C50.1161 23.1588 50.0823 23.1588 50.0475 23.1588ZM60.1795 23.3634C60.2133 23.4985 60.2471 23.6336 60.2819 23.7728C60.3832 23.7391 60.4845 23.7053 60.5889 23.6705C60.6227 23.738 60.6564 23.8056 60.6912 23.8752C60.6912 23.7738 60.6912 23.6725 60.6912 23.5681C60.4379 23.4668 60.4379 23.4668 60.1795 23.3634ZM29.8858 23.4658C29.852 23.5671 29.8182 23.6684 29.7834 23.7728C29.8847 23.7391 29.9861 23.7053 30.0905 23.6705C30.0229 23.6029 29.9554 23.5354 29.8858 23.4658ZM49.7405 23.4658C49.7742 23.5333 49.808 23.6009 49.8428 23.6705C49.9103 23.6029 49.9779 23.5354 50.0475 23.4658C49.9462 23.4658 49.8448 23.4658 49.7405 23.4658ZM49.5358 23.7728C49.3105 24.1622 49.3105 24.1622 49.2287 24.5916C49.3301 24.5578 49.4314 24.524 49.5358 24.4892C49.5358 24.4217 49.5358 24.3541 49.5358 24.2845C49.6371 24.2508 49.7384 24.217 49.8428 24.1822C49.9178 23.976 49.9178 23.976 49.9451 23.7728C49.81 23.7728 49.675 23.7728 49.5358 23.7728ZM60.0772 23.8752C60.1795 24.0799 60.1795 24.0799 60.1795 24.0799L60.0772 23.8752ZM29.374 24.1822C29.374 24.2497 29.374 24.3173 29.374 24.3869C29.2727 24.3531 29.1714 24.3193 29.067 24.2845C28.9995 24.4196 28.9319 24.5547 28.8623 24.6939C29.0312 24.6939 29.2001 24.6939 29.374 24.6939C29.4416 24.5588 29.5091 24.4237 29.5787 24.2845C29.5112 24.2508 29.4436 24.217 29.374 24.1822ZM37.0498 24.3869C37.0498 24.4544 37.0498 24.522 37.0498 24.5916C37.1174 24.5578 37.1849 24.524 37.2545 24.4892C37.187 24.4555 37.1194 24.4217 37.0498 24.3869ZM60.1795 24.3869C60.1795 24.5558 60.1795 24.7246 60.1795 24.8986C60.2808 24.7635 60.3822 24.6284 60.4865 24.4892C60.3852 24.4555 60.2839 24.4217 60.1795 24.3869ZM49.5358 24.4892C49.6381 24.7963 49.6381 24.7963 49.6381 24.7963L49.5358 24.4892ZM36.5381 24.6939C36.5719 24.7615 36.6057 24.829 36.6405 24.8986C36.6742 24.8311 36.708 24.7635 36.7428 24.6939C36.6752 24.6939 36.6077 24.6939 36.5381 24.6939ZM59.7701 24.6939C59.7701 24.829 59.7701 24.9641 59.7701 25.1033C59.8715 25.1033 59.9728 25.1033 60.0772 25.1033C60.0434 24.9682 60.0096 24.8331 59.9748 24.6939C59.9073 24.6939 59.8397 24.6939 59.7701 24.6939ZM28.9647 25.0009C28.8828 25.3373 28.8524 25.483 28.9647 25.8197C29.066 25.5833 29.1673 25.3469 29.2717 25.1033C29.1704 25.0695 29.0691 25.0357 28.9647 25.0009ZM49.1264 25.1033C49.0588 25.1708 48.9913 25.2384 48.9217 25.308C48.9555 25.4093 48.9892 25.5106 49.024 25.615C49.1591 25.4799 49.2942 25.3448 49.4334 25.2056C49.3321 25.1719 49.2308 25.1381 49.1264 25.1033ZM60.0772 25.1033C60.0772 25.3397 60.0772 25.5761 60.0772 25.8197C60.1785 25.8535 60.2798 25.8872 60.3842 25.922C60.358 25.6822 60.3235 25.4432 60.2819 25.2056C60.2143 25.1719 60.1468 25.1381 60.0772 25.1033ZM27.0201 25.308C27.0201 25.4431 27.0201 25.5782 27.0201 25.7174C27.1215 25.6836 27.2228 25.6498 27.3272 25.615C27.2934 25.5137 27.2596 25.4124 27.2248 25.308C27.1573 25.308 27.0897 25.308 27.0201 25.308ZM36.6405 25.308C36.6405 25.3755 36.6405 25.4431 36.6405 25.5127C36.708 25.5127 36.7755 25.5127 36.8451 25.5127C36.8451 25.4451 36.8451 25.3776 36.8451 25.308C36.7776 25.308 36.71 25.308 36.6405 25.308ZM49.1264 25.5127C49.0926 25.7153 49.0588 25.9179 49.024 26.1267C49.0916 26.1267 49.1591 26.1267 49.2287 26.1267C49.2287 25.9241 49.2287 25.7214 49.2287 25.5127C49.195 25.5127 49.1612 25.5127 49.1264 25.5127ZM36.4358 25.922C36.402 26.0571 36.3682 26.1922 36.3334 26.3314C36.4347 26.3821 36.4347 26.3821 36.5381 26.4338C36.5381 26.2649 36.5381 26.096 36.5381 25.922C36.5043 25.922 36.4706 25.922 36.4358 25.922ZM47.7959 25.922C47.8983 26.2291 47.8983 26.2291 47.8983 26.2291L47.7959 25.922ZM58.3373 26.0244C58.3373 26.1257 58.3373 26.227 58.3373 26.3314C58.4386 26.2976 58.54 26.2639 58.6444 26.2291C58.5768 26.2291 58.5093 26.2291 58.4397 26.2291C58.4059 26.1615 58.3721 26.094 58.3373 26.0244ZM58.542 26.5361C58.5758 26.6712 58.6096 26.8063 58.6444 26.9455C58.7119 26.9117 58.7795 26.8779 58.849 26.8431C58.7477 26.7418 58.6464 26.6405 58.542 26.5361ZM35.2076 26.6384C35.31 26.8431 35.31 26.8431 35.31 26.8431L35.2076 26.6384ZM58.9514 27.1502C58.9852 27.319 59.0189 27.4879 59.0537 27.6619C59.1213 27.5268 59.1888 27.3917 59.2584 27.2525C59.1571 27.2187 59.0558 27.185 58.9514 27.1502Z" fill="black"/>
<path id="Vector_3" d="M79.216 14.5618C79.5451 14.9162 79.6523 15.1885 79.6701 15.6619C79.6135 16.882 79.0408 17.9922 78.1925 18.8602C77.7438 19.2015 77.2962 19.4963 76.7597 19.6789C76.5231 19.6406 76.5231 19.6406 76.3504 19.5766C76.4236 19.0582 76.6536 18.7186 76.936 18.2873C77.0988 18.0276 77.0988 18.0276 77.0668 17.6321C76.9046 17.6785 76.7426 17.7255 76.5806 17.7728C76.4904 17.7989 76.4002 17.825 76.3072 17.8519C75.8362 17.9905 75.8362 17.9905 75.5244 18.3405C75.493 18.4107 75.4616 18.4808 75.4293 18.5532C75.3345 18.6669 75.2362 18.7778 75.135 18.8858C74.8554 19.2029 74.6711 19.5183 74.495 19.9012C74.4058 20.0883 74.4058 20.0883 74.2395 20.3314C73.9645 20.8564 73.8941 21.4459 73.8941 22.0328C73.879 22.1887 73.8619 22.3444 73.8429 22.4998C73.8115 22.7587 73.7918 22.9994 73.7918 23.261C73.9193 23.2174 74.0469 23.1739 74.1784 23.129C76.39 22.3931 78.6572 21.8925 80.9558 21.5211C80.9717 21.423 80.9717 21.423 80.9878 21.3228C81.0226 21.2184 81.0226 21.2184 81.0582 21.1118C81.1595 21.078 81.2608 21.0442 81.3652 21.0094C81.3926 20.9503 81.4201 20.8912 81.4484 20.8303C81.6509 20.4465 82.0011 20.1797 82.3886 19.986C82.4554 19.7788 82.4554 19.7788 82.491 19.5766C82.6261 19.5766 82.7612 19.5766 82.9004 19.5766C82.9004 19.5091 82.9004 19.4415 82.9004 19.3719C82.9621 19.3385 83.0238 19.3052 83.0875 19.2708C83.1693 19.226 83.251 19.1813 83.3353 19.1352C83.4161 19.0913 83.4968 19.0474 83.58 19.0021C83.824 18.8648 83.824 18.8648 84.0433 18.6935C84.2468 18.5412 84.3932 18.4986 84.6402 18.4508C84.7415 18.417 84.8428 18.3833 84.9472 18.3485C85.0148 18.3822 85.0823 18.416 85.1519 18.4508C85.1519 18.3833 85.1519 18.3157 85.1519 18.2461C85.8301 17.929 86.3467 17.7884 87.0965 17.8368C87.0627 17.9381 87.0289 18.0394 86.9941 18.1438C87.084 18.1553 87.1738 18.1667 87.2664 18.1786C88.1943 18.362 88.9083 18.922 89.4504 19.6789C89.6447 20.0677 89.6143 20.5067 89.4863 20.9131C89.2439 21.4447 88.886 21.8757 88.4269 22.2375C88.3594 22.2375 88.2918 22.2375 88.2222 22.2375C88.1817 22.3276 88.1817 22.3276 88.1403 22.4194C87.4968 23.6121 85.9137 24.4854 84.7553 25.1032C84.6515 25.1587 84.6515 25.1587 84.5455 25.2153C83.7836 25.6066 83.037 25.8444 82.184 25.9219C82.1745 26.8624 82.1745 26.8624 82.4398 27.7449C82.7295 27.9984 82.9481 28.0854 83.3341 28.0991C84.7568 27.9583 86.122 27.1186 87.3781 26.4959C87.6977 26.3376 88.018 26.1812 88.3386 26.0251C89.5624 25.4253 90.7548 24.7832 91.937 24.1053C92.7913 23.6159 93.6579 23.1488 94.5239 22.6805C94.8544 22.4996 95.1816 22.3128 95.5083 22.125C95.6933 22.0328 95.6933 22.0328 95.898 22.0328C95.9318 22.2017 95.9656 22.3706 96.0004 22.5446C92.4255 25.6579 87.8324 28.4668 83.0427 28.9419C82.7027 28.9773 82.7027 28.9773 82.4298 29.099C82.139 29.2148 81.9138 29.2208 81.6019 29.2161C81.5044 29.2154 81.4069 29.2148 81.3064 29.2141C81.0582 29.1969 81.0582 29.1969 80.8535 29.0946C80.8873 28.8919 80.921 28.6893 80.9558 28.4805C80.8545 28.5143 80.7532 28.5481 80.6488 28.5828C80.4397 28.4881 80.4397 28.4881 80.2202 28.3462C80.147 28.3001 80.0738 28.2541 79.9984 28.2067C79.9428 28.1619 79.8873 28.1172 79.83 28.0711C79.83 28.0036 79.83 27.936 79.83 27.8664C79.7625 27.8664 79.695 27.8664 79.6254 27.8664C79.6254 27.7651 79.6254 27.6638 79.6254 27.5594C79.524 27.5256 79.4227 27.4919 79.3183 27.4571C79.3521 27.3557 79.3859 27.2544 79.4207 27.15C79.4882 27.1838 79.5558 27.2176 79.6254 27.2524C79.6254 27.1848 79.6254 27.1173 79.6254 27.0477C79.5578 27.0477 79.4903 27.0477 79.4207 27.0477C79.3869 26.9464 79.3531 26.8451 79.3183 26.7407C79.2339 26.671 79.1495 26.6013 79.0625 26.5296C78.7614 26.1758 78.6956 25.9769 78.6703 25.5205C78.7796 24.5073 79.3048 23.5041 79.83 22.6469C78.9559 22.799 78.1091 23.0378 77.2587 23.2866C77.1536 23.3171 77.1536 23.3171 77.0464 23.3482C76.1104 23.6205 75.1886 23.9122 74.2831 24.2748C74.0504 24.3657 73.8308 24.4369 73.5871 24.4891C73.5685 24.5635 73.5499 24.6379 73.5307 24.7146C73.4765 24.9314 73.4221 25.1482 73.3676 25.365C73.3112 25.592 73.2559 25.8194 73.2021 26.047C73.0662 26.6159 72.915 27.1327 72.666 27.6618C72.6147 27.7896 72.5635 27.9176 72.5125 28.0455C72.3743 28.3449 72.2803 28.4667 72.0519 28.6852C71.9301 28.9512 71.9301 28.9512 71.8472 29.1969C71.7797 29.1969 71.7121 29.1969 71.6425 29.1969C71.6203 29.2522 71.598 29.3075 71.575 29.3644C71.3905 29.6897 71.1442 29.9391 70.8814 30.2012C70.7998 30.2825 70.7998 30.2825 70.7166 30.3654C70.2212 30.8459 69.6912 31.2212 69.084 31.5508C69.0177 31.5875 68.9515 31.6242 68.8833 31.662C68.4209 31.89 68.0519 31.9137 67.5488 31.8578C67.1744 31.6742 66.9797 31.5108 66.7364 31.1734C66.456 30.2992 66.8417 29.467 67.2418 28.6852C67.8282 27.6685 68.8227 26.2572 69.9027 25.7172C70.2069 24.8617 70.3073 23.945 70.3633 23.0435C70.4147 22.2253 70.55 21.4754 70.8238 20.7024C70.873 20.5297 70.9221 20.357 70.9709 20.1843C71.0827 19.8045 71.2246 19.5023 71.4379 19.1672C71.4379 19.0659 71.4379 18.9646 71.4379 18.8602C71.8302 17.9261 72.3447 17.2102 73.083 16.5215C73.2861 16.2949 73.3214 16.1803 73.3824 15.8922C73.6383 15.7259 73.6383 15.7259 73.8941 15.5852C73.9279 15.5176 73.9617 15.4501 73.9965 15.3805C74.064 15.3805 74.1315 15.3805 74.2011 15.3805C74.2011 15.313 74.2011 15.2454 74.2011 15.1758C75.6721 14.4057 77.6842 13.381 79.216 14.5618ZM72.7683 21.0094C72.8707 21.2141 72.8707 21.2141 72.8707 21.2141L72.7683 21.0094ZM86.8086 21.3612C86.4628 21.4695 86.1224 21.5576 85.766 21.6235C85.766 21.691 85.766 21.7586 85.766 21.8282C85.69 21.8408 85.614 21.8535 85.5357 21.8665C85.2672 21.9276 85.0723 21.9809 84.8449 22.1352C84.7625 22.345 84.7625 22.345 84.7425 22.5446C84.5061 22.5783 84.2697 22.6121 84.0261 22.6469C84.0261 22.7482 84.0261 22.8496 84.0261 22.9539C83.9523 22.9729 83.8784 22.9919 83.8023 23.0115C83.4525 23.1903 83.3241 23.3905 83.1166 23.7155C83.0027 23.875 83.0027 23.875 82.798 23.9774C82.7056 24.1701 82.7056 24.1701 82.6317 24.3932C82.6051 24.4682 82.5784 24.5433 82.551 24.6206C82.5312 24.6785 82.5114 24.7365 82.491 24.7961C83.0921 24.7466 83.5205 24.5682 84.0453 24.278C84.1214 24.2367 84.1975 24.1953 84.2758 24.1527C85.4974 23.4791 86.8043 22.6947 87.6082 21.5211C87.5575 21.3691 87.5575 21.3691 87.5058 21.2141C87.2505 21.2141 87.0523 21.2848 86.8086 21.3612ZM72.4613 21.5211C72.5636 21.7258 72.5636 21.7258 72.5636 21.7258L72.4613 21.5211ZM72.359 22.1352C72.3252 22.2027 72.2914 22.2703 72.2566 22.3399C72.3242 22.3399 72.3917 22.3399 72.4613 22.3399C72.4275 22.2723 72.3938 22.2048 72.359 22.1352ZM72.5636 22.5446C72.5636 22.8516 72.5636 22.8516 72.5636 22.8516V22.5446ZM72.2566 22.6469C72.359 22.8516 72.359 22.8516 72.359 22.8516L72.2566 22.6469ZM82.0816 22.6469C82.0478 22.7145 82.0141 22.782 81.9793 22.8516C82.0806 22.8516 82.1819 22.8516 82.2863 22.8516C82.2863 22.7841 82.2863 22.7165 82.2863 22.6469C82.2188 22.6469 82.1512 22.6469 82.0816 22.6469ZM72.1543 23.0563C72.188 23.1238 72.2218 23.1914 72.2566 23.261C72.3579 23.1934 72.4593 23.1259 72.5636 23.0563C72.4285 23.0563 72.2935 23.0563 72.1543 23.0563ZM81.6722 23.0563C81.6722 23.1576 81.6722 23.2589 81.6722 23.3633C81.8073 23.3633 81.9424 23.3633 82.0816 23.3633C82.0478 23.2958 82.0141 23.2282 81.9793 23.1586C81.8779 23.1249 81.7766 23.0911 81.6722 23.0563ZM72.1543 23.3633C72.1205 23.566 72.0867 23.7686 72.0519 23.9774C72.187 23.9436 72.3221 23.9098 72.4613 23.875C72.3938 23.7062 72.3262 23.5373 72.2566 23.3633C72.2228 23.3633 72.1891 23.3633 72.1543 23.3633ZM81.6722 23.568C81.5034 23.6356 81.3345 23.7031 81.1605 23.7727C81.1943 23.9416 81.2281 24.1104 81.2629 24.2844C81.3304 24.2844 81.398 24.2844 81.4675 24.2844C81.4802 24.219 81.4929 24.1535 81.5059 24.0861C81.527 24.0165 81.5481 23.9468 81.5699 23.875C81.6374 23.8413 81.705 23.8075 81.7746 23.7727C81.7408 23.7051 81.707 23.6376 81.6722 23.568ZM81.0582 24.1821C80.9906 24.3847 80.9231 24.5873 80.8535 24.7961C80.9548 24.7961 81.0561 24.7961 81.1605 24.7961C81.1605 24.5935 81.1605 24.3908 81.1605 24.1821C81.1267 24.1821 81.093 24.1821 81.0582 24.1821ZM80.0347 24.5914C80.0347 24.659 80.0347 24.7265 80.0347 24.7961C80.1023 24.7961 80.1698 24.7961 80.2394 24.7961C80.2394 24.7286 80.2394 24.661 80.2394 24.5914C80.1719 24.5914 80.1043 24.5914 80.0347 24.5914ZM81.3652 24.6938C81.3314 24.7951 81.2977 24.8964 81.2629 25.0008C81.3304 25.0008 81.398 25.0008 81.4675 25.0008C81.4338 24.8995 81.4 24.7982 81.3652 24.6938ZM80.7511 25.7172C80.7511 25.8523 80.7511 25.9874 80.7511 26.1266C80.8187 26.1266 80.8862 26.1266 80.9558 26.1266C80.9558 25.9915 80.9558 25.8564 80.9558 25.7172C80.8883 25.7172 80.8207 25.7172 80.7511 25.7172ZM71.8472 25.8196C71.8135 25.9884 71.7797 26.1573 71.7449 26.3313C71.8462 26.2637 71.9475 26.1962 72.0519 26.1266C71.9844 26.0253 71.9168 25.924 71.8472 25.8196ZM72.1543 25.8196C72.2566 26.0243 72.2566 26.0243 72.2566 26.0243L72.1543 25.8196ZM81.0582 26.1266C81.0582 26.2955 81.0582 26.4643 81.0582 26.6383C81.1595 26.6383 81.2608 26.6383 81.3652 26.6383C81.3296 26.4362 81.3296 26.4362 81.2629 26.2289C81.1953 26.1952 81.1278 26.1614 81.0582 26.1266ZM72.0519 26.3313C72.0181 26.5677 71.9844 26.8041 71.9496 27.0477C72.0171 27.0477 72.0847 27.0477 72.1543 27.0477C72.188 26.8113 72.2218 26.5749 72.2566 26.3313C72.1891 26.3313 72.1215 26.3313 72.0519 26.3313ZM70.005 26.843C68.7995 27.8657 67.7992 28.8839 67.6391 30.5106C67.634 30.7627 67.634 30.7627 67.8558 31.0391C68.4559 31.0364 68.8929 30.9598 69.3326 30.5334C69.8805 29.8152 70.0858 28.9599 70.1074 28.0711C70.2087 28.0374 70.31 28.0036 70.4144 27.9688C70.4144 27.9012 70.4144 27.8337 70.4144 27.7641C70.3131 27.7641 70.2118 27.7641 70.1074 27.7641C70.1074 27.6628 70.1074 27.5615 70.1074 27.4571C70.2087 27.4571 70.31 27.4571 70.4144 27.4571C70.4144 27.3557 70.4144 27.2544 70.4144 27.15C70.3131 27.15 70.2118 27.15 70.1074 27.15C70.0736 27.0487 70.0398 26.9474 70.005 26.843ZM70.3121 26.843C70.4144 27.0477 70.4144 27.0477 70.4144 27.0477L70.3121 26.843ZM71.6425 27.3547C71.7449 27.5594 71.7449 27.5594 71.7449 27.5594L71.6425 27.3547ZM79.7277 27.4571C79.7615 27.5584 79.7953 27.6597 79.83 27.7641C79.8976 27.7641 79.9651 27.7641 80.0347 27.7641C80.0347 27.6628 80.0347 27.5615 80.0347 27.4571C79.9334 27.4571 79.8321 27.4571 79.7277 27.4571ZM80.2394 27.9688C80.2732 28.0701 80.307 28.1714 80.3418 28.2758C80.4431 28.242 80.5444 28.2083 80.6488 28.1735C80.5137 28.1059 80.3786 28.0384 80.2394 27.9688Z" fill="black"/>
<path id="Vector_4" d="M91.1895 12.1057C91.6022 12.509 91.9042 12.9612 92.0082 13.5385C92.0022 13.8451 92.0022 13.8451 91.9059 14.1525C91.6408 14.3736 91.6408 14.3736 91.2982 14.5683C91.2379 14.6028 91.1776 14.6372 91.1155 14.6727C90.9365 14.774 90.7559 14.8727 90.5754 14.9713C90.4404 15.0516 90.4404 15.0516 90.3027 15.1336C89.7326 15.4549 89.249 15.5393 88.5977 15.5666C88.3113 15.5734 88.3113 15.5734 88.0104 15.7005C87.0889 15.975 86.1782 15.5833 85.3559 15.176C85.2545 15.1084 85.1532 15.0409 85.0488 14.9713C85.1554 14.6451 85.2532 14.5621 85.5553 14.386C85.6826 14.3246 85.8101 14.2639 85.9379 14.2037C86.5458 13.9006 87.0662 13.5503 87.5882 13.1163C88.6697 12.2178 89.7707 11.3174 91.1895 12.1057Z" fill="black"/>
<path id="Vector_5" d="M12.8965 28.1733C12.964 28.1733 13.0316 28.1733 13.1012 28.1733C13.0674 28.2747 13.0336 28.376 12.9988 28.4804C12.9651 28.3791 12.9313 28.2777 12.8965 28.1733Z" fill="black"/>
<path id="Vector_6" d="M11.1572 30.2202C11.2585 30.2709 11.2585 30.2709 11.3619 30.3226C11.2606 30.3732 11.2606 30.3732 11.1572 30.4249C11.1572 30.3574 11.1572 30.2898 11.1572 30.2202Z" fill="black"/>
</g>
</svg>
