<svg width="25" height="24" viewBox="0 0 25 24" fill="none" xmlns="http://www.w3.org/2000/svg">
<g id="ri:whatsapp-fill">
<path id="Vector" d="M2.33702 22L3.68902 17.032C2.79816 15.5049 2.33012 13.768 2.33302 12C2.33302 6.477 6.81002 2 12.333 2C17.856 2 22.333 6.477 22.333 12C22.333 17.523 17.856 22 12.333 22C10.5658 22.0029 8.82968 21.5352 7.30302 20.645L2.33702 22ZM8.72402 7.308C8.59488 7.31602 8.4687 7.35003 8.35302 7.408C8.24454 7.46943 8.14552 7.54622 8.05902 7.636C7.93902 7.749 7.87102 7.847 7.79802 7.942C7.42843 8.423 7.22963 9.01342 7.23302 9.62C7.23502 10.11 7.36302 10.587 7.56302 11.033C7.97202 11.935 8.64502 12.89 9.53402 13.775C9.74802 13.988 9.95702 14.202 10.182 14.401C11.2854 15.3725 12.6003 16.073 14.022 16.447L14.591 16.534C14.776 16.544 14.961 16.53 15.147 16.521C15.4383 16.506 15.7226 16.4271 15.98 16.29C16.111 16.2225 16.2388 16.1491 16.363 16.07C16.363 16.07 16.406 16.042 16.488 15.98C16.623 15.88 16.706 15.809 16.818 15.692C16.901 15.606 16.973 15.505 17.028 15.39C17.106 15.227 17.184 14.916 17.216 14.657C17.24 14.459 17.233 14.351 17.23 14.284C17.226 14.177 17.137 14.066 17.04 14.019L16.458 13.758C16.458 13.758 15.588 13.379 15.057 13.137C15.001 13.1126 14.941 13.0987 14.88 13.096C14.8116 13.089 14.7425 13.0967 14.6773 13.1186C14.6121 13.1405 14.5523 13.1761 14.502 13.223V13.221C14.497 13.221 14.43 13.278 13.707 14.154C13.6655 14.2098 13.6084 14.2519 13.5428 14.2751C13.4773 14.2982 13.4063 14.3013 13.339 14.284C13.2739 14.2666 13.21 14.2445 13.148 14.218C13.024 14.166 12.981 14.146 12.896 14.109L12.891 14.107C12.3189 13.8572 11.7892 13.5198 11.321 13.107C11.195 12.997 11.078 12.877 10.958 12.761C10.5646 12.3842 10.2217 11.958 9.93802 11.493L9.87902 11.398C9.83664 11.3342 9.80238 11.2653 9.77702 11.193C9.73902 11.046 9.83802 10.928 9.83802 10.928C9.83802 10.928 10.081 10.662 10.194 10.518C10.2881 10.3983 10.3759 10.2738 10.457 10.145C10.575 9.955 10.612 9.76 10.55 9.609C10.27 8.925 9.98002 8.244 9.68202 7.568C9.62302 7.434 9.44802 7.338 9.28902 7.319C9.23502 7.313 9.18102 7.307 9.12702 7.303C8.99273 7.29633 8.85816 7.29766 8.72402 7.307V7.308Z" fill="white"/>
</g>
</svg>
