<svg width="15" height="17" viewBox="0 0 15 17" fill="none" xmlns="http://www.w3.org/2000/svg">
<g id="&#240;&#159;&#166;&#134; icon &#34;tiktok&#34;">
<path id="Vector" d="M7.70106 0.0140647C8.6223 0 9.5365 0.00703235 10.4507 0C10.507 1.07595 10.8937 2.173 11.6814 2.93249C12.469 3.71308 13.5801 4.07173 14.6631 4.19128V7.02532C13.6504 6.99016 12.6307 6.77919 11.7095 6.34318C11.3087 6.16034 10.9359 5.92827 10.5703 5.68917C10.5632 7.74262 10.5773 9.79606 10.5562 11.8425C10.4999 12.827 10.1764 13.8045 9.60682 14.6132C8.68559 15.9634 7.08924 16.8425 5.45071 16.8706C4.44508 16.9269 3.43945 16.6526 2.58151 16.1463C1.16097 15.3094 0.162378 13.7764 0.0146988 12.1308C0.000634102 11.7792 -0.00639824 11.4276 0.00766646 11.083C0.134249 9.74684 0.79529 8.46695 1.82201 7.59494C2.98938 6.58228 4.62089 6.09705 6.14691 6.38537C6.16097 7.42616 6.11878 8.46695 6.11878 9.50774C5.42258 9.2827 4.60682 9.34599 3.99501 9.76794C3.55197 10.0563 3.21442 10.4993 3.03861 10.9986C2.89093 11.3572 2.93312 11.7511 2.94016 12.1308C3.10893 13.2841 4.22004 14.2546 5.40148 14.1491C6.1891 14.1421 6.94156 13.685 7.34944 13.0169C7.48305 12.7848 7.63073 12.5457 7.63777 12.2715C7.70809 11.0127 7.67996 9.7609 7.68699 8.50211C7.69403 5.66807 7.67996 2.84107 7.70106 0.0140647Z" fill="white"/>
</g>
</svg>
